<svg width="20.000000" height="19.878418" viewBox="0 0 20 19.8784" fill="none" xmlns="http://www.w3.org/2000/svg" xmlns:xlink="http://www.w3.org/1999/xlink">
	<desc>
			Created with Pixso.
	</desc>
	<defs/>
	<path id="Vector" d="M20 10C20 4.47 15.52 0 10 0C4.47 0 0 4.47 0 10C0 14.99 3.65 19.12 8.43 19.87L8.43 12.89L5.89 12.89L5.89 10L8.43 10L8.43 7.79C8.43 5.29 9.93 3.9 12.21 3.9C13.3 3.9 14.45 4.1 14.45 4.1L14.45 6.56L13.19 6.56C11.95 6.56 11.56 7.33 11.56 8.12L11.56 10L14.33 10L13.89 12.89L11.56 12.89L11.56 19.87C16.34 19.12 20 14.99 20 10Z" fill="#FFFFFF" fill-opacity="1.000000" fill-rule="nonzero"/>
</svg>
