<svg width="20.000000" height="20.000000" viewBox="0 0 20 20" fill="none" xmlns="http://www.w3.org/2000/svg" xmlns:xlink="http://www.w3.org/1999/xlink">
	<desc>
			Created with Pixso.
	</desc>
	<defs>
		<clipPath id="clip1_3015">
			<rect rx="-0.250000" width="19.500000" height="19.500000" transform="translate(0.250000 0.250000)" fill="white" fill-opacity="0"/>
		</clipPath>
	</defs>
	<rect rx="-0.250000" width="19.500000" height="19.500000" transform="translate(0.250000 0.250000)" fill="#FFFFFF" fill-opacity="0"/>
	<g clip-path="url(#clip1_3015)">
		<path d="M18.51 0L1.47 0C0.66 0 0 0.64 0 1.44L0 18.55C0 19.35 0.66 20 1.47 20L18.51 20C19.33 20 20 19.35 20 18.55L20 1.44C20 0.64 19.33 0 18.51 0ZM5.93 17.04L2.96 17.04L2.96 7.49L5.93 7.49L5.93 17.04ZM4.44 6.19C3.49 6.19 2.72 5.42 2.72 4.47C2.72 3.52 3.49 2.75 4.44 2.75C5.39 2.75 6.16 3.52 6.16 4.47C6.16 5.42 5.39 6.19 4.44 6.19ZM17.04 17.04L14.07 17.04L14.07 12.4C14.07 11.29 14.05 9.87 12.53 9.87C10.99 9.87 10.75 11.07 10.75 12.32L10.75 17.04L7.79 17.04L7.79 7.49L10.64 7.49L10.64 8.8L10.67 8.8C11.07 8.05 12.04 7.25 13.48 7.25C16.48 7.25 17.04 9.23 17.04 11.8L17.04 17.04Z" fill="#FFFFFF" fill-opacity="1.000000" fill-rule="nonzero"/>
	</g>
</svg>
