<svg width="20.000000" height="20.000000" viewBox="0 0 20 20" fill="none" xmlns="http://www.w3.org/2000/svg" xmlns:xlink="http://www.w3.org/1999/xlink">
	<desc>
			Created with Pixso.
	</desc>
	<defs>
		<clipPath id="clip1_3010">
			<rect rx="-0.250000" width="19.500000" height="19.500000" transform="translate(0.250000 0.250000)" fill="white" fill-opacity="0"/>
		</clipPath>
	</defs>
	<rect rx="-0.250000" width="19.500000" height="19.500000" transform="translate(0.250000 0.250000)" fill="#FFFFFF" fill-opacity="0"/>
	<g clip-path="url(#clip1_3010)">
		<path d="M10 1.8C12.67 1.8 12.98 1.81 14.03 1.85C15.01 1.9 15.54 2.06 15.89 2.2C16.35 2.38 16.69 2.6 17.04 2.94C17.39 3.3 17.6 3.63 17.78 4.09C17.92 4.44 18.08 4.98 18.13 5.95C18.17 7 18.19 7.32 18.19 9.99C18.19 12.66 18.17 12.98 18.13 14.03C18.08 15 17.92 15.53 17.78 15.88C17.6 16.35 17.39 16.68 17.04 17.03C16.69 17.38 16.35 17.6 15.89 17.78C15.54 17.91 15.01 18.08 14.03 18.12C12.98 18.17 12.66 18.18 10 18.18C7.32 18.18 7.01 18.17 5.96 18.12C4.98 18.08 4.45 17.91 4.1 17.78C3.64 17.6 3.3 17.38 2.95 17.03C2.6 16.68 2.39 16.35 2.21 15.88C2.07 15.53 1.91 15 1.86 14.03C1.82 12.97 1.8 12.66 1.8 9.99C1.8 7.32 1.82 7 1.86 5.95C1.91 4.97 2.07 4.44 2.21 4.09C2.39 3.63 2.6 3.29 2.95 2.94C3.3 2.59 3.64 2.38 4.1 2.2C4.45 2.06 4.98 1.9 5.96 1.85C7.01 1.81 7.32 1.8 10 1.8ZM10 0C7.28 0 6.94 0.01 5.87 0.05C4.81 0.1 4.08 0.27 3.45 0.52C2.79 0.78 2.23 1.12 1.67 1.67C1.12 2.23 0.78 2.79 0.52 3.44C0.27 4.08 0.1 4.81 0.05 5.87C0.01 6.94 0 7.28 0 10C0 12.71 0.01 13.05 0.05 14.12C0.1 15.18 0.27 15.91 0.52 16.54C0.78 17.2 1.12 17.76 1.67 18.32C2.23 18.87 2.79 19.21 3.44 19.47C4.08 19.71 4.81 19.89 5.87 19.93C6.94 19.98 7.28 19.99 9.99 19.99C12.71 19.99 13.05 19.98 14.11 19.93C15.17 19.89 15.91 19.71 16.54 19.47C17.19 19.21 17.75 18.87 18.31 18.32C18.86 17.76 19.21 17.2 19.46 16.55C19.71 15.91 19.88 15.18 19.92 14.12C19.97 13.05 19.98 12.71 19.98 10C19.98 7.28 19.97 6.94 19.92 5.88C19.88 4.82 19.71 4.08 19.46 3.45C19.21 2.79 18.87 2.23 18.32 1.67C17.76 1.12 17.2 0.78 16.55 0.52C15.91 0.28 15.18 0.1 14.12 0.06C13.05 0.01 12.71 0 10 0Z" fill="#FFFFFF" fill-opacity="1.000000" fill-rule="nonzero"/>
		<path d="M10 4.86C7.16 4.86 4.86 7.16 4.86 10C4.86 12.83 7.16 15.13 10 15.13C12.83 15.13 15.13 12.83 15.13 10C15.13 7.16 12.83 4.86 10 4.86ZM10 13.33C8.16 13.33 6.66 11.83 6.66 10C6.66 8.16 8.16 6.66 10 6.66C11.83 6.66 13.33 8.16 13.33 10C13.33 11.83 11.83 13.33 10 13.33Z" fill="#FFFFFF" fill-opacity="1.000000" fill-rule="nonzero"/>
		<path d="M16.53 4.66C16.53 5.32 16 5.85 15.33 5.85C14.67 5.85 14.14 5.32 14.14 4.66C14.14 3.99 14.67 3.46 15.33 3.46C16 3.46 16.53 4 16.53 4.66Z" fill="#FFFFFF" fill-opacity="1.000000" fill-rule="nonzero"/>
	</g>
</svg>
