<svg width="20.000000" height="20.000000" viewBox="0 0 20 20" fill="none" xmlns="http://www.w3.org/2000/svg" xmlns:xlink="http://www.w3.org/1999/xlink">
	<desc>
			Created with Pixso.
	</desc>
	<defs>
		<clipPath id="clip1_3008">
			<rect rx="-0.250000" width="19.500000" height="19.500000" transform="translate(0.250000 0.250000)" fill="white" fill-opacity="0"/>
		</clipPath>
	</defs>
	<rect rx="-0.250000" width="19.500000" height="19.500000" transform="translate(0.250000 0.250000)" fill="#FFFFFF" fill-opacity="0"/>
	<g clip-path="url(#clip1_3008)">
		<path d="M6.29 18.12C13.83 18.12 17.96 11.87 17.96 6.45C17.96 6.27 17.96 6.09 17.95 5.92C18.75 5.33 19.44 4.62 20 3.79C19.25 4.12 18.45 4.34 17.64 4.44C18.5 3.92 19.14 3.12 19.44 2.17C18.64 2.64 17.76 2.98 16.84 3.16C16.22 2.5 15.4 2.07 14.51 1.92C13.62 1.78 12.71 1.93 11.91 2.36C11.11 2.78 10.48 3.46 10.11 4.28C9.73 5.1 9.64 6.02 9.84 6.9C8.21 6.82 6.62 6.4 5.16 5.66C3.7 4.92 2.42 3.89 1.39 2.62C0.87 3.52 0.7 4.59 0.94 5.61C1.18 6.63 1.79 7.51 2.66 8.1C2.01 8.07 1.37 7.9 0.8 7.58L0.8 7.63C0.8 8.58 1.13 9.5 1.73 10.23C2.33 10.97 3.16 11.47 4.09 11.66C3.49 11.82 2.85 11.85 2.24 11.73C2.5 12.54 3.01 13.26 3.7 13.77C4.39 14.28 5.22 14.56 6.07 14.58C4.62 15.72 2.82 16.34 0.98 16.34C0.65 16.34 0.32 16.32 0 16.28C1.87 17.48 4.06 18.12 6.29 18.12Z" fill="#FFFFFF" fill-opacity="1.000000" fill-rule="nonzero"/>
	</g>
</svg>
