<svg width="96.630859" height="30.020142" viewBox="0 0 96.6309 30.0201" fill="none" xmlns="http://www.w3.org/2000/svg" xmlns:xlink="http://www.w3.org/1999/xlink">
	<desc>
			Created with Pixso.
	</desc>
	<defs/>
	<path id="Vector" d="M27.8 21.28C27.65 20.91 27.51 20.53 27.36 20.2L26.65 18.63L26.63 18.61C24.54 14.11 22.3 9.53 19.94 5.03L19.84 4.84C19.6 4.4 19.36 3.92 19.12 3.47C18.81 2.93 18.52 2.36 18.03 1.82C17.56 1.25 16.97 0.79 16.29 0.47C15.62 0.16 14.88 0 14.14 0C13.39 0 12.66 0.16 11.98 0.47C11.31 0.79 10.71 1.25 10.24 1.82C9.79 2.36 9.46 2.93 9.16 3.47C8.92 3.95 8.68 4.43 8.44 4.87L8.34 5.06C6.01 9.56 3.74 14.13 1.65 18.63L1.59 18.69C1.38 19.18 1.14 19.68 0.9 20.23C0.75 20.56 0.59 20.91 0.44 21.31C0.03 22.34 -0.1 23.46 0.06 24.55C0.22 25.65 0.67 26.68 1.36 27.56C2.05 28.43 2.96 29.11 4 29.53C5.04 29.95 6.17 30.1 7.29 29.96C8.35 29.82 9.38 29.47 10.31 28.93C11.54 28.24 12.73 27.25 14.06 25.82C15.39 27.25 16.61 28.24 17.82 28.94C18.98 29.61 20.29 29.98 21.64 30.02C23.19 30.02 24.7 29.47 25.88 28.47C27.06 27.46 27.83 26.07 28.05 24.55C28.31 23.46 28.22 22.31 27.8 21.27L27.8 21.28ZM14.16 22.83C12.52 20.77 11.46 18.88 11.1 17.26C10.95 16.65 10.91 16.03 11 15.42C11.07 14.94 11.25 14.52 11.5 14.16C12.07 13.35 13.06 12.84 14.16 12.84C14.68 12.82 15.19 12.94 15.66 13.17C16.12 13.39 16.52 13.73 16.82 14.15C17.06 14.53 17.25 14.94 17.3 15.42C17.4 15.96 17.36 16.59 17.21 17.26C16.85 18.85 15.78 20.76 14.16 22.83ZM26.26 24.22C26.16 24.99 25.85 25.72 25.36 26.34C24.88 26.96 24.24 27.44 23.51 27.74C22.79 28.04 21.99 28.12 21.21 28.04C20.45 27.94 19.69 27.7 18.91 27.25C17.61 26.46 16.45 25.48 15.46 24.34C17.45 21.91 18.66 19.68 19.12 17.71C19.34 16.77 19.36 15.92 19.27 15.15C19.15 14.41 18.87 13.71 18.45 13.08C17.97 12.41 17.33 11.86 16.59 11.49C15.85 11.12 15.02 10.93 14.19 10.95C12.43 10.95 10.86 11.75 9.91 13.07C9.48 13.69 9.2 14.4 9.1 15.15C8.98 15.93 9.01 16.81 9.25 17.71C9.71 19.68 10.94 21.93 12.91 24.36C11.94 25.52 10.77 26.51 9.46 27.29C8.67 27.74 7.92 27.97 7.16 28.07C5.98 28.21 4.78 27.9 3.84 27.18C2.89 26.47 2.27 25.41 2.11 24.25C2.01 23.5 2.08 22.75 2.38 21.91C2.48 21.61 2.62 21.31 2.77 20.95C2.98 20.46 3.23 19.96 3.46 19.45L3.5 19.38C5.56 14.91 7.8 10.35 10.13 5.87L10.22 5.69C10.46 5.24 10.7 4.76 10.94 4.31C11.19 3.83 11.46 3.37 11.8 3C12.1 2.65 12.47 2.37 12.88 2.17C13.3 1.98 13.76 1.88 14.22 1.88C14.68 1.88 15.14 1.98 15.55 2.17C15.97 2.37 16.34 2.65 16.64 3C16.97 3.37 17.25 3.83 17.49 4.31C17.73 4.76 17.97 5.25 18.21 5.69L18.31 5.87C20.63 10.35 22.87 14.91 24.96 19.38L24.99 19.41C25.24 19.9 25.45 20.44 25.69 20.91C25.84 21.28 25.99 21.57 26.08 21.88C26.26 22.72 26.36 23.47 26.26 24.22ZM39.49 22.63C38.78 22.64 38.07 22.49 37.42 22.19C36.77 21.9 36.2 21.46 35.74 20.91C34.72 19.75 34.18 18.25 34.22 16.71C34.2 15.14 34.76 13.62 35.8 12.42C36.28 11.87 36.87 11.42 37.54 11.12C38.21 10.82 38.94 10.67 39.67 10.67C40.37 10.66 41.05 10.81 41.67 11.13C42.28 11.44 42.81 11.9 43.19 12.47L43.29 11L46.06 11L46.06 22.33L43.28 22.33L43.18 20.68C42.79 21.29 42.24 21.78 41.6 22.13C40.95 22.47 40.23 22.64 39.49 22.63ZM40.22 19.93C40.77 19.93 41.25 19.78 41.71 19.51C42.13 19.21 42.47 18.81 42.74 18.33C42.97 17.86 43.1 17.28 43.1 16.65C43.13 16.09 43.02 15.54 42.78 15.04C42.53 14.54 42.16 14.11 41.7 13.8C41.25 13.52 40.74 13.38 40.22 13.38C39.69 13.38 39.18 13.52 38.73 13.8C38.32 14.1 37.97 14.49 37.71 14.97C37.46 15.5 37.33 16.07 37.35 16.66C37.31 17.21 37.42 17.76 37.66 18.26C37.91 18.76 38.28 19.19 38.74 19.51C39.19 19.78 39.67 19.93 40.22 19.93ZM50.81 7.95C50.81 8.27 50.76 8.57 50.6 8.82C50.45 9.05 50.24 9.27 49.97 9.42C49.69 9.57 49.4 9.62 49.09 9.62C48.79 9.62 48.49 9.57 48.21 9.42C47.95 9.28 47.73 9.07 47.57 8.82C47.43 8.55 47.35 8.25 47.36 7.95C47.36 7.61 47.43 7.31 47.57 7.07C47.73 6.79 47.94 6.62 48.21 6.47C48.49 6.32 48.78 6.26 49.09 6.26C49.4 6.25 49.7 6.32 49.96 6.46C50.23 6.61 50.45 6.81 50.61 7.07C50.75 7.34 50.82 7.64 50.81 7.95ZM47.58 22.29L47.58 10.98L50.6 10.98L50.6 22.31L47.57 22.31L47.58 22.29ZM58.68 13.95L58.68 13.98C58.54 13.92 58.35 13.89 58.21 13.86C58.02 13.82 57.87 13.82 57.69 13.82C56.84 13.82 56.2 14.07 55.78 14.57C55.33 15.09 55.12 15.81 55.12 16.74L55.12 22.3L52.09 22.3L52.09 10.97L54.87 10.97L54.97 12.69C55.27 12.09 55.63 11.64 56.15 11.3C56.66 10.97 57.26 10.81 57.87 10.83C58.08 10.83 58.29 10.85 58.47 10.89C58.57 10.92 58.63 10.92 58.68 10.95L58.68 13.95ZM59.9 22.29L59.9 6.33L62.92 6.33L62.92 12.43C63.35 11.88 63.83 11.46 64.44 11.13C65.41 10.67 66.5 10.54 67.55 10.76C68.6 10.98 69.54 11.55 70.22 12.36C71.25 13.53 71.79 15.03 71.74 16.57C71.76 18.14 71.2 19.67 70.16 20.87C69.69 21.42 69.09 21.86 68.42 22.16C67.75 22.46 67.02 22.62 66.29 22.61C65.59 22.63 64.91 22.47 64.29 22.16C63.68 21.84 63.15 21.38 62.77 20.81L62.67 22.28L59.9 22.31L59.9 22.29ZM65.74 19.93C66.29 19.93 66.77 19.78 67.23 19.51C67.65 19.21 67.99 18.81 68.25 18.33C68.5 17.86 68.61 17.28 68.61 16.65C68.61 16.02 68.5 15.45 68.25 14.97C68 14.51 67.65 14.11 67.23 13.8C66.78 13.52 66.27 13.38 65.74 13.38C65.22 13.38 64.71 13.52 64.26 13.8C63.83 14.1 63.5 14.49 63.23 14.97C62.97 15.5 62.85 16.07 62.86 16.66C62.83 17.21 62.94 17.76 63.18 18.26C63.43 18.76 63.8 19.19 64.26 19.51C64.71 19.78 65.19 19.93 65.74 19.93ZM72.88 22.3L72.88 10.97L75.67 10.97L75.76 12.45C76.11 11.88 76.61 11.42 77.2 11.11C77.79 10.8 78.46 10.65 79.13 10.67C79.89 10.66 80.65 10.87 81.29 11.28C81.94 11.69 82.45 12.27 82.76 12.96C83.09 13.67 83.27 14.56 83.27 15.54L83.27 22.33L80.24 22.33L80.24 15.93C80.24 15.15 80.06 14.53 79.7 14.07C79.34 13.62 78.84 13.37 78.21 13.37C77.76 13.37 77.36 13.47 77.01 13.67C76.67 13.89 76.4 14.16 76.19 14.55C75.98 14.93 75.87 15.37 75.89 15.81L75.89 22.3L72.88 22.3ZM84.78 22.3L84.78 6.32L87.81 6.32L87.81 12.42C88.22 11.87 88.76 11.43 89.37 11.12C89.99 10.81 90.67 10.65 91.36 10.65C92.07 10.64 92.78 10.78 93.43 11.08C94.08 11.38 94.66 11.82 95.11 12.36C96.13 13.53 96.67 15.03 96.62 16.56C96.64 18.13 96.08 19.66 95.05 20.86C94.57 21.41 93.97 21.85 93.3 22.15C92.63 22.45 91.9 22.61 91.17 22.6C90.48 22.62 89.79 22.46 89.17 22.15C88.56 21.83 88.03 21.37 87.65 20.8L87.57 22.27L84.78 22.3ZM90.65 19.93C91.21 19.93 91.69 19.78 92.14 19.51C92.57 19.21 92.9 18.81 93.17 18.33C93.41 17.86 93.53 17.28 93.53 16.65C93.57 16.09 93.46 15.54 93.22 15.04C92.97 14.54 92.6 14.11 92.14 13.8C91.69 13.52 91.18 13.38 90.65 13.38C90.13 13.38 89.62 13.52 89.17 13.8C88.75 14.1 88.41 14.49 88.15 14.97C87.88 15.49 87.76 16.07 87.78 16.66C87.75 17.21 87.86 17.76 88.1 18.26C88.35 18.76 88.72 19.19 89.18 19.51C89.63 19.78 90.08 19.93 90.65 19.93Z" fill="#FF385C" fill-opacity="1.000000" fill-rule="nonzero"/>
</svg>
