<svg width="96.941162" height="30.000000" viewBox="0 0 96.9412 30" fill="none" xmlns="http://www.w3.org/2000/svg" xmlns:xlink="http://www.w3.org/1999/xlink">
	<desc>
			Created with Pixso.
	</desc>
	<defs>
		<clipPath id="clip1_2683">
			<rect id="Amazon Logo" rx="-0.500000" width="95.941177" height="29.000000" transform="translate(0.500000 0.500000)" fill="white" fill-opacity="0"/>
		</clipPath>
	</defs>
	<rect id="Amazon Logo" rx="-0.500000" width="95.941177" height="29.000000" transform="translate(0.500000 0.500000)" fill="#FFFFFF" fill-opacity="0"/>
	<g clip-path="url(#clip1_2683)">
		<path id="path8" d="M60.14 23.46C54.5 27.72 46.34 30 39.31 30C29.45 30 20.57 26.25 13.86 20.02C13.33 19.53 13.81 18.87 14.44 19.25C21.68 23.58 30.64 26.18 39.9 26.18C46.14 26.18 53 24.86 59.32 22.1C60.27 21.69 61.07 22.75 60.14 23.46Z" fill="#FF9900" fill-opacity="1.000000" fill-rule="evenodd"/>
		<path id="path10" d="M62.48 20.7C61.76 19.76 57.72 20.26 55.9 20.48C55.35 20.55 55.27 20.05 55.76 19.7C58.98 17.37 64.27 18.04 64.88 18.82C65.5 19.61 64.72 25.05 61.7 27.64C61.23 28.04 60.79 27.83 61 27.3C61.68 25.56 63.2 21.65 62.48 20.7Z" fill="#FF9900" fill-opacity="1.000000" fill-rule="evenodd"/>
		<path id="path12" d="M56.03 3.27L56.03 1.01C56.03 0.67 56.28 0.44 56.59 0.44L66.45 0.44C66.76 0.44 67.02 0.67 67.02 1.01L67.02 2.95C67.01 3.27 66.75 3.7 66.28 4.37L61.17 11.86C63.06 11.81 65.07 12.1 66.79 13.1C67.18 13.32 67.28 13.65 67.31 13.98L67.31 16.39C67.31 16.72 66.96 17.11 66.59 16.91C63.55 15.27 59.52 15.1 56.17 16.93C55.83 17.12 55.47 16.74 55.47 16.41L55.47 14.11C55.47 13.75 55.47 13.12 55.83 12.56L61.75 3.84L56.6 3.84C56.28 3.84 56.03 3.61 56.03 3.27Z" fill="#1D1E25" fill-opacity="1.000000" fill-rule="evenodd"/>
		<path id="path14" d="M20.06 17.39L17.06 17.39C16.77 17.36 16.54 17.14 16.52 16.86L16.52 1.05C16.52 0.73 16.78 0.48 17.1 0.48L19.9 0.48C20.19 0.49 20.42 0.72 20.44 1.01L20.44 3.08L20.49 3.08C21.22 1.08 22.6 0.15 24.44 0.15C26.32 0.15 27.5 1.08 28.34 3.08C29.07 1.08 30.72 0.15 32.48 0.15C33.74 0.15 35.12 0.68 35.96 1.88C36.91 3.21 36.71 5.14 36.71 6.83L36.71 16.81C36.71 17.13 36.45 17.39 36.13 17.39L33.13 17.39C32.83 17.36 32.59 17.12 32.59 16.81L32.59 8.43C32.59 7.76 32.65 6.1 32.51 5.47C32.28 4.41 31.61 4.11 30.74 4.11C30.02 4.11 29.26 4.61 28.95 5.4C28.64 6.2 28.67 7.54 28.67 8.43L28.67 16.81C28.67 17.13 28.42 17.39 28.09 17.39L25.1 17.39C24.79 17.36 24.56 17.12 24.56 16.81L24.55 8.43C24.55 6.67 24.84 4.07 22.71 4.07C20.55 4.07 20.63 6.6 20.63 8.43L20.63 16.81C20.63 17.13 20.38 17.39 20.06 17.39Z" fill="#1D1E25" fill-opacity="1.000000" fill-rule="evenodd"/>
		<path id="path16" d="M75.51 0.15C79.96 0.15 82.37 4.07 82.37 9.06C82.37 13.89 79.71 17.71 75.51 17.71C71.14 17.71 68.76 13.79 68.76 8.9C68.76 3.97 71.17 0.15 75.51 0.15ZM75.53 3.38C73.32 3.38 73.18 6.47 73.18 8.4C73.18 10.33 73.15 14.46 75.51 14.46C77.83 14.46 77.94 11.13 77.94 9.1C77.94 7.76 77.89 6.17 77.5 4.9C77.16 3.8 76.49 3.38 75.53 3.38Z" fill="#1D1E25" fill-opacity="1.000000" fill-rule="evenodd"/>
		<path id="path18" d="M88.14 17.39L85.15 17.39C84.85 17.36 84.61 17.12 84.61 16.81L84.61 1C84.64 0.71 84.88 0.48 85.19 0.48L87.97 0.48C88.23 0.49 88.45 0.68 88.51 0.92L88.51 3.34L88.56 3.34C89.4 1.18 90.58 0.15 92.65 0.15C94 0.15 95.31 0.65 96.15 2.01C96.94 3.28 96.94 5.4 96.94 6.93L96.94 16.89C96.9 17.16 96.65 17.39 96.36 17.39L93.35 17.39C93.08 17.36 92.85 17.16 92.82 16.89L92.82 8.3C92.82 6.57 93.01 4.04 90.94 4.04C90.21 4.04 89.54 4.54 89.21 5.3C88.78 6.27 88.73 7.23 88.73 8.3L88.73 16.81C88.72 17.13 88.46 17.39 88.14 17.39Z" fill="#1D1E25" fill-opacity="1.000000" fill-rule="evenodd"/>
		<path id="path28" d="M48.17 9.83C48.17 11.03 48.2 12.03 47.61 13.1C47.13 13.97 46.37 14.5 45.53 14.5C44.38 14.5 43.7 13.6 43.7 12.27C43.7 9.64 46 9.16 48.17 9.16L48.17 9.83ZM51.19 17.34C51 17.52 50.71 17.54 50.49 17.42C49.49 16.57 49.31 16.17 48.76 15.36C47.12 17.09 45.95 17.6 43.82 17.6C41.29 17.6 39.33 16 39.33 12.8C39.33 10.3 40.64 8.6 42.53 7.76C44.16 7.03 46.43 6.9 48.17 6.69L48.17 6.3C48.17 5.56 48.22 4.7 47.8 4.06C47.44 3.5 46.74 3.26 46.12 3.26C44.97 3.26 43.96 3.86 43.71 5.11C43.66 5.39 43.46 5.66 43.18 5.68L40.28 5.36C40.03 5.3 39.76 5.1 39.83 4.71C40.5 1.09 43.69 0 46.54 0C48 0 49.91 0.39 51.06 1.53C52.52 2.93 52.38 4.8 52.38 6.83L52.38 11.63C52.38 13.07 52.96 13.71 53.51 14.49C53.7 14.76 53.74 15.1 53.5 15.3C52.89 15.83 51.8 16.8 51.2 17.35L51.19 17.34Z" fill="#1D1E25" fill-opacity="1.000000" fill-rule="evenodd"/>
		<path id="path30" d="M8.84 9.83C8.84 11.03 8.86 12.03 8.27 13.1C7.8 13.97 7.04 14.5 6.2 14.5C5.05 14.5 4.38 13.6 4.38 12.27C4.38 9.64 6.67 9.16 8.84 9.16L8.84 9.83ZM11.86 17.34C11.66 17.52 11.38 17.54 11.15 17.42C10.16 16.57 9.98 16.17 9.43 15.36C7.78 17.09 6.62 17.6 4.48 17.6C1.96 17.6 0 16 0 12.8C0 10.3 1.32 8.6 3.19 7.77C4.82 7.03 7.1 6.9 8.84 6.69L8.84 6.3C8.84 5.56 8.89 4.7 8.47 4.06C8.11 3.5 7.4 3.26 6.79 3.26C5.65 3.26 4.62 3.87 4.38 5.11C4.32 5.39 4.13 5.66 3.86 5.68L0.94 5.36C0.7 5.3 0.43 5.1 0.5 4.71C1.17 1.09 4.35 0 7.21 0C8.67 0 10.57 0.39 11.73 1.53C13.19 2.93 13.05 4.8 13.05 6.83L13.05 11.63C13.05 13.07 13.63 13.71 14.18 14.49C14.37 14.76 14.41 15.1 14.17 15.31C13.56 15.83 12.47 16.8 11.87 17.35L11.86 17.34Z" fill="#1D1E25" fill-opacity="1.000000" fill-rule="evenodd"/>
	</g>
</svg>
