<svg width="94.117676" height="28.125000" viewBox="0 0 94.1177 28.125" fill="none" xmlns="http://www.w3.org/2000/svg" xmlns:xlink="http://www.w3.org/1999/xlink">
	<desc>
			Created with Pixso.
	</desc>
	<defs>
		<clipPath id="clip1_2694">
			<rect id="FedEx Logo" rx="-0.500000" width="93.117645" height="27.125000" transform="translate(0.500000 0.500000)" fill="white" fill-opacity="0"/>
		</clipPath>
	</defs>
	<rect id="FedEx Logo" rx="-0.500000" width="93.117645" height="27.125000" transform="translate(0.500000 0.500000)" fill="#FFFFFF" fill-opacity="0"/>
	<g clip-path="url(#clip1_2694)">
		<path id="polygon19" d="M69.98 27.28L77.83 18.62L69.98 9.96L78.27 9.96L82.15 14.17L85.9 9.96L93.89 9.96L86.08 18.58L94 27.28L85.68 27.28L81.83 23.04L78.01 27.28L69.98 27.28Z" fill="#FF6600" fill-opacity="1.000000" fill-rule="nonzero"/>
		<path id="polygon21" d="M69.98 6.08L61.1 6.08L61.1 9.96L69.98 9.96L69.98 15.81L61.1 15.81L61.1 21.18L69.98 21.18L69.98 27.28L54.56 27.28L54.56 0L69.98 0L69.98 6.08Z" fill="#FF6600" fill-opacity="1.000000" fill-rule="nonzero"/>
		<path id="path23" d="M48.05 0L48.05 11.16L47.98 11.16C46.54 9.53 44.74 8.97 42.65 8.97C38.38 8.97 35.16 11.83 34.02 15.6C32.73 11.44 29.41 8.89 24.48 8.89C20.47 8.89 17.31 10.66 15.66 13.53L15.66 9.96L7.38 9.96L7.38 6.08L16.41 6.08L16.41 0L0 0L0 27.28L7.38 27.28L7.38 15.81L14.73 15.81C14.51 16.65 14.4 17.55 14.4 18.51C14.4 24.2 18.82 28.19 24.48 28.19C29.23 28.19 32.36 26 34.02 22.01L27.69 22.01C26.83 23.21 26.19 23.56 24.48 23.56C22.49 23.56 20.78 21.86 20.78 19.85L33.66 19.85C34.22 24.37 37.81 28.27 42.73 28.27C44.85 28.27 46.79 27.24 47.98 25.51L48.05 25.51L48.05 27.28L54.56 27.28L54.56 0L48.05 0ZM20.99 15.89C21.4 14.16 22.77 13.03 24.48 13.03C26.36 13.03 27.66 14.12 28 15.89C28.14 15.89 20.99 15.89 20.99 15.89ZM44.11 23.12C41.71 23.12 40.22 20.93 40.22 18.64C40.22 16.19 41.51 13.84 44.11 13.84C46.79 13.84 47.87 16.19 47.87 18.64C47.86 20.96 46.73 23.12 44.11 23.12Z" fill="#652C8F" fill-opacity="1.000000" fill-rule="nonzero"/>
	</g>
</svg>
