<svg width="89.411865" height="30.000000" viewBox="0 0 89.4119 30" fill="none" xmlns="http://www.w3.org/2000/svg" xmlns:xlink="http://www.w3.org/1999/xlink">
	<desc>
			Created with Pixso.
	</desc>
	<defs>
		<clipPath id="clip1_2711">
			<rect id="Google Logo" rx="-0.500000" width="88.411758" height="29.000000" transform="translate(0.500000 0.500000)" fill="white" fill-opacity="0"/>
		</clipPath>
	</defs>
	<rect id="Google Logo" rx="-0.500000" width="88.411758" height="29.000000" transform="translate(0.500000 0.500000)" fill="#FFFFFF" fill-opacity="0"/>
	<g clip-path="url(#clip1_2711)">
		<path id="Vector" d="M38.04 15.38C38.04 19.54 34.76 22.61 30.73 22.61C26.7 22.61 23.42 19.54 23.42 15.38C23.42 11.19 26.7 8.15 30.73 8.15C34.76 8.15 38.04 11.19 38.04 15.38ZM34.84 15.38C34.84 12.78 32.94 11 30.73 11C28.52 11 26.62 12.78 26.62 15.38C26.62 17.96 28.52 19.76 30.73 19.76C32.94 19.76 34.84 17.95 34.84 15.38Z" fill="#EA4335" fill-opacity="1.000000" fill-rule="nonzero"/>
		<path id="Vector" d="M53.82 15.38C53.82 19.54 50.54 22.61 46.51 22.61C42.48 22.61 39.19 19.54 39.19 15.38C39.19 11.19 42.48 8.15 46.51 8.15C50.54 8.15 53.82 11.19 53.82 15.38ZM50.62 15.38C50.62 12.78 48.72 11 46.51 11C44.3 11 42.4 12.78 42.4 15.38C42.4 17.96 44.3 19.76 46.51 19.76C48.72 19.76 50.62 17.95 50.62 15.38Z" fill="#FBBC05" fill-opacity="1.000000" fill-rule="nonzero"/>
		<path id="Vector" d="M68.94 8.58L68.94 21.57C68.94 26.91 65.77 29.09 62.01 29.09C58.48 29.09 56.35 26.75 55.55 24.83L58.34 23.68C58.84 24.86 60.05 26.25 62.01 26.25C64.41 26.25 65.9 24.77 65.9 22.01L65.9 20.97L65.79 20.97C65.07 21.84 63.69 22.61 61.95 22.61C58.31 22.61 54.97 19.46 54.97 15.41C54.97 11.32 58.31 8.15 61.95 8.15C63.69 8.15 65.07 8.91 65.79 9.76L65.9 9.76L65.9 8.59L68.94 8.59L68.94 8.58ZM66.13 15.41C66.13 12.86 64.42 11 62.24 11C60.03 11 58.18 12.86 58.18 15.41C58.18 17.93 60.03 19.76 62.24 19.76C64.42 19.76 66.13 17.93 66.13 15.41Z" fill="#4285F4" fill-opacity="1.000000" fill-rule="nonzero"/>
		<path id="Vector" d="M73.96 0.97L73.96 22.17L70.83 22.17L70.83 0.97L73.96 0.97Z" fill="#34A853" fill-opacity="1.000000" fill-rule="nonzero"/>
		<path id="Vector" d="M86.13 17.76L88.61 19.4C87.81 20.58 85.88 22.61 82.54 22.61C78.39 22.61 75.3 19.43 75.3 15.38C75.3 11.08 78.42 8.14 82.18 8.14C85.96 8.14 87.81 11.13 88.42 12.75L88.75 13.57L79 17.57C79.75 19.02 80.91 19.76 82.54 19.76C84.17 19.76 85.3 18.97 86.13 17.76ZM78.48 15.16L84.99 12.47C84.63 11.57 83.56 10.94 82.29 10.94C80.66 10.94 78.39 12.37 78.48 15.16Z" fill="#EA4335" fill-opacity="1.000000" fill-rule="nonzero"/>
		<path id="Vector" d="M11.6 13.5L11.6 10.43L22.02 10.43C22.12 10.96 22.17 11.6 22.17 12.28C22.17 14.58 21.54 17.43 19.49 19.46C17.51 21.51 14.97 22.61 11.6 22.61C5.36 22.61 0.11 17.57 0.11 11.38C0.11 5.19 5.36 0.15 11.6 0.15C15.05 0.15 17.51 1.49 19.36 3.24L17.17 5.41C15.85 4.18 14.05 3.22 11.6 3.22C7.04 3.22 3.48 6.86 3.48 11.38C3.48 15.9 7.04 19.54 11.6 19.54C14.55 19.54 16.23 18.36 17.31 17.29C18.19 16.43 18.76 15.19 18.99 13.5L11.6 13.5Z" fill="#4285F4" fill-opacity="1.000000" fill-rule="nonzero"/>
	</g>
</svg>
