<svg width="114.823486" height="24.375000" viewBox="0 0 114.823 24.375" fill="none" xmlns="http://www.w3.org/2000/svg" xmlns:xlink="http://www.w3.org/1999/xlink">
	<desc>
			Created with Pixso.
	</desc>
	<defs>
		<clipPath id="clip1_2702">
			<rect id="Microsoft Logo" rx="-0.500000" width="113.823540" height="23.375000" transform="translate(0.500000 0.500000)" fill="white" fill-opacity="0"/>
		</clipPath>
	</defs>
	<rect id="Microsoft Logo" rx="-0.500000" width="113.823540" height="23.375000" transform="translate(0.500000 0.500000)" fill="#FFFFFF" fill-opacity="0"/>
	<g clip-path="url(#clip1_2702)">
		<path id="Vector" d="M40.53 14.03L39.84 15.96L39.78 15.96C39.67 15.53 39.46 14.87 39.12 14.07L35.45 4.91L31.86 4.91L31.86 19.51L34.23 19.51L34.23 10.5C34.23 9.93 34.23 9.29 34.21 8.5C34.19 8.1 34.16 7.8 34.14 7.57L34.19 7.57C34.31 8.14 34.44 8.55 34.54 8.82L38.95 19.48L40.62 19.48L44.99 8.72C45.09 8.48 45.18 7.99 45.28 7.57L45.33 7.57C45.28 8.65 45.24 9.61 45.22 10.2L45.22 19.46L47.75 19.46L47.75 4.87L44.29 4.87L40.53 14.03ZM50.14 8.99L52.62 8.99L52.62 19.46L50.14 19.46L50.14 8.99ZM51.4 4.57C50.98 4.57 50.64 4.72 50.35 4.98C50.07 5.25 49.92 5.59 49.92 6C49.92 6.4 50.07 6.74 50.35 7.01C50.64 7.27 50.98 7.4 51.4 7.4C51.82 7.4 52.18 7.25 52.44 7.01C52.73 6.74 52.88 6.4 52.88 6C52.88 5.61 52.73 5.27 52.44 4.98C52.2 4.72 51.84 4.57 51.4 4.57ZM61.38 8.89C60.92 8.8 60.45 8.74 59.99 8.74C58.87 8.74 57.84 8.99 56.99 9.48C56.13 9.97 55.45 10.65 55.01 11.5C54.55 12.37 54.33 13.37 54.33 14.53C54.33 15.53 54.55 16.41 54.99 17.23C55.43 18.02 56.04 18.66 56.86 19.1C57.63 19.53 58.55 19.76 59.57 19.76C60.75 19.76 61.76 19.51 62.56 19.06L62.58 19.04L62.58 16.77L62.48 16.85C62.12 17.11 61.7 17.34 61.28 17.47C60.85 17.62 60.45 17.7 60.11 17.7C59.12 17.7 58.34 17.42 57.79 16.79C57.22 16.19 56.93 15.36 56.93 14.32C56.93 13.24 57.22 12.39 57.81 11.77C58.39 11.14 59.17 10.82 60.12 10.82C60.92 10.82 61.74 11.09 62.48 11.62L62.58 11.69L62.58 9.29L62.56 9.27C62.24 9.14 61.87 8.99 61.38 8.89ZM69.54 8.82C68.93 8.82 68.36 9.01 67.86 9.4C67.44 9.74 67.16 10.24 66.91 10.82L66.89 10.82L66.89 8.99L64.42 8.99L64.42 19.46L66.89 19.46L66.89 14.11C66.89 13.2 67.08 12.45 67.5 11.9C67.92 11.33 68.45 11.05 69.1 11.05C69.33 11.05 69.55 11.11 69.84 11.14C70.11 11.22 70.3 11.29 70.43 11.39L70.52 11.46L70.52 9.01L70.47 8.99C70.3 8.88 69.95 8.82 69.54 8.82ZM76.26 8.76C74.54 8.76 73.15 9.27 72.18 10.27C71.19 11.28 70.71 12.65 70.71 14.39C70.71 16.02 71.21 17.34 72.16 18.3C73.11 19.25 74.4 19.74 76.02 19.74C77.71 19.74 79.06 19.23 80.03 18.21C81.02 17.19 81.49 15.83 81.49 14.15C81.49 12.48 81.04 11.16 80.11 10.2C79.21 9.23 77.9 8.76 76.26 8.76ZM78.24 16.81C77.79 17.4 77.06 17.68 76.17 17.68C75.28 17.68 74.55 17.4 74.04 16.77C73.53 16.19 73.28 15.34 73.28 14.26C73.28 13.15 73.55 12.3 74.04 11.69C74.55 11.09 75.26 10.78 76.15 10.78C77.03 10.78 77.71 11.07 78.2 11.65C78.7 12.24 78.96 13.09 78.96 14.2C78.93 15.34 78.72 16.23 78.24 16.81ZM87.01 13.34C86.23 13.01 85.73 12.77 85.5 12.56C85.31 12.37 85.22 12.11 85.22 11.77C85.22 11.48 85.33 11.2 85.62 11.01C85.9 10.82 86.23 10.73 86.7 10.73C87.12 10.73 87.56 10.8 87.98 10.92C88.39 11.03 88.77 11.2 89.08 11.43L89.17 11.5L89.17 9.2L89.12 9.18C88.83 9.06 88.45 8.95 87.99 8.86C87.54 8.78 87.12 8.74 86.78 8.74C85.6 8.74 84.63 9.03 83.87 9.65C83.11 10.24 82.75 11.03 82.75 11.96C82.75 12.45 82.82 12.88 82.99 13.24C83.17 13.6 83.41 13.94 83.76 14.22C84.1 14.49 84.59 14.79 85.28 15.07C85.85 15.32 86.28 15.51 86.55 15.66C86.82 15.81 86.99 15.98 87.12 16.11C87.22 16.26 87.27 16.45 87.27 16.7C87.27 17.4 86.74 17.74 85.66 17.74C85.24 17.74 84.8 17.66 84.29 17.49C83.77 17.32 83.3 17.08 82.9 16.79L82.8 16.72L82.8 19.12L82.86 19.14C83.22 19.31 83.66 19.42 84.19 19.55C84.72 19.65 85.2 19.72 85.62 19.72C86.89 19.72 87.94 19.44 88.68 18.81C89.44 18.21 89.84 17.44 89.84 16.43C89.84 15.73 89.65 15.11 89.23 14.64C88.68 14.19 87.99 13.71 87.01 13.34ZM96.36 8.76C94.63 8.76 93.24 9.27 92.27 10.27C91.3 11.28 90.81 12.65 90.81 14.39C90.81 16.02 91.3 17.34 92.25 18.3C93.2 19.25 94.5 19.74 96.11 19.74C97.8 19.74 99.15 19.23 100.12 18.21C101.11 17.19 101.59 15.83 101.59 14.15C101.59 12.48 101.13 11.16 100.2 10.2C99.31 9.23 97.99 8.76 96.36 8.76ZM98.32 16.81C97.86 17.4 97.14 17.68 96.25 17.68C95.33 17.68 94.63 17.4 94.12 16.77C93.6 16.19 93.36 15.34 93.36 14.26C93.36 13.15 93.62 12.3 94.12 11.69C94.63 11.09 95.33 10.78 96.23 10.78C97.08 10.78 97.78 11.07 98.28 11.65C98.77 12.24 99.04 13.09 99.04 14.2C99.04 15.34 98.79 16.23 98.32 16.81ZM114.8 11.01L114.8 8.99L112.31 8.99L112.31 5.89L112.23 5.91L109.88 6.61L109.82 6.63L109.82 8.99L106.09 8.99L106.09 7.67C106.09 7.06 106.25 6.59 106.51 6.29C106.78 5.98 107.18 5.83 107.67 5.83C108.01 5.83 108.37 5.91 108.77 6.08L108.87 6.14L108.87 4L108.81 3.98C108.47 3.87 108.01 3.79 107.42 3.79C106.68 3.79 106.04 3.96 105.45 4.25C104.86 4.57 104.42 5 104.1 5.59C103.77 6.15 103.6 6.8 103.6 7.53L103.6 8.99L101.87 8.99L101.87 10.99L103.6 10.99L103.6 19.46L106.09 19.46L106.09 11.01L109.82 11.01L109.82 16.4C109.82 18.61 110.86 19.72 112.96 19.72C113.3 19.72 113.66 19.66 114 19.61C114.36 19.53 114.63 19.44 114.78 19.36L114.8 19.34L114.8 17.32L114.7 17.4C114.55 17.49 114.42 17.57 114.19 17.62C114 17.68 113.83 17.7 113.7 17.7C113.2 17.7 112.86 17.59 112.61 17.3C112.39 17.04 112.27 16.6 112.27 15.96L112.27 11.01L114.8 11.01Z" fill="#737373" fill-opacity="1.000000" fill-rule="nonzero"/>
		<path id="Vector" d="M0 0L11.65 0L11.65 11.58L0 11.58L0 0Z" fill="#F25022" fill-opacity="1.000000" fill-rule="nonzero"/>
		<path id="Vector" d="M12.86 0L24.52 0L24.52 11.58L12.86 11.58L12.86 0Z" fill="#7FBA00" fill-opacity="1.000000" fill-rule="nonzero"/>
		<path id="Vector" d="M0 12.79L11.65 12.79L11.65 24.37L0 24.37L0 12.79Z" fill="#00A4EF" fill-opacity="1.000000" fill-rule="nonzero"/>
		<path id="Vector" d="M12.86 12.79L24.52 12.79L24.52 24.37L12.86 24.37L12.86 12.79Z" fill="#FFB900" fill-opacity="1.000000" fill-rule="nonzero"/>
	</g>
</svg>
