<svg width="92.235352" height="31.875000" viewBox="0 0 92.2354 31.875" fill="none" xmlns="http://www.w3.org/2000/svg" xmlns:xlink="http://www.w3.org/1999/xlink">
	<desc>
			Created with Pixso.
	</desc>
	<defs>
		<clipPath id="clip1_2720">
			<rect id="OLA logo" rx="-0.500000" width="91.235291" height="30.875000" transform="translate(0.500000 0.500000)" fill="white" fill-opacity="0"/>
		</clipPath>
	</defs>
	<rect id="OLA logo" rx="-0.500000" width="91.235291" height="30.875000" transform="translate(0.500000 0.500000)" fill="#FFFFFF" fill-opacity="0"/>
	<g clip-path="url(#clip1_2720)">
		<path id="Vector" d="M81.29 14.85L75.42 25L70.41 25.02L81.29 5.9L92.13 25.02L87.04 25.02L81.29 14.84L81.29 14.85ZM65.48 20.6L71.09 20.6L68.49 25.02L61.18 25.02L61.2 19.64L61.2 6.02L65.5 6.02L65.48 20.6L65.48 20.6ZM50.1 6.02C55.45 6.04 59.77 10.29 59.75 15.53C59.74 20.76 55.41 25 50.06 25C44.73 24.98 40.4 20.74 40.4 15.49C40.42 10.27 44.75 6.02 50.1 6.02ZM50.08 20.58C52.94 20.58 55.25 18.32 55.25 15.53C55.27 12.74 52.94 10.46 50.1 10.46C47.25 10.44 44.93 12.72 44.93 15.51C44.91 18.3 47.23 20.58 50.08 20.58L50.08 20.58ZM32.43 14.02C32.37 13.24 32.17 12.2 31.87 11.19C31.25 9.13 30.17 7.23 28.72 5.63C27.96 4.81 27.1 4.04 25.82 3.14C24.84 2.65 23.88 2.14 22.93 1.59C22.31 1.23 21.57 0.8 20.59 0.49C19.43 0.21 18.24 0.06 17.04 0.03C15.88 -0.01 14.72 0.09 13.6 0.31C12.42 0.51 11.43 0.82 10.13 1.13C7.19 2.41 4.9 4.34 2.94 6.89C-3.91 16.5 2.28 29.96 13.72 31.55C15.6 31.8 17.48 31.71 19.27 31.29L20.53 30.96C20.57 30.94 20.63 30.92 20.67 30.92L22.11 30.37C22.19 30.33 22.25 30.31 22.33 30.27L22.93 30C24.09 29.42 25.17 28.72 26.16 27.89C25.26 28.72 24.28 29.45 23.23 30.08L23.29 30.11C23.49 30.06 23.67 30 23.87 29.96C23.87 29.96 23.87 30.27 23.83 30.21C23.51 30.45 24.02 30.23 24.66 29.9C25.3 29.56 25.92 29.15 26.48 28.68C27.3 27.99 28.02 27.25 29.04 26.03C30.08 24.2 31.39 22.61 31.99 20.47C32.19 19.9 32.37 19.23 32.49 18.54C32.61 17.85 32.69 17.15 32.69 16.42C32.67 15.69 32.59 14.95 32.43 14.02ZM17.6 30.17C21.11 29.62 24.05 27.68 26.46 25.03C27.12 24.06 27.64 23.18 28.28 22.22C29.08 20.25 29.02 18.5 29.28 17.27C29.6 15.02 28.84 13.22 28.2 11.29C27.22 9.05 25.92 7.38 23.63 6.09C17.86 2.51 10.01 3.51 6.27 8.86C6.25 8.86 6.14 8.99 5.94 9.27C6.2 8.17 6.87 7.52 7.53 6.89C9.49 5.28 11.77 4 14.38 3.37C17.32 3.06 20.25 3.37 22.87 4.65C26.8 6.89 29.4 10.41 30.07 14.57L30.07 18.42C29.24 24.73 23.83 29.53 17.6 30.17ZM32.01 15.83C31.87 6.6 22.71 0.37 13.8 1.63C11.19 2.27 8.35 3.57 6.32 5.38C5.34 6.03 4.88 7.22 3.9 8.19C-0.03 13.94 0.66 21.31 5.54 25.79C6.17 26.42 6.84 26.99 7.55 27.52C3.46 25.06 1.62 21.35 0.98 16.83C0.98 15.22 1.3 13.63 1.64 12.02C3.92 4.96 11.11 -0.16 18.95 1.13C20.25 1.45 21.55 1.78 22.87 2.1C24.52 2.74 26.14 3.71 27.44 4.99C28.74 6.26 29.73 7.87 30.71 9.46C31.37 10.74 31.69 12.35 32.01 13.63C32.07 14.36 32.07 15.1 32.01 15.83L32.01 15.83Z" fill="#1D1E25" fill-opacity="1.000000" fill-rule="evenodd"/>
		<path id="Vector" d="M23.87 15.97C23.87 19.94 20.55 23.16 16.44 23.16C12.34 23.16 9.01 19.94 9.01 15.97C9.01 12 12.34 8.78 16.44 8.78C20.55 8.78 23.87 12 23.87 15.97L23.87 15.97Z" fill="#FFFFFF" fill-opacity="1.000000" fill-rule="evenodd"/>
		<path id="Vector" d="M23.92 14.75C23.82 14.2 23.65 13.77 23.5 13.16C22.85 11.82 21.91 10.78 20.67 9.9C16.02 6.81 9.63 9.78 8.95 15.05C8.69 17.13 9.43 19.13 10.75 20.67C10.35 20.25 9.91 19.82 9.61 19.33L9.57 19.37C9.61 19.49 9.77 19.57 9.81 19.68C9.81 19.68 9.65 19.68 9.69 19.66C9.57 19.53 9.67 19.74 9.85 20.04C10.01 20.33 10.21 20.61 10.45 20.86C10.79 21.24 11.15 21.57 11.76 22.02C12.64 22.47 13.42 23.06 14.44 23.34C14.72 23.42 15.04 23.49 15.36 23.55C15.7 23.61 16.02 23.63 16.38 23.63C16.72 23.63 17.09 23.59 17.53 23.51C17.98 23.46 18.43 23.37 18.87 23.24C19.85 22.94 20.75 22.43 21.51 21.75C21.89 21.39 22.44 20.94 22.85 20.35C23.2 19.68 23.24 19.35 23.4 19.05C23.56 18.76 23.76 18.43 23.9 17.97C24.01 17.44 24.08 16.89 24.1 16.34C24.08 15.79 24.04 15.26 23.92 14.75L23.92 14.75ZM19.15 11.1C19.83 11.49 19.93 11.55 19.57 11.29C20.09 11.41 20.41 11.71 20.73 12C21.51 12.88 22.15 13.93 22.47 15.12C22.65 16.48 22.51 17.84 21.93 19.03C20.89 20.86 19.23 22.08 17.24 22.41C17.02 22.41 16.78 22.41 16.56 22.43C17.12 22.33 17.49 21.98 18.51 21.61C19.61 21.21 20.85 19.39 21.45 18.33C23.21 15.44 21.13 12.77 19.15 11.1ZM15.38 22.45C12.34 22.14 9.99 19.64 9.67 16.75C9.95 18.37 10.91 19.6 12.22 20.7C12.68 21 13.36 21.41 13.82 21.71C14.6 22 15.06 22.32 15.82 22.45L15.38 22.45L15.38 22.45ZM23.57 17.21C23.44 17.82 23.3 18.4 23.15 19.01C22.85 19.76 22.41 20.53 21.81 21.14C21.21 21.75 20.45 22.22 19.69 22.67C19.09 22.98 18.33 23.14 17.71 23.3C17.34 23.34 16.92 23.18 16.56 23.16C21.01 23.04 24.06 18.9 23.4 14.79C23.07 13.59 22.43 12.55 21.65 11.51C21.33 11.06 20.71 10.78 20.25 10.33C17.46 8.58 13.78 8.93 11.68 11.23C11.38 11.54 11.11 11.86 10.85 12.2C11.98 10.55 13.78 9.39 15.94 9.05C16.7 9.03 17.49 9.17 18.25 9.31C21.61 10.33 24.12 13.59 23.57 17.21L23.57 17.21Z" fill="#D7DF23" fill-opacity="1.000000" fill-rule="evenodd"/>
	</g>
</svg>
