<svg width="79.058838" height="30.000000" viewBox="0 0 79.0588 30" fill="none" xmlns="http://www.w3.org/2000/svg" xmlns:xlink="http://www.w3.org/1999/xlink">
	<desc>
			Created with Pixso.
	</desc>
	<defs>
		<clipPath id="clip1_2732">
			<rect id="OYO Logo" rx="-0.500000" width="78.058823" height="29.000000" transform="translate(0.500000 0.500000)" fill="white" fill-opacity="0"/>
		</clipPath>
	</defs>
	<rect id="OYO Logo" rx="-0.500000" width="78.058823" height="29.000000" transform="translate(0.500000 0.500000)" fill="#FFFFFF" fill-opacity="0"/>
	<g clip-path="url(#clip1_2732)">
		<path id="Vector" d="M65 28.72C72.51 28.72 78.62 22.54 78.62 14.94C78.62 7.33 72.51 1.15 65 1.15C57.49 1.15 51.38 7.33 51.38 14.94C51.38 22.54 57.49 28.72 65 28.72ZM65 10.02C67.67 10.02 69.85 12.22 69.85 14.93C69.85 17.64 67.67 19.84 64.99 19.84C62.32 19.84 60.14 17.64 60.14 14.93C60.14 12.22 62.32 10.02 64.99 10.02L65 10.02ZM13.61 28.72C21.12 28.72 27.23 22.54 27.23 14.94C27.23 7.33 21.12 1.15 13.61 1.15C6.11 1.15 0 7.33 0 14.94C0 22.54 6.11 28.72 13.61 28.72ZM13.61 10.02C16.29 10.02 18.47 12.22 18.47 14.93C18.47 17.64 16.29 19.84 13.61 19.84C10.94 19.84 8.76 17.64 8.76 14.93C8.76 12.22 10.94 10.02 13.61 10.02L13.61 10.02ZM39.3 9.71L35.12 1.33L25.33 1.33L34.47 19.66L34.47 28.29L44.13 28.29L44.13 19.66L53.27 1.33L43.48 1.33L39.3 9.71L39.3 9.71Z" fill="#EE2E24" fill-opacity="1.000000" fill-rule="nonzero"/>
	</g>
</svg>
