<svg width="112.941162" height="26.250000" viewBox="0 0 112.941 26.25" fill="none" xmlns="http://www.w3.org/2000/svg" xmlns:xlink="http://www.w3.org/1999/xlink">
	<desc>
			Created with Pixso.
	</desc>
	<defs>
		<clipPath id="clip1_2727">
			<rect id="Walmart Logo" rx="-0.500000" width="111.941170" height="25.250000" transform="translate(0.500000 0.500000)" fill="white" fill-opacity="0"/>
		</clipPath>
	</defs>
	<rect id="Walmart Logo" rx="-0.500000" width="111.941170" height="25.250000" transform="translate(0.500000 0.500000)" fill="#FFFFFF" fill-opacity="0"/>
	<g clip-path="url(#clip1_2727)">
		<path id="Shape" d="M40.19 9.33L40.19 10.82L40.23 10.82C40.77 10.02 41.67 9.08 43.65 9.08C45.2 9.08 46.38 9.87 46.89 11.04L46.94 11.04C47.37 10.45 47.87 10 48.42 9.68C49.08 9.3 49.82 9.08 50.74 9.08C52.83 9.08 54.68 10.43 54.68 13.83L54.68 20.29L51.5 20.29L51.5 14.29C51.5 12.56 50.87 11.56 49.56 11.56C48.61 11.56 47.91 12.16 47.65 12.9C47.56 13.15 47.51 13.5 47.51 13.79L47.51 20.29L44.33 20.29L44.33 14.04C44.33 12.58 43.72 11.56 42.44 11.56C41.41 11.56 40.76 12.32 40.5 12.97C40.39 13.24 40.35 13.56 40.35 13.86L40.35 20.29L37.16 20.29L37.16 9.33L40.19 9.33ZM71.14 9.33L71.14 11.4L71.22 11.4C71.81 9.82 73.2 9.08 74.42 9.08C74.72 9.08 74.89 9.11 75.14 9.15L75.14 12.02C74.85 11.98 74.58 11.95 74.2 11.95C72.81 11.95 71.85 12.7 71.61 13.87C71.55 14.11 71.54 14.38 71.54 14.68L71.54 20.29L68.27 20.29L68.27 9.33L71.14 9.33ZM79.58 5.7L79.58 9.15L82.35 9.15L82.35 11.94L79.58 11.94L79.58 16.06C79.58 17.39 79.95 18.04 81.03 18.04C81.53 18.04 81.91 17.98 82.23 17.9L82.27 20.22C81.84 20.37 80.92 20.53 79.98 20.53C78.87 20.53 77.95 20.17 77.39 19.62C76.75 18.98 76.46 17.94 76.46 16.46L76.46 5.7L79.58 5.7ZM34.94 20.29L31.76 20.29L31.76 5.7L34.94 5.7L34.94 20.29ZM26.48 16.38C26.48 16.58 26.46 16.79 26.4 16.97C26.15 17.73 25.31 18.37 24.26 18.37C23.38 18.37 22.68 17.91 22.68 16.92C22.68 15.42 24.46 15 26.48 15.01L26.48 16.38L26.48 16.38ZM29.64 13.75C29.64 11.27 28.51 9.08 24.67 9.08C22.7 9.08 21.13 9.6 20.28 10.06L20.9 12.06C21.68 11.6 22.93 11.22 24.11 11.22C26.06 11.21 26.37 12.25 26.37 12.91L26.37 13.07C22.12 13.06 19.44 14.43 19.44 17.23C19.44 18.94 20.81 20.54 23.18 20.54C24.65 20.54 25.87 20 26.6 19.12L26.67 19.12C26.67 19.12 27.16 21.02 29.83 20.29C29.69 19.5 29.64 18.66 29.64 17.65L29.64 13.75L29.64 13.75ZM3.5 5.7C3.83 7.25 4.76 11.73 4.76 11.73C5.15 13.57 5.51 15.5 5.78 17.03L5.83 17.03C6.09 15.41 6.51 13.87 6.96 11.97L8.52 5.7L12 5.7L13.46 12.13C13.85 13.92 14.16 15.3 14.4 16.96L14.44 16.96C14.71 15.28 15.05 13.84 15.43 12.01L16.84 5.7L20.17 5.7L16.05 20.29C13.41 20.82 12.41 19.84 12.05 18.27C11.69 16.7 10.98 13.72 10.98 13.72C10.62 12.08 10.34 10.93 10.14 9.25L10.09 9.25C9.81 10.91 9.51 12.08 9.07 13.71L7.34 20.29C4.66 20.79 3.73 20.05 3.21 18.04C2.77 16.32 0 5.7 0 5.7L3.5 5.7L3.5 5.7ZM62.98 16.38C62.98 16.58 62.96 16.79 62.9 16.97C62.65 17.73 61.81 18.37 60.76 18.37C59.88 18.37 59.18 17.91 59.18 16.92C59.18 15.42 60.96 15 62.98 15.01L62.98 16.38L62.98 16.38ZM66.15 13.75C66.15 11.27 65.01 9.08 61.17 9.08C59.2 9.08 57.63 9.6 56.78 10.06L57.41 12.06C58.18 11.6 59.43 11.22 60.61 11.22C62.55 11.21 62.87 12.25 62.87 12.91L62.87 13.07C58.63 13.06 55.95 14.43 55.95 17.23C55.95 18.94 57.31 20.54 59.69 20.54C61.15 20.54 62.37 20 63.1 19.12L63.17 19.12C63.17 19.12 63.66 21.02 66.33 20.29C66.19 19.5 66.15 18.66 66.15 17.65L66.15 13.75Z" fill="#041E42" fill-opacity="1.000000" fill-rule="nonzero"/>
		<path id="Shape" d="M95.21 15.26C95.52 15.8 95.5 16.39 95.17 16.66L89.4 20.62C88.8 20.96 87.9 20.55 87.39 19.68C86.88 18.82 86.97 17.85 87.57 17.51L93.96 14.6C94.36 14.45 94.9 14.73 95.21 15.26ZM102.81 15.26C103.12 14.73 103.66 14.46 104.06 14.6L110.46 17.51C111.06 17.85 111.14 18.81 110.63 19.68C110.12 20.54 109.22 20.95 108.62 20.62L102.85 16.66C102.52 16.39 102.5 15.79 102.81 15.26ZM99.01 17.41C99.64 17.41 100.15 17.73 100.22 18.14L100.85 25.01C100.85 25.69 100.03 26.25 99.01 26.25C97.99 26.25 97.18 25.69 97.18 25.01L97.8 18.14C97.87 17.73 98.38 17.41 99.01 17.41ZM102.85 9.58L108.62 5.62C109.22 5.28 110.12 5.69 110.63 6.56C111.14 7.42 111.06 8.39 110.46 8.73L104.06 11.64C103.66 11.78 103.12 11.51 102.81 10.98C102.5 10.44 102.52 9.85 102.85 9.58ZM93.96 11.64L87.57 8.73C86.97 8.39 86.88 7.42 87.39 6.56C87.9 5.69 88.8 5.28 89.4 5.62L95.17 9.58C95.5 9.84 95.52 10.44 95.21 10.98C94.9 11.51 94.36 11.78 93.96 11.64ZM97.8 8.1L97.18 1.23C97.18 0.55 97.99 0 99.01 0C100.03 0 100.85 0.55 100.85 1.23L100.22 8.1C100.15 8.51 99.64 8.83 99.01 8.83C98.38 8.83 97.87 8.51 97.8 8.1ZM112.2 20.59L112.2 20.42L112.35 20.42C112.41 20.42 112.44 20.45 112.44 20.51C112.44 20.55 112.41 20.59 112.35 20.59L112.2 20.59ZM112.07 20.9C112.07 20.92 112.08 20.94 112.1 20.94L112.17 20.94C112.18 20.94 112.2 20.92 112.2 20.9L112.2 20.71L112.31 20.71L112.4 20.91C112.41 20.93 112.42 20.94 112.43 20.94L112.51 20.94C112.54 20.94 112.55 20.91 112.54 20.89C112.51 20.83 112.48 20.76 112.45 20.7C112.5 20.68 112.58 20.63 112.58 20.51C112.58 20.37 112.47 20.3 112.36 20.3L112.1 20.3C112.08 20.3 112.07 20.32 112.07 20.33L112.07 20.9ZM111.78 20.62C111.78 20.34 112.01 20.11 112.3 20.11C112.58 20.11 112.81 20.34 112.81 20.62C112.81 20.9 112.59 21.12 112.3 21.12C112.01 21.12 111.78 20.9 111.78 20.62ZM111.66 20.62C111.66 20.96 111.94 21.24 112.3 21.24C112.65 21.24 112.94 20.96 112.94 20.62C112.94 20.28 112.65 19.99 112.3 19.99C111.94 19.99 111.66 20.28 111.66 20.62Z" fill="#FFC124" fill-opacity="1.000000" fill-rule="nonzero"/>
	</g>
</svg>
