<svg width="579.091064" height="506.111328" viewBox="0 0 579.091 506.111" fill="none" xmlns="http://www.w3.org/2000/svg" xmlns:xlink="http://www.w3.org/1999/xlink">
	<desc>
			Created with Pixso.
	</desc>
	<defs>
		<filter id="filter_1_2549_dd" x="0.000000" y="0.000000" width="579.091064" height="506.111328" filterUnits="userSpaceOnUse" color-interpolation-filters="sRGB">
			<feFlood flood-opacity="0" result="BackgroundImageFix"/>
			<feColorMatrix in="SourceAlpha" type="matrix" values="0 0 0 0 0 0 0 0 0 0 0 0 0 0 0 0 0 0 127 0" result="hardAlpha"/>
			<feOffset dx="20" dy="40"/>
			<feGaussianBlur stdDeviation="26.6667"/>
			<feComposite in2="hardAlpha" operator="out" k2="-1" k3="1"/>
			<feColorMatrix type="matrix" values="0 0 0 0 0.34902 0 0 0 0 0.37647 0 0 0 0 0.52941 0 0 0 0.12 0"/>
			<feBlend mode="normal" in2="BackgroundImageFix" result="effect_dropShadow_1"/>
			<feBlend mode="normal" in="SourceGraphic" in2="effect_dropShadow_1" result="shape"/>
		</filter>
		<clipPath id="clip1_2557">
			<rect id="Dec" rx="-0.500000" width="29.500000" height="205.000000" transform="translate(511.830322 160.622559) rotate(0.015818)" fill="white" fill-opacity="0"/>
		</clipPath>
		<clipPath id="clip1_2560">
			<rect id="Nov" rx="-0.500000" width="29.500000" height="205.000000" transform="translate(456.930176 160.607422) rotate(0.015818)" fill="white" fill-opacity="0"/>
		</clipPath>
		<clipPath id="clip1_2563">
			<rect id="Oct" rx="-0.500000" width="25.840000" height="205.000000" transform="translate(405.690186 160.593262) rotate(0.015818)" fill="white" fill-opacity="0"/>
		</clipPath>
		<clipPath id="clip1_2566">
			<rect id="Sep" rx="-0.500000" width="28.280001" height="205.000000" transform="translate(352.010254 160.578369) rotate(0.015818)" fill="white" fill-opacity="0"/>
		</clipPath>
		<clipPath id="clip1_2569">
			<rect id="Aug" rx="-0.500000" width="29.500000" height="205.000000" transform="translate(297.110107 160.563232) rotate(0.015818)" fill="white" fill-opacity="0"/>
		</clipPath>
		<clipPath id="clip1_2572">
			<rect id="Jul" rx="-0.500000" width="47.799999" height="205.000000" transform="translate(236.110107 160.546387) rotate(0.015818)" fill="white" fill-opacity="0"/>
		</clipPath>
		<clipPath id="clip1_2576">
			<rect id="Jun" rx="-0.500000" width="28.280001" height="205.000000" transform="translate(194.630127 160.534912) rotate(0.015818)" fill="white" fill-opacity="0"/>
		</clipPath>
		<clipPath id="clip1_2579">
			<rect id="May" rx="-0.500000" width="31.939999" height="205.000000" transform="translate(137.290039 160.519043) rotate(0.015818)" fill="white" fill-opacity="0"/>
		</clipPath>
		<clipPath id="clip1_2582">
			<rect id="Apr" rx="-0.500000" width="27.059999" height="205.000000" transform="translate(84.830322 160.504639) rotate(0.015818)" fill="white" fill-opacity="0"/>
		</clipPath>
		<clipPath id="clip1_2585">
			<rect id="Mar" rx="-0.500000" width="29.500000" height="205.000000" transform="translate(29.930176 160.489502) rotate(0.015818)" fill="white" fill-opacity="0"/>
		</clipPath>
		<clipPath id="clip1_2588">
			<rect id="Feb" rx="-0.500000" width="28.280001" height="205.000000" transform="translate(-23.750000 160.474609) rotate(0.015818)" fill="white" fill-opacity="0"/>
		</clipPath>
		<clipPath id="clip1_2591">
			<rect id="Jan" rx="-0.500000" width="28.280001" height="205.000000" transform="translate(-77.429932 160.459717) rotate(0.015818)" fill="white" fill-opacity="0"/>
		</clipPath>
		<filter id="filter_1_2595_dd" x="245.550537" y="138.058594" width="116.007080" height="82.013184" filterUnits="userSpaceOnUse" color-interpolation-filters="sRGB">
			<feFlood flood-opacity="0" result="BackgroundImageFix"/>
			<feColorMatrix in="SourceAlpha" type="matrix" values="0 0 0 0 0 0 0 0 0 0 0 0 0 0 0 0 0 0 127 0" result="hardAlpha"/>
			<feOffset dx="0" dy="4"/>
			<feGaussianBlur stdDeviation="7.33333"/>
			<feComposite in2="hardAlpha" operator="out" k2="-1" k3="1"/>
			<feColorMatrix type="matrix" values="0 0 0 0 0.62353 0 0 0 0 0.63922 0 0 0 0 0.72157 0 0 0 0.25 0"/>
			<feBlend mode="normal" in2="BackgroundImageFix" result="effect_dropShadow_1"/>
			<feBlend mode="normal" in="SourceGraphic" in2="effect_dropShadow_1" result="shape"/>
		</filter>
		<clipPath id="clip1_2603">
			<rect id="Group 8" rx="-0.500000" width="16.080000" height="23.000000" transform="translate(90.930664 158.506348) rotate(0.015818)" fill="white" fill-opacity="0"/>
		</clipPath>
		<clipPath id="clip1_2605">
			<rect id="Group 8 Copy 9" rx="-0.500000" width="9.980000" height="23.000000" transform="translate(98.203613 328.508301) rotate(0.015818)" fill="white" fill-opacity="0"/>
		</clipPath>
		<clipPath id="clip1_2607">
			<rect id="Group 8 Copy 10" rx="-0.500000" width="28.280001" height="23.000000" transform="translate(79.913086 294.503174) rotate(0.015818)" fill="white" fill-opacity="0"/>
		</clipPath>
		<clipPath id="clip1_2609">
			<rect id="Group 8 Copy 3" rx="-0.500000" width="28.280001" height="23.000000" transform="translate(79.922607 260.503174) rotate(0.015818)" fill="white" fill-opacity="0"/>
		</clipPath>
		<clipPath id="clip1_2611">
			<rect id="Group 8 Copy 5" rx="-0.500000" width="28.280001" height="23.000000" transform="translate(79.931885 226.503174) rotate(0.015818)" fill="white" fill-opacity="0"/>
		</clipPath>
		<clipPath id="clip1_2613">
			<rect id="Group 8 Copy 7" rx="-0.500000" width="28.280001" height="23.000000" transform="translate(79.941406 192.503174) rotate(0.015818)" fill="white" fill-opacity="0"/>
		</clipPath>
		<filter id="filter_1_2616_dd" x="247.549805" y="188.052734" width="22.000000" height="22.000000" filterUnits="userSpaceOnUse" color-interpolation-filters="sRGB">
			<feFlood flood-opacity="0" result="BackgroundImageFix"/>
			<feColorMatrix in="SourceAlpha" type="matrix" values="0 0 0 0 0 0 0 0 0 0 0 0 0 0 0 0 0 0 127 0" result="hardAlpha"/>
			<feOffset dx="0" dy="2"/>
			<feGaussianBlur stdDeviation="1.33333"/>
			<feComposite in2="hardAlpha" operator="out" k2="-1" k3="1"/>
			<feColorMatrix type="matrix" values="0 0 0 0 0.26667 0 0 0 0 0.26667 0 0 0 0 0.3098 0 0 0 0.15 0"/>
			<feBlend mode="normal" in2="BackgroundImageFix" result="effect_dropShadow_1"/>
			<feBlend mode="normal" in="SourceGraphic" in2="effect_dropShadow_1" result="shape"/>
		</filter>
		<clipPath id="clip1_2553">
			<rect id="#Sales Figures" rx="-0.500000" width="365.000000" height="259.000000" transform="translate(80.574951 106.503418) rotate(0.015818)" fill="white" fill-opacity="0"/>
		</clipPath>
		<clipPath id="clip1_2549">
			<rect id="Sales - Light" rx="7.500000" width="418.000000" height="345.000000" transform="translate(60.593262 40.497803) rotate(0.015818)" fill="white" fill-opacity="0"/>
		</clipPath>
		<linearGradient x1="260.010071" y1="160.053116" x2="259.959564" y2="343.053101" id="paint_linear_1_2575_0" gradientUnits="userSpaceOnUse">
			<stop stop-color="#2A85FF"/>
			<stop offset="1.000000" stop-color="#2A85FF" stop-opacity="0.000000"/>
		</linearGradient>
	</defs>
	<g filter="url(#filter_1_2549_dd)">
		<rect id="Sales - Light" rx="7.500000" width="418.000000" height="345.000000" transform="translate(60.593262 40.497803) rotate(0.015818)" fill="#FFFFFF" fill-opacity="1.000000"/>
		<g clip-path="url(#clip1_2549)">
			<path id="Sales Report" d="M92.18 71.64L89.24 71.64C89.12 70.5 88.22 69.83 86.75 69.83C85.24 69.83 84.41 70.52 84.41 71.45C84.39 72.5 85.45 72.97 86.72 73.26L88.02 73.57C90.55 74.14 92.37 75.42 92.38 77.85C92.37 80.51 90.28 82.21 86.73 82.21C83.2 82.2 80.95 80.58 80.87 77.43L83.85 77.43C83.95 78.89 85.1 79.63 86.7 79.63C88.26 79.63 89.27 78.91 89.28 77.84C89.27 76.86 88.39 76.41 86.8 76.02L85.22 75.62C82.76 75.03 81.25 73.8 81.26 71.66C81.25 69.02 83.58 67.25 86.77 67.25C90.01 67.26 92.14 69.05 92.18 71.64ZM104.99 67.46L108.02 67.46L108.01 82.01L104.99 82.01L104.99 67.46ZM139.39 82.01L136.31 82.01L136.31 67.47L142.05 67.47C145.36 67.47 147.27 69.33 147.27 72.22C147.27 74.21 146.35 75.65 144.69 76.36L147.78 82.02L144.39 82.02L141.63 76.86L139.39 76.86L139.39 82.01ZM196.04 71.12L198.1 71.12L198.1 73.39L196.04 73.39L196.04 78.68C196.04 79.52 196.46 79.75 197.07 79.75C197.35 79.75 197.67 79.67 197.82 79.64L198.29 81.89C197.99 82 197.43 82.15 196.65 82.18C194.46 82.27 193 81.21 193.02 79.08L193.02 73.39L191.52 73.39L191.53 71.12L193.02 71.12L193.02 68.51L196.04 68.51L196.04 71.12ZM139.39 69.98L139.39 74.39L141.47 74.39C143.24 74.39 144.1 73.66 144.1 72.22C144.1 70.77 143.24 69.98 141.46 69.98L139.39 69.98ZM187.09 82.03L184.07 82.03L184.07 71.12L187.01 71.12L187 73.02L187.12 73.02C187.52 71.67 188.52 70.96 189.74 70.96C190.05 70.96 190.42 71.01 190.69 71.07L190.69 73.75C190.41 73.66 189.83 73.59 189.41 73.59C188.08 73.59 187.1 74.51 187.1 75.86L187.09 82.03ZM100.18 80.49C99.65 81.51 98.61 82.21 96.99 82.21C94.91 82.21 93.37 81.11 93.37 78.96C93.37 76.52 95.31 75.8 97.47 75.6C99.36 75.41 100.11 75.32 100.11 74.62L100.11 74.58C100.11 73.68 99.52 73.16 98.49 73.16C97.41 73.16 96.76 73.69 96.55 74.42L93.75 74.19C94.18 72.2 95.89 70.95 98.51 70.95C100.94 70.95 103.14 72.05 103.14 74.65L103.14 82L100.27 82L100.27 80.49L100.18 80.49ZM119.84 78.88C119.42 80.91 117.6 82.22 114.9 82.22C111.54 82.22 109.49 80.06 109.49 76.6C109.49 73.24 111.57 70.96 114.78 70.96C117.66 70.96 119.91 72.79 119.91 76.5L119.91 77.33L112.48 77.32L112.48 77.33C112.48 78.96 113.44 79.96 114.95 79.96C115.96 79.96 116.74 79.53 117.05 78.7L119.84 78.88ZM125.82 70.96C128.57 70.96 130.19 72.2 130.46 74.21L127.69 74.38C127.54 73.68 126.91 73.11 125.86 73.1C124.93 73.1 124.19 73.53 124.19 74.18C124.19 74.71 124.56 75.06 125.58 75.28L127.55 75.68C129.67 76.11 130.7 77.06 130.71 78.63C130.7 80.78 128.67 82.23 125.85 82.23C122.96 82.23 121.18 80.94 120.9 78.85L123.87 78.7C124.06 79.58 124.78 80.04 125.86 80.04C126.91 80.04 127.61 79.58 127.63 78.94C127.61 78.39 127.19 78.04 126.23 77.85L124.34 77.47C122.21 77.04 121.18 75.99 121.19 74.35C121.19 72.25 123.02 70.96 125.82 70.96ZM158.61 78.9C158.18 80.92 156.36 82.23 153.66 82.23C150.3 82.23 148.25 80.07 148.25 76.61C148.25 73.25 150.34 70.97 153.55 70.97C156.43 70.97 158.67 72.8 158.67 76.51L158.67 77.34L151.24 77.34L151.24 77.35C151.24 78.97 152.2 79.97 153.72 79.97C154.72 79.97 155.5 79.54 155.81 78.71L158.61 78.9ZM163.17 86.11L160.14 86.11L160.15 71.11L163.13 71.11L163.13 72.94L163.27 72.94C163.67 72.06 164.55 70.97 166.37 70.97C168.77 70.97 170.79 72.83 170.79 76.58C170.79 80.23 168.85 82.2 166.36 82.2C164.6 82.2 163.69 81.18 163.27 80.27L163.17 80.27L163.17 86.11ZM182.59 76.62C182.59 79.98 180.54 82.24 177.23 82.24C173.92 82.24 171.86 79.97 171.86 76.61C171.86 73.23 173.92 70.97 177.23 70.98C180.54 70.98 182.6 73.23 182.59 76.62ZM114.83 73.21C113.49 73.21 112.54 74.21 112.48 75.45L117.06 75.45C117.05 74.15 116.14 73.21 114.83 73.21ZM153.6 73.22C152.25 73.22 151.31 74.22 151.24 75.46L155.83 75.46C155.82 74.16 154.91 73.23 153.6 73.22ZM174.93 76.59C174.93 78.49 175.71 79.9 177.24 79.9C178.74 79.9 179.52 78.5 179.52 76.59C179.52 74.69 178.74 73.28 177.24 73.28C175.72 73.28 174.93 74.69 174.93 76.59ZM165.41 73.38C163.94 73.38 163.11 74.62 163.11 76.57C163.11 78.51 163.95 79.79 165.4 79.79C166.89 79.79 167.7 78.47 167.7 76.57C167.7 74.68 166.91 73.38 165.41 73.38ZM96.26 78.86C96.26 79.69 96.93 80.12 97.86 80.12C99.19 80.12 100.13 79.25 100.13 78.1L100.13 76.95C99.77 77.19 98.69 77.35 98.03 77.44C96.97 77.58 96.26 78 96.26 78.86Z" fill="#1D1E25" fill-opacity="1.000000" fill-rule="evenodd"/>
			<rect id="#Sales Figures" rx="-0.500000" width="365.000000" height="259.000000" transform="translate(80.574951 106.503418) rotate(0.015818)" fill="#FFFFFF" fill-opacity="0"/>
			<g clip-path="url(#clip1_2553)">
				<mask id="mask1_2555" mask-type="alpha" maskUnits="userSpaceOnUse" x="79.391113" y="114.003174" width="367.291748" height="260.101318">
					<rect id="Mask" x="79.462891" y="114.003174" width="367.220001" height="260.000000" transform="rotate(0.0158183 79.462891 114.003174)" fill="#FFFFFF" fill-opacity="1.000000"/>
					<rect id="Mask" x="79.462891" y="114.003174" width="367.220001" height="260.000000" transform="rotate(0.0158183 79.462891 114.003174)" stroke="#979797" stroke-opacity="0" stroke-width="0.000000"/>
				</mask>
				<g mask="url(#mask1_2555)">
					<rect id="Dec" rx="-0.500000" width="29.500000" height="205.000000" transform="translate(511.830322 160.622559) rotate(0.015818)" fill="#FFFFFF" fill-opacity="0"/>
					<g clip-path="url(#clip1_2557)">
						<path id="Dec" d="M516.82 338.84L516.81 347.38L519.18 347.38Q520.32 347.36 521.19 346.88Q521.55 346.68 521.84 346.4Q522.25 346.02 522.52 345.48Q522.99 344.58 522.99 343.37L522.99 342.82Q522.98 341.65 522.52 340.74Q522.23 340.19 521.81 339.79Q521.53 339.53 521.19 339.34Q521.13 339.3 521.07 339.27Q520.26 338.85 519.23 338.84L516.82 338.84ZM517.94 346.46L517.94 339.77L519.25 339.77Q520.18 339.78 520.8 340.22Q521.01 340.38 521.19 340.59Q521.87 341.39 521.87 342.85L521.87 343.35Q521.87 344.84 521.15 345.65Q520.98 345.84 520.77 345.99Q520.11 346.46 519.12 346.46L517.94 346.46ZM525.75 347.13Q526.39 347.5 527.23 347.5Q528.18 347.5 528.84 347.06Q529.3 346.77 529.62 346.27L528.96 345.76Q528.7 346.1 528.36 346.32Q528.31 346.35 528.26 346.38Q527.86 346.61 527.29 346.61Q526.84 346.61 526.48 346.43Q526.19 346.29 525.96 346.03Q525.88 345.95 525.82 345.86Q525.43 345.32 525.41 344.52L529.7 344.52L529.7 344.07Q529.7 342.55 529.02 341.74Q528.82 341.5 528.57 341.33Q527.97 340.92 527.1 340.92Q526.77 340.92 526.46 341Q526.06 341.1 525.69 341.34Q525.52 341.45 525.36 341.59Q524.95 341.96 524.69 342.5Q524.33 343.24 524.33 344.18L524.33 344.38Q524.32 345.56 524.88 346.34Q524.99 346.5 525.13 346.65Q525.41 346.94 525.75 347.13ZM534.21 346.49Q533.93 346.61 533.59 346.61Q533.04 346.61 532.66 346.36Q532.46 346.23 532.3 346.02Q531.85 345.43 531.85 344.33L531.85 344.13Q531.85 343 532.3 342.41Q532.47 342.18 532.69 342.05Q533.07 341.81 533.58 341.81Q533.96 341.81 534.27 341.97Q534.46 342.06 534.62 342.21Q534.77 342.36 534.87 342.53Q535.05 342.83 535.08 343.22L536.11 343.22Q536.08 342.59 535.8 342.11Q535.62 341.81 535.35 341.56Q535.15 341.38 534.92 341.25Q534.34 340.92 533.58 340.92Q532.76 340.92 532.15 341.28Q532.11 341.3 532.08 341.32Q531.88 341.45 531.71 341.6Q531.34 341.94 531.1 342.44Q530.76 343.16 530.76 344.09L530.76 344.27Q530.76 345.71 531.47 346.57Q531.5 346.6 531.53 346.63Q531.78 346.92 532.09 347.11Q532.72 347.5 533.59 347.5Q533.9 347.5 534.19 347.43Q534.51 347.36 534.81 347.2Q535.27 346.97 535.59 346.6Q535.66 346.51 535.73 346.42Q536.01 346.02 536.08 345.59Q536.1 345.49 536.11 345.38L535.08 345.38Q535.06 345.6 534.98 345.79Q534.85 346.05 534.6 346.26Q534.42 346.41 534.21 346.49ZM526.49 341.93Q526.76 341.81 527.1 341.81Q527.55 341.81 527.88 342.02Q528.04 342.12 528.18 342.27Q528.57 342.72 528.62 343.55L528.62 343.63L525.44 343.63Q525.55 342.77 526 342.29Q526.21 342.05 526.49 341.93Z" fill="#92929D" fill-opacity="1.000000" fill-rule="evenodd"/>
						<path id="Shape" d="M524.7 343.12L524.75 160.12L525.96 160.12L525.92 343.12L524.7 343.12Z" fill="#F1F1F5" fill-opacity="1.000000" fill-rule="evenodd"/>
						<path id="Shape" d="M524.75 160.12L525.96 160.12L525.92 343.12L524.7 343.12L524.75 160.12Z" stroke="#979797" stroke-opacity="0" stroke-width="0.000000"/>
					</g>
					<rect id="Nov" rx="-0.500000" width="29.500000" height="205.000000" transform="translate(456.930176 160.607422) rotate(0.015818)" fill="#FFFFFF" fill-opacity="0"/>
					<g clip-path="url(#clip1_2560)">
						<path id="Nov" d="M467.03 347.36L468.16 347.36L468.17 338.83L467.05 338.83L467.04 345.43L462.74 338.83L461.61 338.83L461.61 347.36L462.74 347.36L462.74 340.79L467.03 347.36ZM470.16 342.46Q469.79 343.2 469.79 344.13L469.79 344.21Q469.79 345.51 470.41 346.35Q470.49 346.47 470.59 346.58Q470.91 346.94 471.3 347.15Q471.9 347.48 472.68 347.48Q473.37 347.48 473.94 347.21Q474.07 347.15 474.19 347.07Q474.42 346.93 474.61 346.75Q474.97 346.41 475.21 345.93Q475.56 345.19 475.56 344.26L475.56 344.19Q475.56 342.86 474.93 342.01Q474.85 341.9 474.76 341.8Q474.45 341.45 474.07 341.24Q473.46 340.91 472.67 340.91Q472.01 340.91 471.47 341.15Q471.32 341.22 471.18 341.31Q471.01 341.41 470.86 341.54Q470.43 341.9 470.16 342.46ZM480.58 341.03L479.01 345.89L477.4 341.02L476.29 341.02L478.59 347.36L479.42 347.37L481.69 341.03L480.58 341.03ZM471.37 345.96Q470.88 345.32 470.88 344.26Q470.88 343.07 471.37 342.44Q471.62 342.11 471.95 341.95Q472.27 341.8 472.67 341.8Q473.09 341.8 473.42 341.96Q473.74 342.13 473.98 342.44Q474.48 343.09 474.48 344.14Q474.48 345.3 473.99 345.95Q473.76 346.26 473.45 346.42Q473.11 346.6 472.68 346.6Q472.25 346.6 471.91 346.42Q471.6 346.26 471.37 345.96Z" fill="#92929D" fill-opacity="1.000000" fill-rule="evenodd"/>
						<path id="Shape" d="M469.8 343.11L469.85 160.11L471.07 160.11L471.02 343.11L469.8 343.11Z" fill="#F1F1F5" fill-opacity="1.000000" fill-rule="evenodd"/>
						<path id="Shape" d="M469.85 160.11L471.07 160.11L471.02 343.11L469.8 343.11L469.85 160.11Z" stroke="#979797" stroke-opacity="0" stroke-width="0.000000"/>
					</g>
					<rect id="Oct" rx="-0.500000" width="25.840000" height="205.000000" transform="translate(405.690186 160.593262) rotate(0.015818)" fill="#FFFFFF" fill-opacity="0"/>
					<g clip-path="url(#clip1_2563)">
						<path id="Oct" d="M412.49 351.24C414.72 351.24 416.34 352.97 416.34 355.73C416.34 358.49 414.72 360.21 412.49 360.21C410.26 360.21 408.64 358.49 408.64 355.73C408.64 352.96 410.26 351.24 412.49 351.24ZM426.13 353.55L427.53 353.55L427.53 354.4L426.13 354.4L426.13 358.22C426.13 359.07 426.55 359.21 426.99 359.21C427.22 359.21 427.35 359.17 427.44 359.16L427.64 360.06C427.51 360.11 427.27 360.18 426.89 360.18C426.04 360.18 425.12 359.63 425.12 358.49L425.12 354.4L424.13 354.4L424.13 353.55L425.12 353.55L425.12 351.98L426.13 351.98L426.13 353.55ZM412.49 359.22C414.07 359.22 415.32 357.99 415.32 355.73C415.32 353.46 414.08 352.23 412.49 352.23C410.91 352.23 409.66 353.46 409.66 355.73C409.66 357.99 410.9 359.22 412.49 359.22ZM423.21 358.18C423.04 359.34 422.08 360.23 420.64 360.23C418.79 360.23 417.67 358.81 417.67 356.85C417.67 354.86 418.85 353.46 420.62 353.46C422 353.46 423.04 354.28 423.21 355.51L422.21 355.51C422.05 354.91 421.52 354.37 420.64 354.37C419.46 354.37 418.68 355.34 418.68 356.82C418.68 358.34 419.45 359.33 420.64 359.33C421.42 359.33 422.02 358.9 422.21 358.18L423.21 358.18Z" fill="#808D9E" fill-opacity="1.000000" fill-rule="evenodd"/>
						<path id="Shape" d="M417.34 343.09L417.39 160.09L418.61 160.09L418.56 343.09L417.34 343.09Z" fill="#E9ECF2" fill-opacity="1.000000" fill-rule="evenodd"/>
					</g>
					<rect id="Sep" rx="-0.500000" width="28.280001" height="205.000000" transform="translate(352.010254 160.578369) rotate(0.015818)" fill="#FFFFFF" fill-opacity="0"/>
					<g clip-path="url(#clip1_2566)">
						<path id="Sep" d="M361.72 353.53L360.69 353.53C360.59 352.67 359.79 352.17 358.74 352.17C357.58 352.17 356.81 352.78 356.81 353.62C356.81 354.55 357.85 354.89 358.49 355.06L359.38 355.3C360.28 355.54 361.84 356.07 361.84 357.71C361.84 359.12 360.69 360.23 358.68 360.23C356.81 360.23 355.65 359.26 355.55 357.83L356.64 357.83C356.72 358.81 357.64 359.28 358.68 359.28C359.89 359.28 360.81 358.64 360.81 357.69C360.81 356.82 359.99 356.5 359.07 356.24L358 355.93C356.64 355.54 355.78 354.84 355.78 353.67C355.79 352.2 357.1 351.23 358.77 351.23C360.46 351.23 361.67 352.21 361.72 353.53ZM368.79 358.56C368.48 359.55 367.51 360.22 366.18 360.22C364.29 360.22 363.13 358.87 363.13 356.85C363.13 354.84 364.31 353.45 366.08 353.45C367.44 353.45 368.89 354.28 368.89 356.72L368.89 357.15L364.14 357.14C364.19 358.55 365 359.31 366.18 359.31C366.97 359.31 367.56 358.97 367.82 358.29L368.79 358.56ZM371.43 362.53L370.42 362.53L370.43 353.53L371.4 353.53L371.4 354.57L371.52 354.57C371.74 354.23 372.13 353.45 373.41 353.45C375.06 353.45 376.21 354.76 376.21 356.83C376.21 358.91 375.06 360.22 373.42 360.22C372.17 360.22 371.74 359.43 371.52 359.07L371.43 359.07L371.43 362.53ZM366.08 354.35C364.93 354.35 364.21 355.26 364.14 356.28L367.87 356.28C367.87 355.17 367.17 354.35 366.08 354.35ZM373.29 354.35C372.06 354.35 371.42 355.34 371.42 356.81C371.42 358.29 372.08 359.31 373.29 359.31C374.55 359.31 375.2 358.21 375.2 356.81C375.2 355.43 374.57 354.35 373.29 354.35Z" fill="#808D9E" fill-opacity="1.000000" fill-rule="evenodd"/>
						<path id="Shape" d="M364.88 343.08L364.93 160.08L366.15 160.08L366.1 343.08L364.88 343.08Z" fill="#E9ECF2" fill-opacity="1.000000" fill-rule="evenodd"/>
					</g>
					<rect id="Aug" rx="-0.500000" width="29.500000" height="205.000000" transform="translate(297.110107 160.563232) rotate(0.015818)" fill="#FFFFFF" fill-opacity="0"/>
					<g clip-path="url(#clip1_2569)">
						<path id="Aug" d="M302.54 357.59L301.66 360.06L300.55 360.06L303.76 351.33L304.85 351.33L308.05 360.06L306.94 360.06L306.06 357.59L302.54 357.59ZM304.27 352.71L302.87 356.65L305.73 356.65L304.33 352.71L304.27 352.71ZM321.72 360.25C321.72 361.94 320.46 362.66 318.89 362.65C317.43 362.65 316.62 362.03 316.21 361.34L317.01 360.78C317.28 361.14 317.7 361.77 318.89 361.77C319.95 361.77 320.71 361.28 320.71 360.19L320.71 358.86L320.63 358.86C320.41 359.21 320 359.96 318.72 359.96C317.13 359.96 315.94 358.8 315.94 356.76C315.94 354.75 317.08 353.43 318.74 353.43C320.02 353.44 320.43 354.22 320.65 354.56L320.75 354.56L320.75 353.52L321.72 353.52L321.72 360.25ZM311.71 359.18C312.46 359.18 313.4 358.61 313.4 357.39L313.4 353.52L314.41 353.52L314.41 360.06L313.4 360.06L313.4 358.96L313.33 358.96C313.03 359.62 312.38 360.15 311.39 360.15C310.16 360.15 309.28 359.35 309.28 357.67L309.28 353.52L310.28 353.52L310.28 357.61C310.28 358.56 310.88 359.17 311.71 359.18ZM316.95 356.74C316.95 358.1 317.59 359.06 318.85 359.06C320.06 359.06 320.73 358.19 320.73 356.74C320.73 355.33 320.08 354.34 318.85 354.34C317.58 354.34 316.95 355.41 316.95 356.74Z" fill="#808D9E" fill-opacity="1.000000" fill-rule="evenodd"/>
						<path id="Shape" d="M309.98 343.06L310.03 160.06L311.25 160.06L311.2 343.06L309.98 343.06Z" fill="#E9ECF2" fill-opacity="1.000000" fill-rule="evenodd"/>
					</g>
					<rect id="Jul" rx="-0.500000" width="47.799999" height="205.000000" transform="translate(236.110107 160.546387) rotate(0.015818)" fill="#FFFFFF" fill-opacity="0"/>
					<g clip-path="url(#clip1_2572)">
						<path id="Jul" d="M255.06 357.56L255.07 351.32L256.12 351.32L256.12 357.56C256.12 359.23 255.15 360.17 253.63 360.17C252.2 360.17 251.16 359.34 251.16 358L252.2 358C252.2 358.74 252.8 359.23 253.63 359.23C254.54 359.23 255.06 358.64 255.06 357.56ZM265.07 351.32L266.07 351.32L266.07 360.05L265.07 360.05L265.07 351.32ZM260.53 359.16C261.28 359.16 262.22 358.6 262.22 357.37L262.22 353.5L263.23 353.5L263.23 360.05L262.22 360.05L262.22 358.94L262.15 358.94C261.85 359.61 261.2 360.13 260.21 360.13C258.98 360.13 258.1 359.33 258.1 357.66L258.1 353.5L259.1 353.5L259.1 357.59C259.1 358.55 259.7 359.16 260.53 359.16Z" fill="#808D9E" fill-opacity="1.000000" fill-rule="evenodd"/>
						<path id="Shape" d="M257.51 343.05L257.57 160.05L260.01 160.05L259.95 343.05L257.51 343.05Z" fill="#E9ECF2" fill-opacity="1.000000" fill-rule="evenodd"/>
						<g opacity="0.100000">
							<path id="Shape" d="M235.56 343.04L235.61 160.04L284.41 160.06L284.35 343.06L235.56 343.04Z" fill="url(#paint_linear_1_2575_0)" fill-opacity="1.000000" fill-rule="evenodd"/>
						</g>
					</g>
					<rect id="Jun" rx="-0.500000" width="28.280001" height="205.000000" transform="translate(194.630127 160.534912) rotate(0.015818)" fill="#FFFFFF" fill-opacity="0"/>
					<g clip-path="url(#clip1_2576)">
						<path id="Jun" d="M202.61 357.55L202.61 351.31L203.67 351.31L203.66 357.55C203.66 359.22 202.69 360.15 201.17 360.15C199.74 360.15 198.7 359.33 198.7 357.99L199.74 357.99C199.74 358.73 200.34 359.21 201.17 359.22C202.09 359.22 202.61 358.63 202.61 357.55ZM215.29 354.31C214.33 354.31 213.62 354.96 213.62 356.1L213.62 360.04L212.61 360.04L212.61 353.49L213.58 353.49L213.58 354.51L213.67 354.51C213.98 353.85 214.59 353.41 215.58 353.41C216.9 353.41 217.79 354.21 217.79 355.88L217.79 360.04L216.79 360.04L216.79 355.95C216.79 354.92 216.22 354.31 215.29 354.31ZM208.08 359.15C208.83 359.15 209.76 358.58 209.76 357.36L209.77 353.49L210.77 353.49L210.77 360.04L209.76 360.03L209.76 358.93L209.7 358.93C209.39 359.59 208.74 360.12 207.75 360.12C206.53 360.12 205.64 359.32 205.64 357.65L205.64 353.49L206.65 353.49L206.64 357.58C206.64 358.53 207.24 359.15 208.08 359.15Z" fill="#808D9E" fill-opacity="1.000000" fill-rule="evenodd"/>
						<path id="Shape" d="M209.94 343.03L209.99 160.03L211.21 160.03L211.16 343.04L209.94 343.03Z" fill="#E9ECF2" fill-opacity="1.000000" fill-rule="evenodd"/>
					</g>
					<rect id="May" rx="-0.500000" width="31.939999" height="205.000000" transform="translate(137.290039 160.519043) rotate(0.015818)" fill="#FFFFFF" fill-opacity="0"/>
					<g clip-path="url(#clip1_2579)">
						<path id="May" d="M141.74 360.02L141.74 351.29L143 351.29L145.97 358.53L146.07 358.53L149.03 351.29L150.29 351.29L150.29 360.02L149.31 360.02L149.31 353.39L149.22 353.39L146.49 360.02L145.54 360.02L142.81 353.39L142.73 353.39L142.72 360.02L141.74 360.02ZM156.14 359.13C155.94 359.56 155.34 360.17 154.2 360.17C152.95 360.17 151.96 359.44 151.96 358.16C151.96 356.66 153.29 356.39 154.5 356.23C155.7 356.08 156.19 356.13 156.19 355.64L156.19 355.6C156.19 354.77 155.74 354.27 154.81 354.27C153.85 354.27 153.33 354.79 153.11 355.26L152.15 354.92C152.66 353.73 153.79 353.39 154.78 353.39C155.62 353.39 157.2 353.63 157.2 355.71L157.2 360.02L156.19 360.02L156.19 359.13L156.14 359.13ZM161.37 360.98C160.99 361.99 160.35 362.48 159.45 362.48C159.11 362.48 158.82 362.41 158.71 362.36L158.97 361.47C159.7 361.66 160.15 361.56 160.52 360.57L160.71 360.06L158.29 353.48L159.38 353.48L161.19 358.69L161.25 358.69L163.06 353.48L164.15 353.48L161.37 360.98ZM152.97 358.21C152.97 358.91 153.55 359.27 154.35 359.27C155.54 359.27 156.19 358.47 156.19 357.65L156.19 356.73C156.02 356.93 154.88 357.05 154.45 357.1C153.67 357.21 152.97 357.44 152.97 358.21Z" fill="#808D9E" fill-opacity="1.000000" fill-rule="evenodd"/>
						<path id="Shape" d="M153.83 343.02L153.88 160.02L155.07 160.02L155.02 343.02L153.83 343.02Z" fill="#E9ECF2" fill-opacity="1.000000" fill-rule="evenodd"/>
					</g>
					<rect id="Apr" rx="-0.500000" width="27.059999" height="205.000000" transform="translate(84.830322 160.504639) rotate(0.015818)" fill="#FFFFFF" fill-opacity="0"/>
					<g clip-path="url(#clip1_2582)">
						<path id="Apr" d="M90.09 347.26L90.89 345.03L94.47 345.03L95.28 347.26L96.44 347.26L93.18 338.73L92.19 338.73L88.93 347.26L90.09 347.26ZM94.14 344.11L91.24 344.11L92.68 340.12L94.14 344.11ZM102.2 346.49Q102.86 345.61 102.86 344.16L102.86 344.06Q102.86 342.53 102.19 341.67Q101.9 341.29 101.52 341.08Q101.03 340.8 100.39 340.8Q99.62 340.8 99.08 341.15Q98.78 341.33 98.55 341.62L98.49 340.92L97.5 340.92L97.5 349.7L98.58 349.7L98.59 346.64Q98.76 346.84 98.98 346.99Q99.56 347.38 100.4 347.38Q101 347.38 101.47 347.13Q101.88 346.91 102.2 346.49ZM106.85 341.85Q107.14 341.85 107.39 341.9L107.39 340.89Q107.22 340.81 106.91 340.81Q106.44 340.81 106.08 341Q105.67 341.21 105.39 341.65L105.38 340.92L104.32 340.92L104.32 347.26L105.4 347.26L105.41 342.76Q105.57 342.37 105.87 342.14Q106.25 341.85 106.85 341.85ZM101.32 342.34Q101.77 342.97 101.77 344.04Q101.77 345.26 101.31 345.87Q101.09 346.18 100.79 346.33Q100.48 346.49 100.07 346.49Q99.57 346.49 99.19 346.27Q98.83 346.05 98.59 345.63L98.59 342.6Q98.84 342.14 99.23 341.93Q99.59 341.72 100.06 341.72Q100.49 341.72 100.83 341.9Q101.11 342.06 101.32 342.34Z" fill="#92929D" fill-opacity="1.000000" fill-rule="evenodd"/>
						<path id="Shape" d="M98.93 343L98.98 160L100.17 160L100.12 343L98.93 343Z" fill="#F1F1F5" fill-opacity="1.000000" fill-rule="evenodd"/>
						<path id="Shape" d="M98.98 160L100.17 160L100.12 343L98.93 343L98.98 160Z" stroke="#979797" stroke-opacity="0" stroke-width="0.000000"/>
					</g>
					<rect id="Mar" rx="-0.500000" width="29.500000" height="205.000000" transform="translate(29.930176 160.489502) rotate(0.015818)" fill="#FFFFFF" fill-opacity="0"/>
					<g clip-path="url(#clip1_2585)">
						<path id="Mar" d="M38.88 345.67L36.09 338.71L34.64 338.71L34.64 347.24L35.76 347.24L35.76 343.92L35.65 340.35L38.44 347.24L39.31 347.24L42.11 340.34L42 343.92L42 347.24L43.13 347.24L43.13 338.71L41.67 338.71L38.88 345.67ZM48.79 346.58Q48.85 347.06 48.94 347.25L50.08 347.25L50.08 347.15Q49.86 346.64 49.86 345.76L49.86 342.85Q49.84 342.15 49.51 341.67Q49.38 341.49 49.21 341.34Q49.21 341.33 49.2 341.33Q48.58 340.79 47.5 340.79Q46.81 340.79 46.24 341.04Q46.23 341.04 46.23 341.05Q45.66 341.3 45.32 341.74Q45.32 341.74 45.31 341.75Q45.02 342.13 44.98 342.54Q44.98 342.6 44.98 342.66L46.07 342.66Q46.07 342.54 46.1 342.42Q46.19 342.16 46.46 341.95Q46.5 341.92 46.54 341.9Q46.91 341.66 47.43 341.66Q48.08 341.66 48.42 341.99Q48.43 341.99 48.43 342Q48.51 342.07 48.57 342.16Q48.77 342.46 48.77 342.9L48.77 343.4L47.72 343.4Q46.35 343.4 45.6 343.95Q45.28 344.18 45.1 344.5Q44.85 344.92 44.85 345.49Q44.85 345.91 45.01 346.26Q45.16 346.58 45.45 346.83Q45.57 346.94 45.7 347.02Q46.23 347.36 46.99 347.36Q47.44 347.36 47.85 347.21Q48.36 347.02 48.79 346.58ZM54.17 341.84Q54.46 341.84 54.71 341.88L54.71 340.87Q54.54 340.79 54.23 340.79Q53.76 340.79 53.4 340.98Q53 341.19 52.72 341.64L52.7 340.91L51.64 340.91L51.64 347.25L52.73 347.25L52.73 342.75Q52.89 342.35 53.19 342.13Q53.57 341.84 54.17 341.84ZM47.52 346.38Q47.33 346.42 47.14 346.42Q46.68 346.42 46.37 346.21Q46.32 346.17 46.27 346.13Q46.16 346.04 46.09 345.93Q45.93 345.69 45.93 345.34Q45.93 345.04 46.06 344.82Q46.44 344.17 47.92 344.17L48.77 344.17L48.77 345.47Q48.74 345.54 48.7 345.61Q48.49 345.94 48.11 346.16Q47.82 346.32 47.52 346.38Z" fill="#92929D" fill-opacity="1.000000" fill-rule="evenodd"/>
						<path id="Shape" d="M44.03 342.99L44.08 159.99L45.27 159.99L45.22 342.99L44.03 342.99Z" fill="#F1F1F5" fill-opacity="1.000000" fill-rule="evenodd"/>
						<path id="Shape" d="M44.08 159.99L45.27 159.99L45.22 342.99L44.03 342.99L44.08 159.99Z" stroke="#979797" stroke-opacity="0" stroke-width="0.000000"/>
					</g>
					<rect id="Feb" rx="-0.500000" width="28.280001" height="205.000000" transform="translate(-23.750000 160.474609) rotate(0.015818)" fill="#FFFFFF" fill-opacity="0"/>
					<g clip-path="url(#clip1_2588)">
						<path id="Feb" d="M-1.24 346.47Q-0.58 345.59 -0.58 344.13L-0.58 344.04Q-0.57 342.52 -1.23 341.65Q-1.52 341.27 -1.9 341.06Q-2.39 340.77 -3.05 340.77Q-3.77 340.77 -4.3 341.1Q-4.62 341.29 -4.86 341.59L-4.86 338.23L-5.94 338.23L-5.94 347.23L-4.95 347.23L-4.89 346.5Q-4.66 346.8 -4.36 347Q-3.81 347.35 -3.04 347.35Q-2.45 347.35 -1.99 347.11Q-1.56 346.89 -1.24 346.47ZM-17.69 343.46L-14.11 343.46L-14.11 342.54L-17.69 342.54L-17.68 339.62L-13.52 339.62L-13.52 338.7L-18.81 338.7L-18.81 347.23L-17.69 347.23L-17.69 343.46ZM-11.23 346.99Q-10.6 347.35 -9.76 347.35Q-8.81 347.35 -8.14 346.91Q-7.69 346.62 -7.36 346.12L-8.03 345.61Q-8.29 345.95 -8.63 346.17Q-8.68 346.2 -8.72 346.23Q-9.12 346.46 -9.7 346.46Q-10.15 346.46 -10.51 346.28Q-10.8 346.14 -11.03 345.88Q-11.1 345.8 -11.17 345.71Q-11.56 345.17 -11.58 344.37L-7.28 344.37L-7.28 343.92Q-7.28 342.4 -7.97 341.59Q-8.17 341.35 -8.42 341.18Q-9.02 340.77 -9.89 340.77Q-10.22 340.77 -10.53 340.85Q-10.93 340.96 -11.29 341.19Q-11.47 341.31 -11.62 341.44Q-12.04 341.81 -12.3 342.35Q-12.66 343.09 -12.66 344.04L-12.66 344.23Q-12.66 345.41 -12.11 346.19Q-11.99 346.35 -11.85 346.5Q-11.57 346.79 -11.23 346.99ZM-10.5 341.79Q-10.22 341.66 -9.89 341.66Q-9.43 341.66 -9.1 341.87Q-8.94 341.97 -8.81 342.12Q-8.41 342.57 -8.37 343.4L-8.37 343.48L-11.54 343.48Q-11.44 342.62 -10.99 342.14Q-10.77 341.91 -10.5 341.79ZM-2.09 342.3Q-1.66 342.9 -1.66 344.01Q-1.66 345.22 -2.09 345.83Q-2.29 346.09 -2.55 346.24Q-2.87 346.43 -3.31 346.43Q-3.78 346.43 -4.14 346.23Q-4.59 345.98 -4.86 345.43L-4.86 342.69Q-4.61 342.17 -4.2 341.92Q-3.83 341.69 -3.32 341.69Q-2.84 341.69 -2.49 341.91Q-2.26 342.05 -2.09 342.3Z" fill="#92929D" fill-opacity="1.000000" fill-rule="evenodd"/>
						<path id="Shape" d="M-8.43 342.97L-8.38 159.97L-7.19 159.97L-7.24 342.97L-8.43 342.97Z" fill="#F1F1F5" fill-opacity="1.000000" fill-rule="evenodd"/>
						<path id="Shape" d="M-8.38 159.97L-7.19 159.97L-7.24 342.97L-8.43 342.97L-8.38 159.97Z" stroke="#979797" stroke-opacity="0" stroke-width="0.000000"/>
					</g>
					<rect id="Jan" rx="-0.500000" width="28.280001" height="205.000000" transform="translate(-77.429932 160.459717) rotate(0.015818)" fill="#FFFFFF" fill-opacity="0"/>
					<g clip-path="url(#clip1_2591)">
						<path id="Jan" d="M-67.87 338.68L-69 338.68L-69 344.74Q-69.01 345.46 -69.36 345.89Q-69.4 345.93 -69.44 345.97Q-69.57 346.1 -69.72 346.19Q-70.08 346.41 -70.57 346.41Q-71.27 346.41 -71.66 346.06Q-71.7 346.03 -71.73 346Q-71.77 345.96 -71.81 345.91Q-72.13 345.51 -72.13 344.86L-73.26 344.86Q-73.26 345.78 -72.81 346.38Q-72.7 346.54 -72.55 346.68Q-72.52 346.7 -72.5 346.72Q-71.8 347.33 -70.57 347.33Q-69.54 347.33 -68.86 346.85Q-68.73 346.75 -68.61 346.64Q-68.45 346.5 -68.33 346.33Q-67.87 345.69 -67.87 344.72L-67.87 338.68ZM-62.28 346.55Q-62.22 347.03 -62.13 347.22L-60.99 347.22L-60.99 347.12Q-61.21 346.61 -61.21 345.73L-61.21 342.82Q-61.23 342.12 -61.56 341.64Q-61.68 341.46 -61.85 341.31Q-61.86 341.3 -61.87 341.3Q-62.49 340.76 -63.57 340.76Q-64.26 340.76 -64.83 341.01Q-64.84 341.01 -64.84 341.02Q-65.41 341.27 -65.75 341.71Q-65.75 341.71 -65.75 341.72Q-66.05 342.1 -66.09 342.51Q-66.09 342.57 -66.09 342.63L-65 342.63Q-65 342.51 -64.97 342.39Q-64.88 342.13 -64.61 341.92Q-64.57 341.89 -64.53 341.87Q-64.16 341.63 -63.64 341.63Q-62.99 341.63 -62.65 341.96Q-62.64 341.96 -62.63 341.97Q-62.56 342.04 -62.5 342.13Q-62.29 342.43 -62.29 342.87L-62.29 343.37L-63.35 343.37Q-64.71 343.37 -65.47 343.92Q-65.79 344.15 -65.97 344.47Q-66.22 344.89 -66.22 345.46Q-66.22 345.88 -66.06 346.23Q-65.91 346.55 -65.62 346.8Q-65.5 346.91 -65.37 346.99Q-64.83 347.33 -64.08 347.33Q-63.62 347.33 -63.22 347.18Q-62.7 346.99 -62.28 346.55ZM-58.36 341.67L-58.4 340.88L-59.42 340.88L-59.43 347.22L-58.34 347.22L-58.34 342.7Q-58.19 342.39 -57.97 342.17Q-57.85 342.05 -57.72 341.96Q-57.6 341.88 -57.48 341.82Q-57.17 341.68 -56.79 341.68Q-56.15 341.68 -55.84 342Q-55.84 342.01 -55.84 342.01Q-55.53 342.34 -55.52 343.02L-55.52 347.22L-54.44 347.22L-54.44 343.03Q-54.45 341.76 -55.08 341.2Q-55.58 340.76 -56.47 340.76Q-57.06 340.76 -57.54 340.99Q-58 341.22 -58.36 341.67ZM-63.55 346.35Q-63.73 346.39 -63.92 346.39Q-64.38 346.39 -64.7 346.18Q-64.75 346.14 -64.8 346.1Q-64.9 346.01 -64.98 345.9Q-65.14 345.66 -65.14 345.3Q-65.14 345.01 -65.01 344.79Q-64.63 344.14 -63.14 344.14L-62.29 344.14L-62.3 345.44Q-62.33 345.51 -62.37 345.58Q-62.58 345.91 -62.96 346.13Q-63.24 346.29 -63.55 346.35Z" fill="#92929D" fill-opacity="1.000000" fill-rule="evenodd"/>
						<path id="Shape" d="M-63.33 342.96L-63.28 159.96L-62.09 159.96L-62.14 342.96L-63.33 342.96Z" fill="#F1F1F5" fill-opacity="1.000000" fill-rule="evenodd"/>
						<path id="Shape" d="M-63.28 159.96L-62.09 159.96L-62.14 342.96L-63.33 342.96L-63.28 159.96Z" stroke="#979797" stroke-opacity="0" stroke-width="0.000000"/>
					</g>
					<g filter="url(#filter_1_2595_dd)">
						<path id="Rectangle 2964" d="M279.56 156.05L327.56 156.07C334.18 156.07 339.56 161.44 339.55 168.07L339.55 182.07C339.55 188.7 334.17 194.07 327.55 194.07L267.55 194.05L267.55 168.05C267.56 161.42 272.93 156.05 279.56 156.05Z" fill="#FFFFFF" fill-opacity="1.000000" fill-rule="nonzero"/>
					</g>
					<path id="820" d="M305.86 177.19C305.85 178.85 304.28 180.06 302.07 180.06C299.85 180.06 298.28 178.84 298.29 177.19C298.28 175.91 299.21 174.85 300.42 174.65L300.42 174.58C299.37 174.35 298.66 173.43 298.67 172.33C298.66 170.75 300.1 169.59 302.08 169.6C304.04 169.6 305.48 170.76 305.48 172.33C305.48 173.43 304.76 174.35 303.73 174.58L303.73 174.65C304.91 174.85 305.85 175.92 305.86 177.19ZM314.48 179.92L307.5 179.92L307.5 178.59L311.03 175.12C312.04 174.1 312.56 173.5 312.56 172.65C312.56 171.69 311.84 171.09 310.86 171.09C309.85 171.09 309.2 171.75 309.2 172.79L307.44 172.79C307.44 170.85 308.87 169.6 310.89 169.6C312.94 169.6 314.33 170.85 314.33 172.55C314.33 173.7 313.78 174.63 311.8 176.53L310.04 178.31L310.04 178.38L314.48 178.38L314.48 179.92ZM323.88 174.84C323.88 178.18 322.42 180.12 319.96 180.12C317.5 180.12 316.04 178.17 316.04 174.84C316.05 171.51 317.52 169.6 319.97 169.6C322.41 169.6 323.89 171.52 323.88 174.84ZM300.46 172.5C300.45 173.39 301.13 174 302.08 174C303.01 174 303.68 173.39 303.69 172.5C303.68 171.63 303.02 171.04 302.08 171.04C301.11 171.04 300.45 171.62 300.46 172.5ZM317.91 174.84C317.9 177.29 318.69 178.56 319.96 178.56C321.23 178.56 322.02 177.29 322.02 174.84C322.02 172.42 321.23 171.14 319.96 171.14C318.7 171.14 317.91 172.42 317.91 174.84ZM300.19 177.06C300.18 178 300.92 178.64 302.07 178.64C303.21 178.64 303.95 178 303.96 177.06C303.95 176.09 303.16 175.39 302.08 175.39C300.98 175.39 300.18 176.09 300.19 177.06Z" fill="#1D1E25" fill-opacity="1.000000" fill-rule="evenodd"/>
					<rect id="Rectangle 6945" x="278.557129" y="170.200928" rx="2.000000" width="10.000000" height="10.000000" transform="rotate(0.0158183 278.557129 170.200928)" fill="#2280FF" fill-opacity="1.000000"/>
				</g>
				<g mask="url(#mask1_2555)">
					<path id="Vector 3" d="M70.53 253.88C75.03 255.73 85.66 260.88 92.22 266.7C100.41 273.97 126.92 281.94 142.83 264.63C158.74 247.33 165.97 241.1 177.54 241.1C189.11 241.11 196.82 238.69 209.84 220.69C222.86 202.69 227.11 194 243.11 194.04C258.57 194.09 266.4 204.78 270.1 210.67L278.77 224.17C282.3 229.83 291.8 239.4 305.72 240.43C319.63 241.45 330.33 236.28 341.43 227.65C351.77 219.61 369.87 211.04 385.29 227.66C397.63 240.96 403.93 245.67 405.53 246.36" stroke="#2280FF" stroke-opacity="1.000000" stroke-width="3.000000" stroke-linecap="round"/>
					<path id="Vector 4" d="M46.53 260.61C51.74 261.96 64.06 265.71 71.65 269.95C81.14 275.24 111.84 281.05 130.27 268.45C148.69 255.85 157.07 251.31 170.47 251.32C183.87 251.32 192.8 249.56 207.88 236.45C222.95 223.34 227.87 217.01 246.4 217.04C264.32 217.08 273.38 224.87 277.66 229.16L287.71 238.99C291.8 243.11 302.81 250.09 318.92 250.84C335.04 251.59 347.43 247.82 360.28 241.53C372.25 235.68 393.22 229.44 411.09 241.55C425.37 251.23 432.67 254.67 434.53 255.17" stroke="#FF5555" stroke-opacity="1.000000" stroke-width="3.000000" stroke-linecap="round"/>
				</g>
				<rect id="Rectangle" x="79.451172" y="156.003174" width="59.779999" height="203.000000" transform="rotate(0.0158183 79.451172 156.003174)" fill="#FFFFFF" fill-opacity="1.000000"/>
				<rect id="Rectangle" x="79.451172" y="156.003174" width="59.779999" height="203.000000" transform="rotate(0.0158183 79.451172 156.003174)" stroke="#979797" stroke-opacity="0" stroke-width="0.000000"/>
				<rect id="Group 8" rx="-0.500000" width="16.080000" height="23.000000" transform="translate(90.930664 158.506348) rotate(0.015818)" fill="#FFFFFF" fill-opacity="0"/>
				<g clip-path="url(#clip1_2603)">
					<path id="1k" d="M93.95 165.28L95.01 165.28L95 174L93.95 174L93.95 166.38L93.9 166.38L91.77 167.8L91.77 166.72L93.95 165.28ZM98.62 174L97.61 174L97.61 165.28L98.62 165.28L98.62 170.37L98.74 170.37L101.6 167.46L102.85 167.46L100.08 170.25L103.05 174.01L101.77 174.01L99.32 170.9L98.62 171.55L98.62 174Z" fill="#808D9E" fill-opacity="1.000000" fill-rule="evenodd"/>
				</g>
				<rect id="Group 8 Copy 9" rx="-0.500000" width="9.980000" height="23.000000" transform="translate(98.203613 328.508301) rotate(0.015818)" fill="#FFFFFF" fill-opacity="0"/>
				<g clip-path="url(#clip1_2605)">
					<path id="0" d="M105.09 339.64C105.09 342.49 103.98 344.13 102.05 344.13C100.13 344.12 99.02 342.49 99.02 339.64C99.02 336.81 100.15 335.16 102.06 335.16C103.97 335.16 105.09 336.81 105.09 339.64ZM100.04 339.64C100.04 341.91 100.79 343.19 102.06 343.19C103.32 343.19 104.07 341.91 104.07 339.64C104.07 337.38 103.32 336.08 102.06 336.08C100.79 336.08 100.04 337.37 100.04 339.64Z" fill="#808D9E" fill-opacity="1.000000" fill-rule="evenodd"/>
				</g>
				<rect id="Group 8 Copy 10" rx="-0.500000" width="28.280001" height="23.000000" transform="translate(79.913086 294.503174) rotate(0.015818)" fill="#FFFFFF" fill-opacity="0"/>
				<g clip-path="url(#clip1_2607)">
					<path id="200" d="M87.64 310L82.14 310L82.14 309.23L85.02 306.08C86.03 304.98 86.5 304.38 86.5 303.57C86.5 302.65 85.78 302.07 84.83 302.07C83.82 302.07 83.18 302.73 83.18 303.73L82.17 303.73C82.17 302.19 83.34 301.15 84.87 301.15C86.4 301.15 87.49 302.23 87.49 303.58C87.49 304.54 87.05 305.29 85.55 306.9L83.59 308.99L83.59 309.06L87.64 309.06L87.64 310ZM95.37 305.64C95.37 308.49 94.26 310.12 92.33 310.12C90.41 310.12 89.3 308.49 89.3 305.64C89.3 302.81 90.42 301.15 92.33 301.15C94.24 301.16 95.37 302.81 95.37 305.64ZM102.95 305.64C102.95 308.49 101.84 310.12 99.92 310.12C97.99 310.12 96.88 308.49 96.88 305.64C96.88 302.81 98.01 301.16 99.92 301.16C101.83 301.16 102.95 302.81 102.95 305.64ZM90.32 305.64C90.32 307.91 91.06 309.18 92.33 309.18C93.6 309.19 94.34 307.91 94.34 305.64C94.35 303.37 93.6 302.08 92.33 302.08C91.07 302.08 90.32 303.37 90.32 305.64ZM97.91 305.64C97.9 307.91 98.65 309.19 99.92 309.19C101.19 309.19 101.93 307.91 101.93 305.64C101.93 303.37 101.18 302.08 99.92 302.08C98.66 302.08 97.91 303.37 97.91 305.64Z" fill="#808D9E" fill-opacity="1.000000" fill-rule="evenodd"/>
				</g>
				<rect id="Group 8 Copy 3" rx="-0.500000" width="28.280001" height="23.000000" transform="translate(79.922607 260.503174) rotate(0.015818)" fill="#FFFFFF" fill-opacity="0"/>
				<g clip-path="url(#clip1_2609)">
					<path id="400" d="M95.82 271.64C95.82 274.49 94.71 276.12 92.78 276.12C90.86 276.12 89.75 274.49 89.75 271.64C89.75 268.81 90.88 267.15 92.79 267.15C94.7 267.16 95.82 268.81 95.82 271.64ZM103.41 271.64C103.41 274.49 102.29 276.13 100.37 276.12C98.44 276.12 97.33 274.49 97.34 271.64C97.34 268.81 98.46 267.16 100.37 267.16C102.28 267.16 103.41 268.81 103.41 271.64ZM86.05 274.21L81.94 274.21L81.94 273.34L85.78 267.27L87.06 267.27L87.06 273.27L88.25 273.27L88.25 274.21L87.06 274.21L87.06 276L86.05 276L86.05 274.21ZM90.77 271.64C90.77 273.91 91.52 275.18 92.78 275.18C94.05 275.19 94.8 273.91 94.8 271.64C94.8 269.37 94.05 268.08 92.79 268.08C91.52 268.08 90.77 269.37 90.77 271.64ZM98.36 271.64C98.36 273.91 99.1 275.19 100.37 275.19C101.64 275.19 102.38 273.91 102.38 271.64C102.38 269.38 101.63 268.08 100.37 268.08C99.11 268.08 98.36 269.37 98.36 271.64ZM83.08 273.27L86.05 273.27L86.05 268.62L85.98 268.62L83.08 273.2L83.08 273.27Z" fill="#808D9E" fill-opacity="1.000000" fill-rule="evenodd"/>
				</g>
				<rect id="Group 8 Copy 5" rx="-0.500000" width="28.280001" height="23.000000" transform="translate(79.931885 226.503174) rotate(0.015818)" fill="#FFFFFF" fill-opacity="0"/>
				<g clip-path="url(#clip1_2611)">
					<path id="600" d="M87.97 239.19C87.97 240.81 86.82 242.14 85.05 242.12C83.62 242.1 82.02 241.2 82.02 237.98C82.02 234.89 83.23 233.15 85.19 233.15C86.66 233.15 87.69 234.1 87.9 235.46L86.86 235.46C86.67 234.67 86.11 234.09 85.19 234.09C83.84 234.09 83.02 235.32 83.01 237.45L83.08 237.45C83.55 236.73 84.33 236.29 85.23 236.29C86.72 236.29 87.97 237.5 87.97 239.19ZM95.61 237.64C95.61 240.49 94.5 242.12 92.57 242.12C90.65 242.12 89.54 240.49 89.54 237.64C89.54 234.81 90.66 233.15 92.57 233.15C94.48 233.16 95.61 234.81 95.61 237.64ZM103.19 237.64C103.19 240.49 102.08 242.13 100.16 242.12C98.23 242.12 97.12 240.49 97.12 237.64C97.12 234.81 98.25 233.16 100.16 233.16C102.07 233.16 103.19 234.81 103.19 237.64ZM90.56 237.64C90.56 239.91 91.3 241.18 92.57 241.18C93.84 241.19 94.58 239.91 94.59 237.64C94.59 235.37 93.84 234.08 92.57 234.08C91.31 234.08 90.56 235.37 90.56 237.64ZM98.15 237.64C98.14 239.91 98.89 241.19 100.16 241.19C101.43 241.19 102.17 239.91 102.17 237.64C102.17 235.38 101.42 234.08 100.16 234.08C98.9 234.08 98.15 235.37 98.15 237.64ZM83.16 239.2C83.16 240.25 83.96 241.18 85.05 241.18C86.12 241.18 86.95 240.3 86.95 239.19C86.95 238.11 86.16 237.23 85.09 237.23C84.01 237.23 83.17 238.16 83.16 239.2Z" fill="#808D9E" fill-opacity="1.000000" fill-rule="evenodd"/>
				</g>
				<rect id="Group 8 Copy 7" rx="-0.500000" width="28.280001" height="23.000000" transform="translate(79.941406 192.503174) rotate(0.015818)" fill="#FFFFFF" fill-opacity="0"/>
				<g clip-path="url(#clip1_2613)">
					<path id="800" d="M87.93 205.68C87.92 207.1 86.7 208.12 84.96 208.12C83.2 208.12 81.99 207.1 81.99 205.68C81.99 204.58 82.72 203.64 83.68 203.46L83.68 203.41C82.85 203.2 82.31 202.4 82.32 201.47C82.31 200.14 83.43 199.15 84.96 199.15C86.48 199.15 87.6 200.14 87.6 201.47C87.59 202.4 87.06 203.2 86.24 203.42L86.24 203.47C87.18 203.64 87.92 204.58 87.93 205.68ZM95.53 203.64C95.53 206.49 94.42 208.12 92.5 208.12C90.57 208.12 89.46 206.49 89.46 203.64C89.46 200.81 90.59 199.15 92.5 199.15C94.41 199.16 95.53 200.81 95.53 203.64ZM103.12 203.64C103.12 206.49 102.01 208.13 100.08 208.12C98.16 208.12 97.05 206.49 97.05 203.64C97.05 200.81 98.17 199.16 100.08 199.16C101.99 199.16 103.12 200.81 103.12 203.64ZM83.34 201.54C83.33 202.44 84.01 203.04 84.96 203.04C85.9 203.04 86.57 202.44 86.58 201.54C86.57 200.65 85.93 200.08 84.96 200.08C83.98 200.08 83.34 200.65 83.34 201.54ZM90.48 203.64C90.48 205.91 91.23 207.18 92.5 207.18C93.76 207.19 94.51 205.91 94.51 203.64C94.51 201.37 93.76 200.08 92.5 200.08C91.23 200.08 90.48 201.37 90.48 203.64ZM98.07 203.64C98.07 205.91 98.81 207.19 100.08 207.19C101.35 207.19 102.09 205.91 102.1 203.64C102.1 201.38 101.35 200.08 100.08 200.08C98.82 200.08 98.07 201.37 98.07 203.64ZM83.03 205.63C83.03 206.57 83.76 207.18 84.96 207.18C86.14 207.18 86.88 206.57 86.89 205.63C86.88 204.65 86.06 203.94 84.96 203.94C83.84 203.94 83.03 204.65 83.03 205.63Z" fill="#808D9E" fill-opacity="1.000000" fill-rule="evenodd"/>
				</g>
				<g filter="url(#filter_1_2616_dd)">
					<rect id="Selector" x="251.551758" y="190.050781" rx="7.000000" width="14.000000" height="14.000000" transform="rotate(0.0158183 251.551758 190.050781)" fill="#2280FF" fill-opacity="1.000000"/>
					<rect id="Selector" x="252.551514" y="191.051025" rx="6.000000" width="12.000000" height="12.000000" transform="rotate(0.0158183 252.551514 191.051025)" stroke="#FFFFFF" stroke-opacity="1.000000" stroke-width="2.000000"/>
				</g>
				<rect id="Shape" x="249.041016" y="121.050049" rx="2.000000" width="12.200000" height="10.000000" transform="rotate(0.0158183 249.041016 121.050049)" fill="#FF5555" fill-opacity="1.000000"/>
				<path id="Cases Sales" d="M322.98 121.36C322.98 121.8 322.6 122.16 322.15 122.16C321.69 122.16 321.31 121.8 321.31 121.36C321.31 120.92 321.69 120.57 322.15 120.57C322.6 120.57 322.98 120.92 322.98 121.36ZM276.32 120.73C278.38 120.73 280.04 121.97 280.42 124.05L279.19 124.05C278.89 122.64 277.68 121.89 276.32 121.89C274.48 121.89 273.02 123.32 273.02 125.96C273.02 128.6 274.47 130.04 276.32 130.04C277.68 130.04 278.89 129.28 279.19 127.87L280.42 127.87C280.04 129.96 278.37 131.19 276.32 131.19C273.72 131.19 271.83 129.18 271.83 125.96C271.83 122.74 273.72 120.73 276.32 120.73ZM318.65 123.43L320.28 123.43L320.28 124.42L318.65 124.42L318.65 128.88C318.65 129.87 319.14 130.03 319.66 130.03C319.92 130.03 320.08 129.99 320.18 129.97L320.42 131.02C320.26 131.09 319.98 131.16 319.54 131.16C318.55 131.16 317.47 130.53 317.47 129.19L317.47 124.42L316.32 124.42L316.32 123.43L317.47 123.43L317.47 121.6L318.65 121.6L318.65 123.43ZM326.06 123.43L327.69 123.43L327.69 124.43L326.06 124.43L326.06 128.88C326.06 129.87 326.56 130.03 327.07 130.03C327.33 130.03 327.49 129.99 327.59 129.97L327.83 131.03C327.67 131.09 327.39 131.17 326.96 131.17C325.96 131.17 324.88 130.53 324.88 129.2L324.89 124.43L323.73 124.43L323.73 123.43L324.89 123.43L324.89 121.6L326.06 121.6L326.06 123.43ZM337.9 131.07L336.73 131.07L336.73 123.43L337.87 123.43L337.87 124.59L337.95 124.59C338.23 123.83 339.02 123.32 339.94 123.32C340.11 123.32 340.42 123.33 340.55 123.34L340.55 124.53C340.47 124.51 340.15 124.45 339.84 124.45C338.72 124.45 337.91 125.2 337.91 126.24L337.9 131.07ZM288.31 127.28C288.31 129.64 286.92 131.22 284.85 131.22C282.78 131.22 281.39 129.64 281.39 127.28C281.39 124.89 282.79 123.32 284.85 123.32C286.92 123.32 288.31 124.89 288.31 127.28ZM290.77 131.06L289.6 131.06L289.6 123.42L290.74 123.42L290.74 124.61L290.84 124.61C291.15 123.8 291.89 123.32 292.88 123.32C293.89 123.32 294.56 123.8 294.93 124.62L295.01 124.62C295.41 123.83 296.21 123.32 297.3 123.32C298.66 123.32 299.63 124.16 299.63 125.95L299.63 131.06L298.45 131.06L298.45 125.95C298.45 124.82 297.74 124.38 296.9 124.38C295.83 124.38 295.21 125.1 295.21 126.09L295.21 131.06L294.02 131.06L294.02 125.83C294.02 124.96 293.4 124.38 292.51 124.38C291.59 124.38 290.77 125.16 290.77 126.29L290.77 131.06ZM302.44 133.92L301.27 133.92L301.27 123.42L302.41 123.42L302.41 124.64L302.55 124.64C302.8 124.24 303.26 123.33 304.75 123.33C306.68 123.33 308.02 124.86 308.02 127.26C308.01 129.69 306.68 131.22 304.77 131.22C303.3 131.22 302.8 130.31 302.55 129.89L302.44 129.89L302.44 133.92ZM315.55 129.29C315.19 130.45 314.06 131.22 312.51 131.22C310.3 131.22 308.94 129.65 308.94 127.3C308.95 124.96 310.32 123.33 312.39 123.33C313.98 123.33 315.67 124.3 315.67 127.15L315.67 127.64L310.12 127.64C310.18 129.28 311.13 130.17 312.51 130.17C313.42 130.17 314.12 129.77 314.41 128.98L315.55 129.29ZM335.44 127.29C335.44 129.66 334.05 131.23 331.98 131.23C329.91 131.23 328.52 129.66 328.52 127.29C328.52 124.9 329.92 123.33 331.98 123.33C334.05 123.33 335.44 124.9 335.44 127.29ZM322.72 131.07L321.55 131.07L321.55 123.43L322.72 123.43L322.72 131.07ZM282.57 127.28C282.57 128.81 283.28 130.16 284.85 130.16C286.42 130.16 287.14 128.81 287.14 127.28C287.14 125.75 286.42 124.37 284.85 124.37C283.28 124.37 282.57 125.75 282.57 127.28ZM304.62 124.38C303.18 124.38 302.43 125.53 302.43 127.24C302.43 128.97 303.2 130.17 304.61 130.17C306.08 130.17 306.84 128.87 306.84 127.24C306.84 125.63 306.11 124.38 304.62 124.38ZM312.39 124.38C311.04 124.38 310.2 125.44 310.12 126.63L314.48 126.63C314.48 125.34 313.66 124.38 312.39 124.38ZM329.7 127.29C329.7 128.82 330.41 130.17 331.98 130.17C333.55 130.17 334.27 128.82 334.27 127.29C334.27 125.76 333.55 124.39 331.98 124.39C330.41 124.39 329.7 125.76 329.7 127.29Z" fill="#1D1E25" fill-opacity="1.000000" fill-rule="evenodd"/>
				<rect id="Shape" x="80.680908" y="121.003662" rx="2.000000" width="12.200000" height="10.000000" transform="rotate(0.0158183 80.680908 121.003662)" fill="#2280FF" fill-opacity="1.000000"/>
				<rect id="Shape" x="80.680908" y="121.003662" rx="2.000000" width="12.200000" height="10.000000" transform="rotate(0.0158183 80.680908 121.003662)" stroke="#979797" stroke-opacity="0" stroke-width="0.000000"/>
				<path id="Marketing Sales" d="M103.87 131L103.87 120.82L105.34 120.82L108.8 129.28L108.92 129.28L112.38 120.83L113.85 120.83L113.85 131.01L112.7 131.01L112.7 123.27L112.6 123.27L109.41 131.01L108.3 131.01L105.12 123.27L105.02 123.27L105.02 131L103.87 131ZM151.85 129.85C151.6 130.26 151.1 131.18 149.63 131.18C147.72 131.18 146.39 129.65 146.39 127.22C146.39 124.81 147.72 123.28 149.65 123.28C151.14 123.28 151.6 124.2 151.86 124.6L151.96 124.6L151.96 120.84L153.13 120.84L153.13 131.02L151.99 131.02L151.99 129.85L151.85 129.85ZM171.58 123.39L173.21 123.39L173.21 124.38L171.58 124.38L171.58 128.84C171.58 129.83 172.07 129.99 172.59 129.99C172.85 129.99 173.01 129.95 173.11 129.93L173.35 130.98C173.18 131.05 172.91 131.12 172.47 131.12C171.48 131.12 170.4 130.49 170.4 129.15L170.4 124.38L169.25 124.38L169.25 123.39L170.4 123.39L170.4 121.56L171.58 121.56L171.58 123.39ZM135.59 131.01L134.42 131.01L134.42 123.38L135.56 123.38L135.56 124.53L135.64 124.53C135.92 123.78 136.71 123.26 137.62 123.26C137.8 123.26 138.11 123.27 138.24 123.28L138.24 124.47C138.16 124.45 137.84 124.39 137.53 124.39C136.41 124.39 135.59 125.15 135.59 126.18L135.59 131.01ZM127.56 133.88L126.39 133.88L126.39 123.38L127.53 123.38L127.53 124.59L127.67 124.59C127.92 124.19 128.38 123.28 129.87 123.28C131.8 123.28 133.13 124.81 133.13 127.22C133.13 129.64 131.8 131.17 129.89 131.17C128.42 131.17 127.92 130.26 127.66 129.84L127.56 129.84L127.56 133.88ZM145.46 127.24C145.45 129.61 144.06 131.18 142 131.18C139.93 131.18 138.53 129.6 138.53 127.24C138.53 124.85 139.93 123.28 142 123.28C144.07 123.28 145.46 124.85 145.46 127.24ZM168.67 128.79C168.47 130.15 167.36 131.18 165.67 131.18C163.52 131.18 162.21 129.53 162.21 127.24C162.21 124.92 163.58 123.29 165.65 123.29C167.26 123.29 168.48 124.24 168.67 125.67L167.5 125.67C167.32 124.98 166.71 124.34 165.67 124.34C164.3 124.34 163.39 125.47 163.39 127.2C163.39 128.97 164.28 130.13 165.67 130.13C166.58 130.13 167.28 129.63 167.5 128.79L168.67 128.79ZM118.66 132.12C118.22 133.31 117.47 133.87 116.41 133.87C116.01 133.87 115.68 133.79 115.56 133.73L115.85 132.7C116.71 132.92 117.24 132.81 117.67 131.64L117.88 131.05L115.06 123.37L116.33 123.37L118.44 129.46L118.52 129.46L120.63 123.37L121.9 123.37L118.66 132.12ZM157.78 129.98C158.65 129.99 159.75 129.33 159.75 127.9L159.75 123.39L160.92 123.39L160.92 131.02L159.75 131.02L159.75 129.73L159.67 129.73C159.31 130.5 158.55 131.12 157.4 131.12C155.97 131.12 154.93 130.19 154.93 128.23L154.94 123.38L156.11 123.38L156.11 128.16C156.11 129.27 156.8 129.98 157.78 129.98ZM129.73 124.33C128.3 124.33 127.55 125.49 127.55 127.19C127.54 128.92 128.32 130.12 129.73 130.12C131.2 130.12 131.96 128.83 131.96 127.2C131.96 125.59 131.22 124.33 129.73 124.33ZM139.71 127.24C139.71 128.77 140.42 130.12 142 130.12C143.56 130.12 144.28 128.77 144.28 127.24C144.28 125.71 143.57 124.33 142 124.33C140.42 124.33 139.71 125.71 139.71 127.24ZM147.56 127.2C147.56 128.83 148.32 130.12 149.79 130.12C151.2 130.12 151.97 128.93 151.97 127.2C151.97 125.49 151.22 124.34 149.79 124.34C148.3 124.34 147.56 125.59 147.56 127.2Z" fill="#1D1E25" fill-opacity="1.000000" fill-rule="evenodd"/>
			</g>
		</g>
	</g>
</svg>
