<svg width="140.000000" height="66.000000" viewBox="0 0 140 66" fill="none" xmlns="http://www.w3.org/2000/svg" xmlns:xlink="http://www.w3.org/1999/xlink">
	<desc>
			Created with Pixso.
	</desc>
	<defs/>
	<path d="M72.72 38.35L68.14 35.98C67.67 36.48 67.11 36.89 66.46 37.2Q66.02 37.39 65.56 37.5Q65 37.63 64.4 37.63Q63.45 37.63 62.62 37.32L62.62 37.32Q62.13 37.14 61.69 36.86Q61.17 36.52 60.74 36.09Q60.18 35.53 59.78 34.8Q59.46 34.22 59.29 33.6Q59.07 32.84 59.07 32.02Q59.07 31.03 59.37 30.15L59.37 30.15L59.37 30.15L59.37 30.15Q59.53 29.67 59.78 29.23Q60.21 28.43 60.83 27.83Q61.23 27.45 61.69 27.15Q62.17 26.84 62.69 26.65L62.69 26.65Q63.49 26.36 64.4 26.36Q64.74 26.36 65.08 26.4Q65.76 26.5 66.41 26.79Q66.97 27.04 67.45 27.4L67.45 27.4Q67.82 27.68 68.14 28.03L72.72 25.68Q72.16 24.93 71.49 24.31L71.49 24.31Q70.44 23.32 69.12 22.63Q68.47 22.29 67.78 22.05L67.78 22.05Q66.19 21.5 64.4 21.5Q62.83 21.5 61.39 21.93L61.39 21.93L61.39 21.93Q60.87 22.09 60.36 22.31Q59.3 22.77 58.38 23.43L58.38 23.43Q57.66 23.94 57.03 24.58Q56.63 24.99 56.28 25.43L56.28 25.43Q55.39 26.56 54.81 27.93Q54.71 28.16 54.62 28.4Q54 30.09 54 32.02Q54 33.91 54.6 35.6L54.6 35.6Q54.91 36.47 55.39 37.29Q56.13 38.54 57.14 39.53L57.14 39.53Q58.04 40.41 59.15 41.08C60.73 42.02 62.48 42.5 64.4 42.5Q66.19 42.5 67.78 41.94L67.78 41.94Q68.47 41.7 69.12 41.36Q70.61 40.58 71.75 39.45L71.75 39.45L71.75 39.45Q72.27 38.94 72.72 38.35ZM79.71 41.08C81.29 42.02 83.04 42.5 84.95 42.5C86.4 42.5 87.74 42.22 88.99 41.68C90.25 41.13 91.35 40.38 92.3 39.43C93.25 38.46 94 37.34 94.54 36.08C95.09 34.82 95.36 33.46 95.36 32.02C95.36 30.08 94.88 28.31 93.94 26.72Q93.23 25.5 92.27 24.53L92.27 24.53Q91.34 23.6 90.18 22.91Q89.37 22.43 88.5 22.11L88.5 22.11L88.5 22.11Q86.84 21.5 84.95 21.5Q83.38 21.5 81.95 21.93L81.95 21.93L81.95 21.93Q81.42 22.09 80.92 22.31Q79.86 22.77 78.94 23.43L78.94 23.43L78.94 23.43Q78.22 23.95 77.59 24.58Q77.19 24.99 76.84 25.43Q75.95 26.56 75.36 27.93Q75.26 28.16 75.18 28.4Q74.55 30.09 74.55 32.02Q74.55 33.91 75.15 35.6L75.15 35.6L75.16 35.6Q75.47 36.48 75.95 37.29C76.89 38.88 78.15 40.14 79.71 41.08ZM111.57 35.98L116.15 38.35Q115.7 38.94 115.18 39.45Q114.04 40.58 112.55 41.36Q111.9 41.7 111.22 41.94Q109.62 42.5 107.83 42.5C105.92 42.5 104.17 42.02 102.59 41.08C101.02 40.14 99.76 38.88 98.82 37.29C97.89 35.7 97.43 33.94 97.43 32.02C97.43 30.55 97.7 29.19 98.24 27.93Q98.82 26.56 99.71 25.43Q100.07 24.99 100.47 24.58Q101.1 23.94 101.81 23.43Q102.73 22.77 103.79 22.31Q104.3 22.09 104.82 21.93L104.82 21.93L104.82 21.93Q106.26 21.5 107.83 21.5Q109.62 21.5 111.22 22.05Q111.9 22.29 112.55 22.63Q113.87 23.32 114.92 24.31Q115.59 24.93 116.15 25.68L111.57 28.03C111.09 27.5 110.51 27.09 109.85 26.79C109.2 26.5 108.52 26.36 107.83 26.36C106.83 26.36 105.93 26.62 105.12 27.15C104.32 27.67 103.68 28.36 103.21 29.23C102.74 30.08 102.5 31.01 102.5 32.02C102.5 33.01 102.74 33.94 103.21 34.8C103.68 35.65 104.32 36.34 105.12 36.86C105.93 37.37 106.83 37.63 107.83 37.63C108.55 37.63 109.24 37.49 109.89 37.2C110.54 36.89 111.1 36.48 111.57 35.98ZM140 22.05L134.92 22.05L135.15 24.6C134.39 23.7 133.46 22.96 132.36 22.37Q132.26 22.32 132.16 22.27Q130.61 21.5 128.68 21.5C127.2 21.5 125.81 21.76 124.52 22.29C123.23 22.82 122.09 23.56 121.11 24.5Q120.39 25.19 119.82 25.99Q119.23 26.83 118.8 27.79Q118.6 28.24 118.46 28.7Q117.99 30.17 117.99 31.8C117.99 33.27 118.27 34.65 118.84 35.94C119.42 37.23 120.22 38.36 121.23 39.35C122.26 40.33 123.44 41.1 124.79 41.66C126.13 42.22 127.58 42.5 129.12 42.5C130.39 42.5 131.49 42.22 132.42 41.68C133.37 41.12 134.12 40.4 134.69 39.51L134.92 41.98L140 41.98L140 22.05ZM131.86 37.04C131.03 37.55 130.07 37.81 128.99 37.81C127.94 37.81 126.97 37.55 126.08 37.04C125.2 36.52 124.5 35.82 123.98 34.94C123.45 34.07 123.19 33.09 123.19 32.02Q123.19 30.87 123.57 29.88Q123.73 29.47 123.96 29.09C124.48 28.21 125.18 27.51 126.06 26.99C126.95 26.46 127.92 26.2 128.99 26.2C130.06 26.2 131.01 26.46 131.84 26.97Q132.41 27.32 132.86 27.78Q133.42 28.35 133.82 29.09C134.29 29.96 134.52 30.94 134.52 32.02C134.52 33.08 134.29 34.05 133.82 34.94C133.35 35.82 132.69 36.52 131.86 37.04ZM87.68 36.86C86.88 37.37 85.97 37.63 84.95 37.63Q84.22 37.63 83.55 37.44L83.55 37.44L83.55 37.44Q82.89 37.26 82.29 36.9Q81.84 36.61 81.46 36.26L81.46 36.26L81.46 36.26Q80.81 35.66 80.36 34.86C79.87 34.01 79.63 33.06 79.63 32.02Q79.63 31.1 79.89 30.26L79.89 30.26L79.89 30.26Q80.06 29.72 80.34 29.21C80.81 28.34 81.45 27.65 82.25 27.13Q82.69 26.85 83.17 26.67L83.17 26.67Q84.01 26.36 84.95 26.36C85.93 26.36 86.81 26.62 87.62 27.13C88.44 27.64 89.08 28.32 89.55 29.19C90.04 30.04 90.28 30.98 90.28 32.02C90.28 33.02 90.04 33.95 89.57 34.8Q89.2 35.49 88.69 36.03L88.69 36.03Q88.24 36.5 87.68 36.86Z" fill="#FFFFFF" fill-opacity="1.000000" fill-rule="evenodd"/>
	<circle cx="21.000000" cy="30.500000" r="21.000000" fill="#FFFFFF" fill-opacity="1.000000"/>
	<path d="M27.44 35.44L32 37.74C30.89 39.18 29.47 40.33 27.76 41.2C26.06 42.06 24.22 42.5 22.23 42.5C19.98 42.5 17.92 41.96 16.06 40.88C14.22 39.8 12.74 38.36 11.63 36.55C10.54 34.73 10 32.72 10 30.52C10 28.85 10.31 27.29 10.95 25.85C11.59 24.39 12.46 23.12 13.57 22.02C14.69 20.92 16 20.05 17.48 19.43C18.97 18.81 20.55 18.5 22.23 18.5C24.22 18.5 26.06 18.93 27.76 19.79C29.47 20.66 30.89 21.82 32 23.28L27.44 25.58C26.76 24.82 25.96 24.24 25.05 23.85C24.13 23.44 23.19 23.23 22.23 23.23C20.89 23.23 19.68 23.57 18.58 24.26C17.51 24.92 16.65 25.81 16.02 26.92C15.39 28.01 15.09 29.21 15.09 30.52C15.09 31.81 15.4 33.01 16.04 34.12C16.68 35.21 17.53 36.09 18.61 36.76C19.7 37.42 20.91 37.76 22.23 37.76C23.24 37.76 24.21 37.55 25.12 37.12C26.03 36.7 26.81 36.13 27.44 35.44Z" fill="#000000" fill-opacity="1.000000" fill-rule="nonzero"/>
</svg>
