<svg width="17.487549" height="17.487427" viewBox="0 0 17.4875 17.4874" fill="none" xmlns="http://www.w3.org/2000/svg" xmlns:xlink="http://www.w3.org/1999/xlink">
	<desc>
			Created with Pixso.
	</desc>
	<defs/>
	<path id="Vector" d="M3.64 7.28C2.84 7.28 2.18 7.94 2.18 8.74C2.18 9.54 2.84 10.2 3.64 10.2C4.44 10.2 5.1 9.54 5.1 8.74C5.1 7.94 4.44 7.28 3.64 7.28Z" fill="#7E8492" fill-opacity="1.000000" fill-rule="nonzero"/>
	<path id="Vector" d="M13.84 7.28C13.04 7.28 12.38 7.94 12.38 8.74C12.38 9.54 13.04 10.2 13.84 10.2C14.64 10.2 15.3 9.54 15.3 8.74C15.3 7.94 14.64 7.28 13.84 7.28Z" fill="#7E8492" fill-opacity="1.000000" fill-rule="nonzero"/>
	<path id="Vector" d="M8.74 7.28C7.94 7.28 7.28 7.94 7.28 8.74C7.28 9.54 7.94 10.2 8.74 10.2C9.54 10.2 10.2 9.54 10.2 8.74C10.2 7.94 9.54 7.28 8.74 7.28Z" fill="#7E8492" fill-opacity="1.000000" fill-rule="nonzero"/>
	<g opacity="0.000000">
		<path id="Vector" d="M0 0L17.48 0L17.48 17.48L0 17.48L0 0Z" fill="#7E8492" fill-opacity="1.000000" fill-rule="evenodd"/>
	</g>
</svg>
