<svg width="19.199951" height="19.199951" viewBox="0 0 19.2 19.2" fill="none" xmlns="http://www.w3.org/2000/svg" xmlns:xlink="http://www.w3.org/1999/xlink">
	<desc>
			Created with Pixso.
	</desc>
	<defs/>
	<path d="M9.59 19.2C14.9 19.2 19.2 14.9 19.2 9.6C19.2 4.29 14.9 0 9.59 0C4.29 0 0 4.29 0 9.6C0 14.9 4.29 19.2 9.59 19.2ZM14.04 8.04C14.51 7.57 14.51 6.82 14.04 6.35C13.58 5.88 12.82 5.88 12.35 6.35L8.4 10.3L6.84 8.75C6.37 8.28 5.62 8.28 5.15 8.75C4.68 9.22 4.68 9.97 5.15 10.44L7.55 12.84C8.02 13.31 8.77 13.31 9.24 12.84L14.04 8.04Z" fill="#7E8492" fill-opacity="1.000000" fill-rule="evenodd"/>
</svg>
