<svg width="20.000000" height="20.000000" viewBox="0 0 20 20" fill="none" xmlns="http://www.w3.org/2000/svg" xmlns:xlink="http://www.w3.org/1999/xlink">
	<desc>
			Created with Pixso.
	</desc>
	<defs/>
	<path id="Stroke 1" d="M11.22 0.79L13.25 5.09C13.45 5.51 13.84 5.8 14.28 5.87L18.82 6.56C19.95 6.73 20.39 8.17 19.58 9L16.3 12.34C15.97 12.67 15.83 13.14 15.9 13.6L16.68 18.32C16.87 19.49 15.69 20.38 14.69 19.83L10.63 17.6C10.23 17.38 9.76 17.38 9.36 17.6L5.3 19.83C4.3 20.38 3.12 19.49 3.31 18.32L4.09 13.6C4.16 13.14 4.02 12.67 3.69 12.34L0.41 9C-0.4 8.17 0.04 6.73 1.17 6.56L5.71 5.87C6.15 5.8 6.54 5.51 6.74 5.09L8.77 0.79C9.27 -0.27 10.72 -0.27 11.22 0.79Z" fill="#FFD33C" fill-opacity="1.000000" fill-rule="evenodd"/>
</svg>
