<svg width="132.000000" height="20.000000" viewBox="0 0 132 20" fill="none" xmlns="http://www.w3.org/2000/svg" xmlns:xlink="http://www.w3.org/1999/xlink">
	<desc>
			Created with Pixso.
	</desc>
	<defs/>
	<path d="M11.22 0.79L13.25 5.09C13.45 5.51 13.84 5.8 14.28 5.87L18.82 6.56C19.95 6.73 20.39 8.17 19.58 9L16.3 12.34C15.97 12.67 15.83 13.14 15.9 13.6L16.68 18.32C16.87 19.49 15.69 20.38 14.69 19.83L10.63 17.6C10.23 17.38 9.76 17.38 9.36 17.6L5.3 19.83C4.3 20.38 3.12 19.49 3.31 18.32L4.09 13.6C4.16 13.14 4.02 12.67 3.69 12.34L0.41 9C-0.4 8.17 0.04 6.73 1.17 6.56L5.71 5.87C6.15 5.8 6.54 5.51 6.74 5.09L8.77 0.79C9.27 -0.27 10.72 -0.27 11.22 0.79Z" fill="#FFD33C" fill-opacity="1.000000" fill-rule="evenodd"/>
	<path d="M39.22 0.79L41.25 5.09C41.45 5.51 41.84 5.8 42.28 5.87L46.82 6.56C47.95 6.73 48.39 8.17 47.58 9L44.3 12.34C43.97 12.67 43.83 13.14 43.9 13.6L44.68 18.32C44.87 19.49 43.69 20.38 42.69 19.83L38.63 17.6C38.23 17.38 37.76 17.38 37.36 17.6L33.3 19.83C32.3 20.38 31.12 19.49 31.31 18.32L32.09 13.6C32.16 13.14 32.02 12.67 31.69 12.34L28.41 9C27.6 8.17 28.04 6.73 29.17 6.56L33.71 5.87C34.15 5.8 34.54 5.51 34.74 5.09L36.77 0.79C37.27 -0.27 38.72 -0.27 39.22 0.79Z" fill="#FFD33C" fill-opacity="1.000000" fill-rule="evenodd"/>
	<path d="M67.22 0.79L69.25 5.09C69.45 5.51 69.84 5.8 70.28 5.87L74.82 6.56C75.95 6.73 76.39 8.17 75.58 9L72.3 12.34C71.97 12.67 71.83 13.14 71.9 13.6L72.68 18.32C72.87 19.49 71.69 20.38 70.69 19.83L66.63 17.6C66.23 17.38 65.76 17.38 65.36 17.6L61.3 19.83C60.3 20.38 59.12 19.49 59.31 18.32L60.09 13.6C60.16 13.14 60.02 12.67 59.69 12.34L56.41 9C55.6 8.17 56.04 6.73 57.17 6.56L61.71 5.87C62.15 5.8 62.54 5.51 62.74 5.09L64.77 0.79C65.27 -0.27 66.72 -0.27 67.22 0.79Z" fill="#FFD33C" fill-opacity="1.000000" fill-rule="evenodd"/>
	<path d="M95.22 0.79L97.25 5.09C97.45 5.51 97.84 5.8 98.28 5.87L102.82 6.56C103.95 6.73 104.39 8.17 103.58 9L100.3 12.34C99.97 12.67 99.83 13.14 99.9 13.6L100.68 18.32C100.87 19.49 99.69 20.38 98.69 19.83L94.63 17.6C94.23 17.38 93.76 17.38 93.36 17.6L89.3 19.83C88.3 20.38 87.12 19.49 87.31 18.32L88.09 13.6C88.16 13.14 88.02 12.67 87.69 12.34L84.41 9C83.6 8.17 84.04 6.73 85.17 6.56L89.71 5.87C90.15 5.8 90.54 5.51 90.74 5.09L92.77 0.79C93.27 -0.27 94.72 -0.27 95.22 0.79Z" fill="#FFD33C" fill-opacity="1.000000" fill-rule="evenodd"/>
	<path d="M123.22 0.79L125.25 5.09C125.45 5.51 125.84 5.8 126.28 5.87L130.82 6.56C131.95 6.73 132.39 8.17 131.58 9L128.3 12.34C127.97 12.67 127.83 13.14 127.9 13.6L128.68 18.32C128.87 19.49 127.7 20.38 126.69 19.83L122.63 17.6C122.23 17.38 121.76 17.38 121.36 17.6L117.3 19.83C116.3 20.38 115.12 19.49 115.31 18.32L116.09 13.6C116.16 13.14 116.02 12.67 115.7 12.34L112.41 9C111.6 8.17 112.05 6.73 113.17 6.56L117.71 5.87C118.15 5.8 118.54 5.51 118.74 5.09L120.77 0.79C121.27 -0.27 122.72 -0.27 123.22 0.79Z" fill="#FFD33C" fill-opacity="1.000000" fill-rule="evenodd"/>
</svg>
