<svg width="366.071777" height="260.101074" viewBox="0 0 366.072 260.101" fill="none" xmlns="http://www.w3.org/2000/svg" xmlns:xlink="http://www.w3.org/1999/xlink">
	<desc>
			Created with Pixso.
	</desc>
	<defs>
		<clipPath id="clip1_2557">
			<rect rx="-0.500000" width="29.500000" height="205.000000" transform="translate(431.827148 54.619141) rotate(0.015818)" fill="white" fill-opacity="0"/>
		</clipPath>
		<clipPath id="clip1_2560">
			<rect rx="-0.500000" width="29.500000" height="205.000000" transform="translate(376.927002 54.604004) rotate(0.015818)" fill="white" fill-opacity="0"/>
		</clipPath>
		<clipPath id="clip1_2563">
			<rect rx="-0.500000" width="25.840000" height="205.000000" transform="translate(325.687012 54.589844) rotate(0.015818)" fill="white" fill-opacity="0"/>
		</clipPath>
		<clipPath id="clip1_2566">
			<rect rx="-0.500000" width="28.280001" height="205.000000" transform="translate(272.007080 54.574951) rotate(0.015818)" fill="white" fill-opacity="0"/>
		</clipPath>
		<clipPath id="clip1_2569">
			<rect rx="-0.500000" width="29.500000" height="205.000000" transform="translate(217.106934 54.559814) rotate(0.015818)" fill="white" fill-opacity="0"/>
		</clipPath>
		<clipPath id="clip1_2572">
			<rect rx="-0.500000" width="47.799999" height="205.000000" transform="translate(156.106934 54.542969) rotate(0.015818)" fill="white" fill-opacity="0"/>
		</clipPath>
		<clipPath id="clip1_2576">
			<rect rx="-0.500000" width="28.280001" height="205.000000" transform="translate(114.626953 54.531494) rotate(0.015818)" fill="white" fill-opacity="0"/>
		</clipPath>
		<clipPath id="clip1_2579">
			<rect rx="-0.500000" width="31.939999" height="205.000000" transform="translate(57.286865 54.515625) rotate(0.015818)" fill="white" fill-opacity="0"/>
		</clipPath>
		<clipPath id="clip1_2582">
			<rect rx="-0.500000" width="27.059999" height="205.000000" transform="translate(4.827148 54.501221) rotate(0.015818)" fill="white" fill-opacity="0"/>
		</clipPath>
		<clipPath id="clip1_2585">
			<rect rx="-0.500000" width="29.500000" height="205.000000" transform="translate(-50.072998 54.486084) rotate(0.015818)" fill="white" fill-opacity="0"/>
		</clipPath>
		<clipPath id="clip1_2588">
			<rect rx="-0.500000" width="28.280001" height="205.000000" transform="translate(-103.753174 54.471191) rotate(0.015818)" fill="white" fill-opacity="0"/>
		</clipPath>
		<clipPath id="clip1_2591">
			<rect rx="-0.500000" width="28.280001" height="205.000000" transform="translate(-157.433105 54.456299) rotate(0.015818)" fill="white" fill-opacity="0"/>
		</clipPath>
		<filter id="filter_1_2595_dd" x="165.547363" y="32.055176" width="116.007080" height="82.013184" filterUnits="userSpaceOnUse" color-interpolation-filters="sRGB">
			<feFlood flood-opacity="0" result="BackgroundImageFix"/>
			<feColorMatrix in="SourceAlpha" type="matrix" values="0 0 0 0 0 0 0 0 0 0 0 0 0 0 0 0 0 0 127 0" result="hardAlpha"/>
			<feOffset dx="0" dy="4"/>
			<feGaussianBlur stdDeviation="7.33333"/>
			<feComposite in2="hardAlpha" operator="out" k2="-1" k3="1"/>
			<feColorMatrix type="matrix" values="0 0 0 0 0.62353 0 0 0 0 0.63922 0 0 0 0 0.72157 0 0 0 0.25 0"/>
			<feBlend mode="normal" in2="BackgroundImageFix" result="effect_dropShadow_1"/>
			<feBlend mode="normal" in="SourceGraphic" in2="effect_dropShadow_1" result="shape"/>
		</filter>
		<clipPath id="clip1_2603">
			<rect rx="-0.500000" width="16.080000" height="23.000000" transform="translate(10.927490 52.502930) rotate(0.015818)" fill="white" fill-opacity="0"/>
		</clipPath>
		<clipPath id="clip1_2605">
			<rect rx="-0.500000" width="9.980000" height="23.000000" transform="translate(18.200439 222.504883) rotate(0.015818)" fill="white" fill-opacity="0"/>
		</clipPath>
		<clipPath id="clip1_2607">
			<rect rx="-0.500000" width="28.280001" height="23.000000" transform="translate(-0.090088 188.499756) rotate(0.015818)" fill="white" fill-opacity="0"/>
		</clipPath>
		<clipPath id="clip1_2609">
			<rect rx="-0.500000" width="28.280001" height="23.000000" transform="translate(-0.080566 154.499756) rotate(0.015818)" fill="white" fill-opacity="0"/>
		</clipPath>
		<clipPath id="clip1_2611">
			<rect rx="-0.500000" width="28.280001" height="23.000000" transform="translate(-0.071289 120.499756) rotate(0.015818)" fill="white" fill-opacity="0"/>
		</clipPath>
		<clipPath id="clip1_2613">
			<rect rx="-0.500000" width="28.280001" height="23.000000" transform="translate(-0.061768 86.499756) rotate(0.015818)" fill="white" fill-opacity="0"/>
		</clipPath>
		<filter id="filter_1_2616_dd" x="167.546631" y="82.049316" width="22.000000" height="22.000000" filterUnits="userSpaceOnUse" color-interpolation-filters="sRGB">
			<feFlood flood-opacity="0" result="BackgroundImageFix"/>
			<feColorMatrix in="SourceAlpha" type="matrix" values="0 0 0 0 0 0 0 0 0 0 0 0 0 0 0 0 0 0 127 0" result="hardAlpha"/>
			<feOffset dx="0" dy="2"/>
			<feGaussianBlur stdDeviation="1.33333"/>
			<feComposite in2="hardAlpha" operator="out" k2="-1" k3="1"/>
			<feColorMatrix type="matrix" values="0 0 0 0 0.26667 0 0 0 0 0.26667 0 0 0 0 0.3098 0 0 0 0.15 0"/>
			<feBlend mode="normal" in2="BackgroundImageFix" result="effect_dropShadow_1"/>
			<feBlend mode="normal" in="SourceGraphic" in2="effect_dropShadow_1" result="shape"/>
		</filter>
		<clipPath id="clip1_2553">
			<rect rx="-0.500000" width="365.000000" height="259.000000" transform="translate(0.571777 0.500000) rotate(0.015818)" fill="white" fill-opacity="0"/>
		</clipPath>
		<linearGradient x1="180.006912" y1="54.049706" x2="179.956390" y2="237.049698" id="paint_linear_1_2575_0" gradientUnits="userSpaceOnUse">
			<stop stop-color="#2A85FF"/>
			<stop offset="1.000000" stop-color="#2A85FF" stop-opacity="0.000000"/>
		</linearGradient>
	</defs>
	<rect rx="-0.500000" width="365.000000" height="259.000000" transform="translate(0.571777 0.500000) rotate(0.015818)" fill="#FFFFFF" fill-opacity="0"/>
	<g clip-path="url(#clip1_2553)">
		<mask id="mask1_2555" mask-type="alpha" maskUnits="userSpaceOnUse" x="-0.612061" y="7.999756" width="367.291748" height="260.101318">
			<rect x="-0.540283" y="7.999756" width="367.220001" height="260.000000" transform="rotate(0.0158183 -0.540283 7.999756)" fill="#FFFFFF" fill-opacity="1.000000"/>
			<rect x="-0.540283" y="7.999756" width="367.220001" height="260.000000" transform="rotate(0.0158183 -0.540283 7.999756)" stroke="#979797" stroke-opacity="0" stroke-width="0.000000"/>
		</mask>
		<g mask="url(#mask1_2555)">
			<rect rx="-0.500000" width="29.500000" height="205.000000" transform="translate(431.827148 54.619141) rotate(0.015818)" fill="#FFFFFF" fill-opacity="0"/>
			<g clip-path="url(#clip1_2557)">
				<path d="M436.81 232.84L436.81 241.37L439.17 241.37Q440.32 241.36 441.19 240.88Q441.54 240.67 441.83 240.4Q442.24 240.01 442.52 239.48Q442.98 238.57 442.98 237.37L442.98 236.82Q442.98 235.64 442.51 234.73Q442.23 234.19 441.81 233.79Q441.53 233.53 441.19 233.33Q441.13 233.3 441.07 233.27Q440.26 232.84 439.22 232.84L436.81 232.84ZM437.94 240.45L437.94 233.77L439.25 233.77Q440.18 233.78 440.79 234.22Q441.01 234.37 441.19 234.59Q441.87 235.39 441.87 236.84L441.87 237.34Q441.87 238.84 441.15 239.64Q440.97 239.84 440.77 239.99Q440.11 240.45 439.12 240.45L437.94 240.45ZM445.75 241.13Q446.39 241.49 447.23 241.49Q448.18 241.49 448.84 241.06Q449.3 240.76 449.62 240.27L448.96 239.75Q448.69 240.09 448.35 240.31Q448.31 240.35 448.26 240.37Q447.86 240.61 447.29 240.61Q446.84 240.61 446.48 240.43Q446.19 240.29 445.95 240.03Q445.88 239.95 445.81 239.86Q445.43 239.32 445.41 238.51L449.7 238.52L449.7 238.06Q449.7 236.55 449.02 235.73Q448.81 235.49 448.56 235.32Q447.97 234.92 447.09 234.92Q446.76 234.92 446.45 235Q446.06 235.1 445.69 235.34Q445.51 235.45 445.36 235.59Q444.95 235.96 444.68 236.5Q444.32 237.24 444.32 238.18L444.32 238.38Q444.32 239.55 444.87 240.33Q444.99 240.5 445.13 240.64Q445.41 240.94 445.75 241.13ZM454.21 240.49Q453.92 240.61 453.58 240.61Q453.04 240.61 452.66 240.36Q452.45 240.23 452.29 240.02Q451.84 239.42 451.84 238.33L451.84 238.12Q451.84 237 452.3 236.4Q452.47 236.18 452.69 236.04Q453.06 235.81 453.58 235.81Q453.96 235.81 454.27 235.96Q454.45 236.06 454.61 236.21Q454.77 236.35 454.87 236.53Q455.05 236.83 455.08 237.22L456.1 237.22Q456.07 236.59 455.8 236.1Q455.62 235.8 455.35 235.56Q455.15 235.38 454.92 235.25Q454.34 234.92 453.58 234.92Q452.76 234.92 452.15 235.28Q452.11 235.3 452.08 235.32Q451.88 235.44 451.71 235.6Q451.33 235.94 451.1 236.44Q450.76 237.16 450.76 238.08L450.76 238.26Q450.76 239.71 451.47 240.57Q451.5 240.6 451.52 240.63Q451.78 240.92 452.09 241.11Q452.72 241.49 453.58 241.49Q453.89 241.49 454.19 241.43Q454.5 241.35 454.8 241.2Q455.27 240.96 455.59 240.6Q455.66 240.51 455.73 240.42Q456.01 240.02 456.08 239.58Q456.1 239.48 456.1 239.38L455.08 239.38Q455.06 239.6 454.97 239.78Q454.85 240.05 454.6 240.26Q454.42 240.4 454.21 240.49ZM446.48 235.93Q446.76 235.81 447.09 235.81Q447.55 235.81 447.88 236.01Q448.04 236.11 448.17 236.26Q448.57 236.72 448.62 237.54L448.62 237.63L445.44 237.62Q445.55 236.76 445.99 236.29Q446.21 236.05 446.48 235.93Z" fill="#92929D" fill-opacity="1.000000" fill-rule="evenodd"/>
				<path d="M444.69 237.12L444.74 54.12L445.96 54.12L445.91 237.12L444.69 237.12Z" fill="#F1F1F5" fill-opacity="1.000000" fill-rule="evenodd"/>
				<path d="M444.74 54.12L445.96 54.12L445.91 237.12L444.69 237.12L444.74 54.12Z" stroke="#979797" stroke-opacity="0" stroke-width="0.000000"/>
			</g>
			<rect rx="-0.500000" width="29.500000" height="205.000000" transform="translate(376.927002 54.604004) rotate(0.015818)" fill="#FFFFFF" fill-opacity="0"/>
			<g clip-path="url(#clip1_2560)">
				<path d="M387.03 241.36L388.16 241.36L388.16 232.83L387.04 232.83L387.04 239.43L382.74 232.83L381.61 232.83L381.6 241.36L382.73 241.36L382.74 234.78L387.03 241.36ZM390.15 236.45Q389.79 237.2 389.79 238.13L389.79 238.21Q389.79 239.5 390.4 240.35Q390.49 240.47 390.59 240.58Q390.9 240.93 391.3 241.15Q391.9 241.48 392.68 241.48Q393.37 241.48 393.94 241.21Q394.07 241.14 394.19 241.07Q394.41 240.93 394.6 240.75Q394.97 240.41 395.2 239.92Q395.56 239.19 395.56 238.26L395.56 238.18Q395.56 236.86 394.93 236Q394.85 235.9 394.76 235.8Q394.45 235.45 394.06 235.24Q393.46 234.9 392.67 234.9Q392.01 234.9 391.47 235.15Q391.32 235.22 391.17 235.31Q391.01 235.41 390.86 235.53Q390.43 235.9 390.15 236.45ZM400.58 235.02L399.01 239.89L397.4 235.02L396.29 235.02L398.59 241.36L399.41 241.36L401.69 235.02L400.58 235.02ZM391.37 239.95Q390.88 239.31 390.88 238.26Q390.88 237.07 391.37 236.43Q391.62 236.11 391.95 235.95Q392.27 235.79 392.67 235.79Q393.08 235.79 393.42 235.96Q393.74 236.12 393.98 236.44Q394.48 237.09 394.48 238.13Q394.48 239.3 393.99 239.95Q393.76 240.25 393.45 240.41Q393.11 240.59 392.68 240.59Q392.25 240.59 391.91 240.42Q391.6 240.26 391.37 239.95Z" fill="#92929D" fill-opacity="1.000000" fill-rule="evenodd"/>
				<path d="M389.79 237.1L389.84 54.1L391.06 54.1L391.01 237.1L389.79 237.1Z" fill="#F1F1F5" fill-opacity="1.000000" fill-rule="evenodd"/>
				<path d="M389.84 54.1L391.06 54.1L391.01 237.1L389.79 237.1L389.84 54.1Z" stroke="#979797" stroke-opacity="0" stroke-width="0.000000"/>
			</g>
			<rect rx="-0.500000" width="25.840000" height="205.000000" transform="translate(325.687012 54.589844) rotate(0.015818)" fill="#FFFFFF" fill-opacity="0"/>
			<g clip-path="url(#clip1_2563)">
				<path d="M332.49 245.24C334.72 245.24 336.34 246.96 336.34 249.73C336.34 252.49 334.72 254.21 332.49 254.21C330.25 254.21 328.63 252.48 328.63 249.72C328.63 246.96 330.26 245.24 332.49 245.24ZM346.13 247.55L347.52 247.55L347.52 248.4L346.12 248.4L346.12 252.22C346.12 253.07 346.55 253.2 346.99 253.2C347.21 253.2 347.35 253.17 347.44 253.15L347.64 254.06C347.5 254.11 347.27 254.18 346.89 254.18C346.04 254.18 345.12 253.63 345.12 252.49L345.12 248.4L344.13 248.4L344.13 247.55L345.12 247.55L345.12 245.98L346.13 245.98L346.13 247.55ZM332.49 253.22C334.07 253.22 335.32 251.99 335.32 249.73C335.32 247.46 334.07 246.23 332.49 246.23C330.9 246.23 329.66 247.46 329.66 249.72C329.66 251.99 330.9 253.22 332.49 253.22ZM343.21 252.18C343.04 253.34 342.08 254.23 340.63 254.23C338.79 254.23 337.67 252.81 337.67 250.85C337.67 248.86 338.85 247.46 340.62 247.46C342 247.46 343.04 248.28 343.21 249.51L342.2 249.51C342.05 248.91 341.52 248.36 340.64 248.36C339.46 248.36 338.68 249.33 338.68 250.82C338.67 252.33 339.44 253.32 340.63 253.32C341.42 253.32 342.01 252.9 342.2 252.18L343.21 252.18Z" fill="#808D9E" fill-opacity="1.000000" fill-rule="evenodd"/>
				<path d="M337.33 237.09L337.38 54.09L338.6 54.09L338.55 237.09L337.33 237.09Z" fill="#E9ECF2" fill-opacity="1.000000" fill-rule="evenodd"/>
			</g>
			<rect rx="-0.500000" width="28.280001" height="205.000000" transform="translate(272.007080 54.574951) rotate(0.015818)" fill="#FFFFFF" fill-opacity="0"/>
			<g clip-path="url(#clip1_2566)">
				<path d="M281.71 247.53L280.69 247.53C280.59 246.67 279.79 246.16 278.73 246.16C277.57 246.16 276.8 246.78 276.8 247.61C276.8 248.55 277.84 248.89 278.49 249.06L279.38 249.3C280.28 249.54 281.83 250.07 281.83 251.7C281.83 253.12 280.69 254.23 278.68 254.22C276.8 254.22 275.65 253.25 275.54 251.82L276.63 251.82C276.72 252.81 277.64 253.27 278.68 253.27C279.89 253.27 280.81 252.64 280.81 251.69C280.81 250.82 279.99 250.49 279.07 250.24L278 249.93C276.63 249.54 275.78 248.84 275.78 247.66C275.78 246.2 277.09 245.22 278.76 245.22C280.45 245.23 281.67 246.21 281.71 247.53ZM288.79 252.56C288.48 253.55 287.51 254.21 286.18 254.21C284.29 254.21 283.13 252.86 283.13 250.85C283.13 248.84 284.31 247.44 286.08 247.44C287.44 247.45 288.89 248.28 288.89 250.72L288.89 251.14L284.14 251.14C284.18 252.54 285 253.31 286.18 253.31C286.97 253.31 287.56 252.97 287.81 252.29L288.79 252.56ZM291.43 256.53L290.42 256.53L290.42 247.53L291.4 247.53L291.4 248.57L291.52 248.57C291.74 248.23 292.13 247.45 293.41 247.45C295.06 247.45 296.2 248.76 296.2 250.82C296.2 252.9 295.06 254.21 293.42 254.21C292.16 254.21 291.73 253.43 291.51 253.07L291.43 253.07L291.43 256.53ZM286.08 248.35C284.93 248.35 284.21 249.25 284.14 250.27L287.87 250.28C287.87 249.16 287.17 248.35 286.08 248.35ZM293.29 248.35C292.06 248.35 291.41 249.34 291.41 250.8C291.41 252.29 292.08 253.31 293.29 253.31C294.55 253.31 295.19 252.2 295.2 250.8C295.2 249.42 294.57 248.35 293.29 248.35Z" fill="#808D9E" fill-opacity="1.000000" fill-rule="evenodd"/>
				<path d="M284.87 237.07L284.92 54.07L286.14 54.07L286.09 237.07L284.87 237.07Z" fill="#E9ECF2" fill-opacity="1.000000" fill-rule="evenodd"/>
			</g>
			<rect rx="-0.500000" width="29.500000" height="205.000000" transform="translate(217.106934 54.559814) rotate(0.015818)" fill="#FFFFFF" fill-opacity="0"/>
			<g clip-path="url(#clip1_2569)">
				<path d="M222.53 251.58L221.65 254.06L220.55 254.06L223.75 245.33L224.84 245.33L228.05 254.06L226.94 254.06L226.06 251.59L222.53 251.58ZM224.26 246.71L222.86 250.65L225.73 250.65L224.33 246.71L224.26 246.71ZM241.72 254.25C241.72 255.94 240.45 256.65 238.89 256.65C237.42 256.65 236.62 256.03 236.21 255.34L237.01 254.78C237.28 255.14 237.7 255.77 238.89 255.77C239.94 255.77 240.71 255.27 240.71 254.18L240.71 252.85L240.62 252.85C240.4 253.21 239.99 253.96 238.72 253.96C237.13 253.96 235.94 252.8 235.94 250.75C235.94 248.74 237.08 247.43 238.74 247.43C240.01 247.43 240.42 248.21 240.64 248.56L240.75 248.56L240.75 247.52L241.72 247.52L241.72 254.25ZM231.71 253.17C232.46 253.17 233.4 252.61 233.4 251.39L233.4 247.51L234.4 247.52L234.4 254.06L233.4 254.06L233.4 252.95L233.33 252.95C233.02 253.62 232.37 254.14 231.39 254.14C230.16 254.14 229.27 253.34 229.27 251.67L229.27 247.51L230.28 247.51L230.28 251.6C230.28 252.56 230.87 253.17 231.71 253.17ZM236.94 250.74C236.94 252.1 237.59 253.06 238.85 253.06C240.06 253.06 240.73 252.19 240.73 250.74C240.73 249.32 240.08 248.33 238.85 248.33C237.58 248.33 236.95 249.41 236.94 250.74Z" fill="#808D9E" fill-opacity="1.000000" fill-rule="evenodd"/>
				<path d="M229.97 237.06L230.02 54.06L231.24 54.06L231.19 237.06L229.97 237.06Z" fill="#E9ECF2" fill-opacity="1.000000" fill-rule="evenodd"/>
			</g>
			<rect rx="-0.500000" width="47.799999" height="205.000000" transform="translate(156.106934 54.542969) rotate(0.015818)" fill="#FFFFFF" fill-opacity="0"/>
			<g clip-path="url(#clip1_2572)">
				<path d="M175.06 251.56L175.06 245.32L176.12 245.32L176.12 251.56C176.12 253.23 175.14 254.16 173.63 254.16C172.2 254.16 171.16 253.34 171.16 252L172.2 252C172.2 252.74 172.8 253.23 173.63 253.23C174.54 253.23 175.06 252.64 175.06 251.56ZM185.07 245.32L186.07 245.32L186.07 254.05L185.07 254.05L185.07 245.32ZM180.53 253.16C181.28 253.16 182.22 252.6 182.22 251.37L182.22 247.5L183.23 247.5L183.22 254.05L182.22 254.05L182.22 252.94L182.15 252.94C181.84 253.6 181.2 254.13 180.21 254.13C178.98 254.13 178.09 253.33 178.09 251.66L178.1 247.5L179.1 247.5L179.1 251.59C179.1 252.55 179.7 253.16 180.53 253.16Z" fill="#808D9E" fill-opacity="1.000000" fill-rule="evenodd"/>
				<path d="M177.51 237.04L177.56 54.04L180 54.04L179.95 237.05L177.51 237.04Z" fill="#E9ECF2" fill-opacity="1.000000" fill-rule="evenodd"/>
				<g opacity="0.100000">
					<path d="M155.55 237.04L155.6 54.04L204.4 54.05L204.35 237.05L155.55 237.04Z" fill="url(#paint_linear_1_2575_0)" fill-opacity="1.000000" fill-rule="evenodd"/>
				</g>
			</g>
			<rect rx="-0.500000" width="28.280001" height="205.000000" transform="translate(114.626953 54.531494) rotate(0.015818)" fill="#FFFFFF" fill-opacity="0"/>
			<g clip-path="url(#clip1_2576)">
				<path d="M122.6 251.54L122.6 245.3L123.66 245.3L123.66 251.54C123.66 253.22 122.69 254.15 121.17 254.15C119.74 254.15 118.7 253.33 118.7 251.98L119.74 251.98C119.74 252.73 120.34 253.21 121.17 253.21C122.08 253.21 122.6 252.63 122.6 251.54ZM135.29 248.31C134.32 248.31 133.61 248.95 133.61 250.1L133.61 254.03L132.61 254.03L132.61 247.49L133.58 247.49L133.58 248.51L133.67 248.51C133.97 247.85 134.59 247.4 135.58 247.4C136.9 247.4 137.79 248.2 137.79 249.87L137.79 254.03L136.78 254.03L136.79 249.94C136.79 248.92 136.22 248.31 135.29 248.31ZM128.07 253.14C128.82 253.14 129.76 252.58 129.76 251.36L129.76 247.49L130.77 247.49L130.77 254.03L129.76 254.03L129.76 252.92L129.69 252.92C129.39 253.59 128.74 254.12 127.75 254.12C126.52 254.12 125.64 253.32 125.64 251.64L125.64 247.49L126.64 247.49L126.64 251.58C126.64 252.53 127.24 253.14 128.07 253.14Z" fill="#808D9E" fill-opacity="1.000000" fill-rule="evenodd"/>
				<path d="M129.93 237.03L129.98 54.03L131.2 54.03L131.15 237.03L129.93 237.03Z" fill="#E9ECF2" fill-opacity="1.000000" fill-rule="evenodd"/>
			</g>
			<rect rx="-0.500000" width="31.939999" height="205.000000" transform="translate(57.286865 54.515625) rotate(0.015818)" fill="#FFFFFF" fill-opacity="0"/>
			<g clip-path="url(#clip1_2579)">
				<path d="M61.73 254.01L61.74 245.28L63 245.29L65.96 252.53L66.06 252.53L69.03 245.29L70.29 245.29L70.29 254.01L69.3 254.01L69.3 247.38L69.22 247.38L66.49 254.01L65.53 254.01L62.81 247.38L62.72 247.38L62.72 254.01L61.73 254.01ZM76.14 253.13C75.93 253.56 75.33 254.17 74.19 254.17C72.95 254.17 71.96 253.44 71.96 252.16C71.96 250.66 73.29 250.39 74.5 250.23C75.7 250.08 76.19 250.12 76.19 249.64L76.19 249.6C76.19 248.76 75.73 248.27 74.81 248.27C73.85 248.27 73.33 248.78 73.1 249.26L72.15 248.92C72.66 247.73 73.79 247.39 74.77 247.39C75.61 247.39 77.2 247.62 77.2 249.7L77.19 254.02L76.19 254.02L76.19 253.13L76.14 253.13ZM81.37 254.97C80.99 255.99 80.35 256.47 79.44 256.47C79.1 256.47 78.81 256.4 78.71 256.35L78.96 255.47C79.7 255.66 80.15 255.56 80.52 254.56L80.71 254.05L78.29 247.47L79.38 247.47L81.18 252.69L81.25 252.69L83.06 247.47L84.15 247.47L81.37 254.97ZM72.97 252.21C72.97 252.91 73.55 253.27 74.35 253.27C75.54 253.27 76.19 252.47 76.19 251.65L76.19 250.73C76.02 250.93 74.87 251.05 74.45 251.1C73.67 251.2 72.97 251.44 72.97 252.21Z" fill="#808D9E" fill-opacity="1.000000" fill-rule="evenodd"/>
				<path d="M73.83 237.02L73.88 54.02L75.07 54.02L75.02 237.02L73.83 237.02Z" fill="#E9ECF2" fill-opacity="1.000000" fill-rule="evenodd"/>
			</g>
			<rect rx="-0.500000" width="27.059999" height="205.000000" transform="translate(4.827148 54.501221) rotate(0.015818)" fill="#FFFFFF" fill-opacity="0"/>
			<g clip-path="url(#clip1_2582)">
				<path d="M10.09 241.25L10.89 239.03L14.47 239.03L15.28 241.26L16.43 241.26L13.17 232.72L12.19 232.72L8.93 241.25L10.09 241.25ZM14.13 238.1L11.23 238.1L12.68 234.11L14.13 238.1ZM22.19 240.49Q22.85 239.61 22.85 238.16L22.85 238.06Q22.86 236.52 22.19 235.66Q21.9 235.28 21.52 235.07Q21.03 234.8 20.38 234.8Q19.62 234.8 19.07 235.14Q18.78 235.33 18.54 235.62L18.49 234.92L17.5 234.92L17.5 243.69L18.58 243.69L18.58 240.64Q18.76 240.84 18.98 240.98Q19.56 241.37 20.4 241.37Q21 241.37 21.46 241.13Q21.88 240.91 22.19 240.49ZM26.85 235.85Q27.14 235.85 27.38 235.89L27.38 234.88Q27.22 234.8 26.9 234.8Q26.44 234.8 26.08 234.99Q25.67 235.2 25.39 235.65L25.37 234.92L24.32 234.92L24.32 241.26L25.4 241.26L25.4 236.76Q25.57 236.36 25.86 236.14Q26.25 235.85 26.85 235.85ZM21.31 236.34Q21.77 236.96 21.77 238.03Q21.77 239.25 21.31 239.87Q21.09 240.17 20.79 240.33Q20.47 240.49 20.07 240.49Q19.56 240.49 19.19 240.27Q18.82 240.05 18.58 239.62L18.58 236.59Q18.84 236.14 19.23 235.92Q19.59 235.72 20.06 235.72Q20.49 235.72 20.82 235.9Q21.1 236.06 21.31 236.34Z" fill="#92929D" fill-opacity="1.000000" fill-rule="evenodd"/>
				<path d="M18.93 237L18.98 54L20.17 54L20.12 237L18.93 237Z" fill="#F1F1F5" fill-opacity="1.000000" fill-rule="evenodd"/>
				<path d="M18.98 54L20.17 54L20.12 237L18.93 237L18.98 54Z" stroke="#979797" stroke-opacity="0" stroke-width="0.000000"/>
			</g>
			<rect rx="-0.500000" width="29.500000" height="205.000000" transform="translate(-50.072998 54.486084) rotate(0.015818)" fill="#FFFFFF" fill-opacity="0"/>
			<g clip-path="url(#clip1_2585)">
				<path d="M-41.12 239.67L-43.91 232.71L-45.37 232.71L-45.37 241.24L-44.24 241.24L-44.24 237.92L-44.35 234.35L-41.56 241.24L-40.7 241.24L-37.89 234.33L-38 237.92L-38 241.24L-36.88 241.24L-36.87 232.71L-38.33 232.71L-41.12 239.67ZM-31.21 240.57Q-31.15 241.06 -31.06 241.24L-29.92 241.24L-29.92 241.15Q-30.15 240.63 -30.15 239.76L-30.15 236.84Q-30.16 236.15 -30.49 235.67Q-30.62 235.48 -30.79 235.33Q-30.8 235.33 -30.8 235.32Q-31.42 234.79 -32.51 234.79Q-33.19 234.79 -33.77 235.04Q-33.77 235.04 -33.78 235.04Q-34.35 235.3 -34.68 235.74Q-34.69 235.74 -34.69 235.74Q-34.98 236.13 -35.02 236.53Q-35.03 236.6 -35.03 236.66L-33.94 236.66Q-33.94 236.53 -33.9 236.42Q-33.82 236.16 -33.54 235.95Q-33.5 235.92 -33.46 235.89Q-33.09 235.66 -32.57 235.66Q-31.92 235.66 -31.58 235.98Q-31.58 235.99 -31.57 236Q-31.49 236.07 -31.44 236.16Q-31.23 236.46 -31.23 236.9L-31.23 237.4L-32.28 237.4Q-33.65 237.4 -34.4 237.95Q-34.72 238.18 -34.91 238.49Q-35.16 238.92 -35.16 239.48Q-35.16 239.91 -34.99 240.26Q-34.84 240.58 -34.56 240.83Q-34.44 240.93 -34.3 241.02Q-33.77 241.36 -33.02 241.36Q-32.56 241.36 -32.16 241.21Q-31.64 241.02 -31.21 240.57ZM-25.83 235.84Q-25.54 235.84 -25.3 235.88L-25.3 234.87Q-25.46 234.79 -25.78 234.79Q-26.24 234.79 -26.6 234.98Q-27.01 235.19 -27.29 235.64L-27.31 234.9L-28.36 234.9L-28.36 241.24L-27.28 241.24L-27.28 236.74Q-27.11 236.35 -26.81 236.13Q-26.43 235.84 -25.83 235.84ZM-32.49 240.38Q-32.67 240.42 -32.86 240.42Q-33.32 240.42 -33.63 240.2Q-33.69 240.17 -33.73 240.13Q-33.84 240.04 -33.91 239.93Q-34.07 239.68 -34.07 239.33Q-34.07 239.03 -33.94 238.81Q-33.56 238.17 -32.08 238.17L-31.23 238.17L-31.23 239.47Q-31.27 239.54 -31.31 239.61Q-31.51 239.93 -31.89 240.15Q-32.18 240.32 -32.49 240.38Z" fill="#92929D" fill-opacity="1.000000" fill-rule="evenodd"/>
				<path d="M-35.97 236.99L-35.92 53.99L-34.73 53.99L-34.78 236.99L-35.97 236.99Z" fill="#F1F1F5" fill-opacity="1.000000" fill-rule="evenodd"/>
				<path d="M-35.92 53.99L-34.73 53.99L-34.78 236.99L-35.97 236.99L-35.92 53.99Z" stroke="#979797" stroke-opacity="0" stroke-width="0.000000"/>
			</g>
			<rect rx="-0.500000" width="28.280001" height="205.000000" transform="translate(-103.753174 54.471191) rotate(0.015818)" fill="#FFFFFF" fill-opacity="0"/>
			<g clip-path="url(#clip1_2588)">
				<path d="M-81.25 240.46Q-80.58 239.58 -80.58 238.13L-80.58 238.04Q-80.58 236.52 -81.24 235.64Q-81.52 235.27 -81.9 235.05Q-82.4 234.77 -83.05 234.77Q-83.78 234.77 -84.31 235.1Q-84.62 235.28 -84.86 235.59L-84.86 232.23L-85.94 232.23L-85.95 241.23L-84.95 241.23L-84.9 240.5Q-84.66 240.8 -84.36 240.99Q-83.81 241.35 -83.04 241.35Q-82.45 241.35 -81.99 241.11Q-81.57 240.89 -81.25 240.46ZM-97.69 237.46L-94.11 237.46L-94.11 236.54L-97.69 236.54L-97.69 233.62L-93.53 233.62L-93.53 232.69L-98.81 232.69L-98.81 241.22L-97.69 241.22L-97.69 237.46ZM-91.24 240.98Q-90.6 241.34 -89.76 241.34Q-88.81 241.34 -88.14 240.91Q-87.69 240.62 -87.37 240.12L-88.03 239.6Q-88.29 239.94 -88.63 240.17Q-88.68 240.2 -88.73 240.22Q-89.13 240.46 -89.7 240.46Q-90.15 240.46 -90.51 240.28Q-90.8 240.14 -91.03 239.88Q-91.11 239.8 -91.17 239.71Q-91.56 239.17 -91.58 238.37L-87.29 238.37L-87.28 237.92Q-87.28 236.4 -87.97 235.58Q-88.17 235.34 -88.42 235.17Q-89.02 234.77 -89.89 234.77Q-90.22 234.77 -90.53 234.85Q-90.93 234.95 -91.29 235.19Q-91.47 235.3 -91.63 235.44Q-92.04 235.81 -92.3 236.35Q-92.66 237.09 -92.66 238.03L-92.66 238.23Q-92.66 239.4 -92.11 240.19Q-92 240.35 -91.86 240.5Q-91.58 240.79 -91.24 240.98ZM-90.5 235.78Q-90.23 235.66 -89.89 235.66Q-89.44 235.66 -89.11 235.86Q-88.95 235.96 -88.81 236.11Q-88.42 236.57 -88.37 237.39L-88.37 237.48L-91.54 237.48Q-91.44 236.61 -90.99 236.14Q-90.77 235.9 -90.5 235.78ZM-82.09 236.3Q-81.66 236.9 -81.66 238.01Q-81.66 239.22 -82.1 239.82Q-82.29 240.09 -82.55 240.24Q-82.88 240.43 -83.31 240.43Q-83.78 240.43 -84.15 240.22Q-84.59 239.98 -84.86 239.43L-84.86 236.69Q-84.62 236.17 -84.21 235.92Q-83.83 235.69 -83.32 235.69Q-82.84 235.69 -82.5 235.91Q-82.26 236.05 -82.09 236.3Z" fill="#92929D" fill-opacity="1.000000" fill-rule="evenodd"/>
				<path d="M-88.43 236.97L-88.38 53.97L-87.19 53.97L-87.24 236.97L-88.43 236.97Z" fill="#F1F1F5" fill-opacity="1.000000" fill-rule="evenodd"/>
				<path d="M-88.38 53.97L-87.19 53.97L-87.24 236.97L-88.43 236.97L-88.38 53.97Z" stroke="#979797" stroke-opacity="0" stroke-width="0.000000"/>
			</g>
			<rect rx="-0.500000" width="28.280001" height="205.000000" transform="translate(-157.433105 54.456299) rotate(0.015818)" fill="#FFFFFF" fill-opacity="0"/>
			<g clip-path="url(#clip1_2591)">
				<path d="M-147.87 232.68L-149 232.68L-149 238.74Q-149.01 239.45 -149.36 239.88Q-149.4 239.93 -149.44 239.97Q-149.57 240.1 -149.72 240.19Q-150.08 240.41 -150.57 240.41Q-151.27 240.41 -151.67 240.06Q-151.7 240.03 -151.73 240Q-151.78 239.95 -151.82 239.9Q-152.13 239.51 -152.13 238.85L-153.26 238.85Q-153.26 239.78 -152.82 240.38Q-152.7 240.54 -152.55 240.68Q-152.53 240.7 -152.5 240.72Q-151.8 241.33 -150.57 241.33Q-149.55 241.33 -148.87 240.85Q-148.73 240.75 -148.61 240.64Q-148.46 240.49 -148.33 240.32Q-147.87 239.69 -147.87 238.72L-147.87 232.68ZM-142.28 240.54Q-142.22 241.02 -142.13 241.21L-140.99 241.21L-140.99 241.12Q-141.22 240.6 -141.21 239.73L-141.21 236.81Q-141.23 236.11 -141.56 235.64Q-141.69 235.45 -141.86 235.3Q-141.86 235.3 -141.87 235.29Q-142.49 234.76 -143.57 234.75Q-144.26 234.75 -144.83 235.01Q-144.84 235.01 -144.84 235.01Q-145.42 235.27 -145.75 235.71Q-145.75 235.71 -145.76 235.71Q-146.05 236.1 -146.09 236.5Q-146.09 236.57 -146.09 236.63L-145 236.63Q-145 236.5 -144.97 236.39Q-144.89 236.12 -144.61 235.92Q-144.57 235.89 -144.53 235.86Q-144.16 235.63 -143.64 235.63Q-142.99 235.63 -142.65 235.95Q-142.64 235.96 -142.64 235.96Q-142.56 236.04 -142.5 236.13Q-142.3 236.43 -142.3 236.87L-142.3 237.37L-143.35 237.37Q-144.72 237.37 -145.47 237.92Q-145.79 238.15 -145.97 238.46Q-146.22 238.88 -146.22 239.45Q-146.22 239.88 -146.06 240.23Q-145.91 240.55 -145.62 240.8Q-145.5 240.9 -145.37 240.99Q-144.84 241.33 -144.09 241.33Q-143.63 241.33 -143.22 241.18Q-142.71 240.99 -142.28 240.54ZM-138.37 235.67L-138.4 234.87L-139.43 234.87L-139.43 241.21L-138.35 241.21L-138.34 236.7Q-138.2 236.39 -137.97 236.16Q-137.86 236.05 -137.72 235.96Q-137.61 235.88 -137.48 235.82Q-137.17 235.68 -136.8 235.68Q-136.15 235.68 -135.85 236Q-135.84 236 -135.84 236Q-135.53 236.33 -135.53 237.02L-135.53 241.21L-134.44 241.21L-134.44 237.02Q-134.45 235.75 -135.09 235.2Q-135.59 234.76 -136.47 234.76Q-137.06 234.76 -137.54 234.99Q-138.01 235.22 -138.37 235.67ZM-143.56 240.35Q-143.74 240.39 -143.93 240.39Q-144.39 240.39 -144.7 240.17Q-144.75 240.14 -144.8 240.1Q-144.91 240.01 -144.98 239.9Q-145.14 239.65 -145.14 239.3Q-145.14 239 -145.01 238.78Q-144.63 238.14 -143.15 238.14L-142.3 238.14L-142.3 239.44Q-142.33 239.51 -142.38 239.58Q-142.58 239.9 -142.96 240.12Q-143.25 240.29 -143.56 240.35Z" fill="#92929D" fill-opacity="1.000000" fill-rule="evenodd"/>
				<path d="M-143.33 236.96L-143.28 53.96L-142.09 53.96L-142.14 236.96L-143.33 236.96Z" fill="#F1F1F5" fill-opacity="1.000000" fill-rule="evenodd"/>
				<path d="M-143.28 53.96L-142.09 53.96L-142.14 236.96L-143.33 236.96L-143.28 53.96Z" stroke="#979797" stroke-opacity="0" stroke-width="0.000000"/>
			</g>
			<g filter="url(#filter_1_2595_dd)">
				<path d="M199.55 50.05L247.55 50.06C254.18 50.07 259.55 55.44 259.55 62.07L259.55 76.07C259.54 82.69 254.17 88.07 247.54 88.06L187.54 88.05L187.55 62.05C187.55 55.42 192.93 50.05 199.55 50.05Z" fill="#FFFFFF" fill-opacity="1.000000" fill-rule="nonzero"/>
			</g>
			<path d="M225.86 71.18C225.85 72.84 224.27 74.05 222.07 74.05C219.85 74.05 218.28 72.84 218.28 71.18C218.28 69.91 219.21 68.85 220.41 68.65L220.41 68.58C219.36 68.35 218.66 67.43 218.66 66.32C218.66 64.75 220.1 63.59 222.07 63.59C224.03 63.59 225.48 64.76 225.48 66.32C225.47 67.43 224.76 68.35 223.73 68.58L223.73 68.65C224.91 68.85 225.85 69.91 225.86 71.18ZM234.48 73.92L227.5 73.91L227.5 72.58L231.03 69.12C232.04 68.1 232.55 67.49 232.55 66.64C232.55 65.68 231.83 65.09 230.86 65.09C229.85 65.09 229.19 65.74 229.19 66.78L227.44 66.78C227.44 64.85 228.87 63.59 230.89 63.59C232.94 63.59 234.32 64.84 234.32 66.55C234.32 67.7 233.78 68.62 231.8 70.52L230.04 72.31L230.04 72.37L234.48 72.38L234.48 73.92ZM243.88 68.84C243.88 72.18 242.41 74.12 239.96 74.11C237.5 74.11 236.04 72.17 236.04 68.83C236.04 65.51 237.51 63.6 239.96 63.6C242.41 63.6 243.88 65.52 243.88 68.84ZM220.46 66.5C220.45 67.38 221.13 67.99 222.07 67.99C223 67.99 223.67 67.39 223.68 66.5C223.67 65.62 223.02 65.03 222.07 65.03C221.11 65.03 220.45 65.62 220.46 66.5ZM237.9 68.84C237.9 71.28 238.69 72.55 239.96 72.55C241.23 72.56 242.02 71.28 242.02 68.84C242.02 66.41 241.23 65.13 239.96 65.13C238.7 65.13 237.91 66.41 237.9 68.84ZM220.18 71.06C220.17 72 220.92 72.63 222.07 72.63C223.21 72.63 223.95 72 223.96 71.06C223.95 70.09 223.16 69.39 222.07 69.39C220.97 69.39 220.17 70.08 220.18 71.06Z" fill="#1D1E25" fill-opacity="1.000000" fill-rule="evenodd"/>
			<rect x="198.553955" y="64.197510" rx="2.000000" width="10.000000" height="10.000000" transform="rotate(0.0158183 198.553955 64.197510)" fill="#2280FF" fill-opacity="1.000000"/>
		</g>
		<g mask="url(#mask1_2555)">
			<path d="M-9.47 147.88C-4.98 149.73 5.66 154.88 12.21 160.69C20.41 167.97 46.91 175.93 62.83 158.63C78.74 141.33 85.97 135.1 97.54 135.1C109.11 135.1 116.82 132.68 129.84 114.69C142.86 96.69 147.1 87.99 163.1 88.04C178.57 88.09 186.4 98.78 190.09 104.66L198.77 118.17C202.3 123.82 211.8 133.4 225.71 134.42C239.63 135.45 250.33 130.28 261.43 121.65C271.76 113.61 289.87 105.04 305.29 121.66C317.63 134.95 323.92 139.66 325.53 140.36" stroke="#2280FF" stroke-opacity="1.000000" stroke-width="3.000000" stroke-linecap="round"/>
			<path d="M-33.48 154.61C-28.27 155.95 -15.95 159.71 -8.36 163.94C1.13 169.24 31.84 175.05 50.26 162.45C68.69 149.84 77.06 145.31 90.46 145.31C103.86 145.32 112.8 143.55 127.87 130.45C142.95 117.34 147.87 111.01 166.4 111.04C184.31 111.08 193.38 118.87 197.66 123.15L207.7 132.99C211.8 137.11 222.8 144.09 238.92 144.83C255.03 145.58 267.43 141.82 280.28 135.53C292.25 129.68 313.22 123.44 331.08 135.55C345.37 145.23 352.67 148.66 354.53 149.17" stroke="#FF5555" stroke-opacity="1.000000" stroke-width="3.000000" stroke-linecap="round"/>
		</g>
		<rect x="-0.552002" y="49.999756" width="59.779999" height="203.000000" transform="rotate(0.0158183 -0.552002 49.999756)" fill="#FFFFFF" fill-opacity="1.000000"/>
		<rect x="-0.552002" y="49.999756" width="59.779999" height="203.000000" transform="rotate(0.0158183 -0.552002 49.999756)" stroke="#979797" stroke-opacity="0" stroke-width="0.000000"/>
		<rect rx="-0.500000" width="16.080000" height="23.000000" transform="translate(10.927490 52.502930) rotate(0.015818)" fill="#FFFFFF" fill-opacity="0"/>
		<g clip-path="url(#clip1_2603)">
			<path d="M13.95 59.27L15 59.27L15 68L13.94 68L13.95 60.38L13.89 60.38L11.76 61.79L11.76 60.72L13.95 59.27ZM18.61 68L17.61 68L17.61 59.27L18.62 59.27L18.61 64.37L18.73 64.37L21.6 61.46L22.84 61.46L20.08 64.25L23.05 68L21.77 68L19.32 64.9L18.61 65.55L18.61 68Z" fill="#808D9E" fill-opacity="1.000000" fill-rule="evenodd"/>
		</g>
		<rect rx="-0.500000" width="9.980000" height="23.000000" transform="translate(18.200439 222.504883) rotate(0.015818)" fill="#FFFFFF" fill-opacity="0"/>
		<g clip-path="url(#clip1_2605)">
			<path d="M25.09 233.64C25.09 236.49 23.98 238.12 22.05 238.12C20.13 238.12 19.02 236.49 19.02 233.64C19.02 230.81 20.14 229.15 22.05 229.15C23.96 229.15 25.09 230.81 25.09 233.64ZM20.04 233.64C20.04 235.91 20.78 237.18 22.05 237.18C23.32 237.18 24.06 235.91 24.07 233.64C24.07 231.37 23.32 230.08 22.05 230.08C20.79 230.08 20.04 231.37 20.04 233.64Z" fill="#808D9E" fill-opacity="1.000000" fill-rule="evenodd"/>
		</g>
		<rect rx="-0.500000" width="28.280001" height="23.000000" transform="translate(-0.090088 188.499756) rotate(0.015818)" fill="#FFFFFF" fill-opacity="0"/>
		<g clip-path="url(#clip1_2607)">
			<path d="M7.64 204L2.13 204L2.13 203.23L5.02 200.08C6.02 198.97 6.5 198.38 6.5 197.57C6.5 196.65 5.78 196.07 4.83 196.07C3.82 196.07 3.17 196.73 3.17 197.72L2.17 197.72C2.17 196.19 3.33 195.15 4.86 195.15C6.4 195.15 7.49 196.23 7.49 197.57C7.49 198.54 7.04 199.29 5.54 200.89L3.58 202.99L3.58 203.06L7.64 203.06L7.64 204ZM15.36 199.64C15.36 202.49 14.25 204.12 12.33 204.12C10.4 204.12 9.29 202.49 9.29 199.64C9.29 196.81 10.42 195.15 12.33 195.15C14.24 195.15 15.36 196.81 15.36 199.64ZM22.95 199.64C22.95 202.49 21.84 204.12 19.91 204.12C17.99 204.12 16.88 202.49 16.88 199.64C16.88 196.81 18.01 195.15 19.92 195.15C21.83 195.15 22.95 196.81 22.95 199.64ZM10.32 199.64C10.32 201.91 11.06 203.18 12.33 203.18C13.6 203.18 14.34 201.91 14.34 199.64C14.34 197.37 13.59 196.07 12.33 196.07C11.07 196.07 10.32 197.37 10.32 199.64ZM17.9 199.64C17.9 201.91 18.65 203.18 19.91 203.18C21.18 203.18 21.93 201.91 21.93 199.64C21.93 197.37 21.18 196.08 19.92 196.08C18.65 196.08 17.9 197.37 17.9 199.64Z" fill="#808D9E" fill-opacity="1.000000" fill-rule="evenodd"/>
		</g>
		<rect rx="-0.500000" width="28.280001" height="23.000000" transform="translate(-0.080566 154.499756) rotate(0.015818)" fill="#FFFFFF" fill-opacity="0"/>
		<g clip-path="url(#clip1_2609)">
			<path d="M15.82 165.64C15.82 168.49 14.7 170.12 12.78 170.12C10.86 170.12 9.75 168.49 9.75 165.64C9.75 162.81 10.87 161.15 12.78 161.15C14.69 161.15 15.82 162.81 15.82 165.64ZM23.4 165.64C23.4 168.49 22.29 170.12 20.37 170.12C18.44 170.12 17.33 168.49 17.33 165.64C17.33 162.81 18.46 161.15 20.37 161.15C22.28 161.15 23.4 162.81 23.4 165.64ZM6.05 168.21L1.94 168.21L1.94 167.34L5.78 161.27L7.05 161.27L7.05 167.27L8.25 167.27L8.25 168.21L7.05 168.21L7.05 170L6.05 170L6.05 168.21ZM10.77 165.64C10.77 167.91 11.51 169.18 12.78 169.18C14.05 169.18 14.79 167.91 14.79 165.64C14.79 163.37 14.05 162.07 12.78 162.07C11.52 162.07 10.77 163.37 10.77 165.64ZM18.35 165.64C18.35 167.91 19.1 169.18 20.37 169.18C21.63 169.18 22.38 167.91 22.38 165.64C22.38 163.37 21.63 162.08 20.37 162.08C19.11 162.08 18.36 163.37 18.35 165.64ZM3.08 167.27L6.05 167.27L6.05 162.62L5.98 162.62L3.08 167.2L3.08 167.27Z" fill="#808D9E" fill-opacity="1.000000" fill-rule="evenodd"/>
		</g>
		<rect rx="-0.500000" width="28.280001" height="23.000000" transform="translate(-0.071289 120.499756) rotate(0.015818)" fill="#FFFFFF" fill-opacity="0"/>
		<g clip-path="url(#clip1_2611)">
			<path d="M7.96 133.19C7.96 134.81 6.82 136.14 5.05 136.12C3.62 136.1 2.02 135.2 2.02 131.97C2.02 128.89 3.22 127.15 5.19 127.15C6.65 127.15 7.69 128.1 7.9 129.45L6.86 129.45C6.66 128.67 6.11 128.09 5.19 128.09C3.84 128.09 3.01 129.32 3.01 131.45L3.08 131.45C3.55 130.73 4.32 130.29 5.22 130.29C6.72 130.29 7.97 131.5 7.96 133.19ZM15.6 131.64C15.6 134.49 14.49 136.12 12.57 136.12C10.64 136.12 9.53 134.49 9.53 131.64C9.53 128.81 10.66 127.15 12.57 127.15C14.48 127.15 15.61 128.81 15.6 131.64ZM23.19 131.64C23.19 134.49 22.08 136.12 20.15 136.12C18.23 136.12 17.12 134.49 17.12 131.64C17.12 128.81 18.25 127.15 20.16 127.15C22.07 127.15 23.19 128.81 23.19 131.64ZM10.56 131.64C10.56 133.91 11.3 135.18 12.57 135.18C13.84 135.18 14.58 133.91 14.58 131.64C14.58 129.37 13.83 128.07 12.57 128.07C11.31 128.07 10.56 129.37 10.56 131.64ZM18.14 131.64C18.14 133.91 18.89 135.18 20.15 135.18C21.42 135.18 22.17 133.91 22.17 131.64C22.17 129.37 21.42 128.08 20.16 128.08C18.89 128.08 18.14 129.37 18.14 131.64ZM3.16 133.2C3.15 134.24 3.96 135.18 5.05 135.18C6.12 135.18 6.94 134.29 6.94 133.18C6.94 132.1 6.15 131.22 5.09 131.22C4 131.22 3.16 132.16 3.16 133.2Z" fill="#808D9E" fill-opacity="1.000000" fill-rule="evenodd"/>
		</g>
		<rect rx="-0.500000" width="28.280001" height="23.000000" transform="translate(-0.061768 86.499756) rotate(0.015818)" fill="#FFFFFF" fill-opacity="0"/>
		<g clip-path="url(#clip1_2613)">
			<path d="M7.92 99.68C7.92 101.1 6.7 102.12 4.96 102.12C3.2 102.12 1.98 101.1 1.99 99.68C1.98 98.57 2.72 97.64 3.68 97.46L3.68 97.41C2.84 97.2 2.31 96.4 2.32 95.47C2.31 94.14 3.43 93.15 4.96 93.15C6.48 93.15 7.59 94.14 7.6 95.47C7.59 96.4 7.05 97.2 6.24 97.41L6.24 97.46C7.18 97.64 7.92 98.58 7.92 99.68ZM15.53 97.64C15.53 100.49 14.42 102.12 12.49 102.12C10.57 102.12 9.46 100.49 9.46 97.64C9.46 94.81 10.58 93.15 12.49 93.15C14.4 93.15 15.53 94.81 15.53 97.64ZM23.11 97.64C23.11 100.49 22 102.12 20.08 102.12C18.15 102.12 17.04 100.49 17.04 97.64C17.04 94.81 18.17 93.15 20.08 93.15C21.99 93.15 23.11 94.81 23.11 97.64ZM3.34 95.54C3.33 96.44 4.01 97.04 4.96 97.04C5.9 97.04 6.57 96.44 6.58 95.54C6.57 94.65 5.92 94.07 4.96 94.07C3.98 94.07 3.33 94.65 3.34 95.54ZM10.48 97.64C10.48 99.91 11.22 101.18 12.49 101.18C13.76 101.18 14.51 99.91 14.51 97.64C14.51 95.37 13.76 94.07 12.49 94.07C11.23 94.07 10.48 95.37 10.48 97.64ZM18.07 97.64C18.07 99.91 18.81 101.18 20.08 101.18C21.35 101.18 22.09 99.91 22.09 97.64C22.09 95.37 21.34 94.08 20.08 94.08C18.82 94.08 18.07 95.37 18.07 97.64ZM3.03 99.63C3.02 100.56 3.76 101.18 4.96 101.18C6.14 101.18 6.88 100.56 6.88 99.63C6.88 98.64 6.06 97.94 4.96 97.94C3.84 97.94 3.02 98.64 3.03 99.63Z" fill="#808D9E" fill-opacity="1.000000" fill-rule="evenodd"/>
		</g>
		<g filter="url(#filter_1_2616_dd)">
			<rect x="171.548584" y="84.047363" rx="7.000000" width="14.000000" height="14.000000" transform="rotate(0.0158183 171.548584 84.047363)" fill="#2280FF" fill-opacity="1.000000"/>
			<rect x="172.548340" y="85.047607" rx="6.000000" width="12.000000" height="12.000000" transform="rotate(0.0158183 172.548340 85.047607)" stroke="#FFFFFF" stroke-opacity="1.000000" stroke-width="2.000000"/>
		</g>
		<rect x="169.037842" y="15.046631" rx="2.000000" width="12.200000" height="10.000000" transform="rotate(0.0158183 169.037842 15.046631)" fill="#FF5555" fill-opacity="1.000000"/>
		<path d="M242.98 15.36C242.98 15.8 242.6 16.15 242.14 16.15C241.69 16.15 241.31 15.8 241.31 15.36C241.31 14.92 241.69 14.56 242.14 14.56C242.6 14.56 242.98 14.92 242.98 15.36ZM196.32 14.73C198.37 14.73 200.04 15.96 200.42 18.05L199.19 18.05C198.89 16.64 197.68 15.88 196.32 15.88C194.47 15.88 193.02 17.31 193.02 19.96C193.02 22.6 194.47 24.03 196.32 24.03C197.67 24.03 198.89 23.28 199.18 21.87L200.42 21.87C200.04 23.96 198.37 25.19 196.32 25.19C193.71 25.19 191.82 23.18 191.83 19.96C191.83 16.74 193.72 14.73 196.32 14.73ZM238.65 17.43L240.28 17.43L240.28 18.42L238.65 18.42L238.65 22.87C238.65 23.87 239.14 24.03 239.66 24.03C239.92 24.03 240.08 23.99 240.18 23.97L240.42 25.02C240.25 25.08 239.98 25.16 239.54 25.16C238.55 25.16 237.47 24.52 237.47 23.19L237.47 18.42L236.32 18.42L236.32 17.42L237.47 17.42L237.47 15.6L238.65 15.6L238.65 17.43ZM246.06 17.43L247.69 17.43L247.69 18.42L246.06 18.42L246.06 22.88C246.06 23.87 246.55 24.03 247.07 24.03C247.33 24.03 247.49 23.99 247.59 23.97L247.83 25.02C247.67 25.08 247.39 25.16 246.95 25.16C245.96 25.16 244.88 24.53 244.88 23.19L244.88 18.42L243.73 18.42L243.73 17.43L244.88 17.43L244.88 15.6L246.06 15.6L246.06 17.43ZM257.9 25.07L256.73 25.07L256.73 17.43L257.87 17.43L257.86 18.58L257.94 18.58C258.22 17.83 259.02 17.31 259.93 17.31C260.11 17.31 260.42 17.32 260.55 17.33L260.55 18.52C260.47 18.5 260.14 18.45 259.83 18.45C258.72 18.45 257.9 19.2 257.9 20.23L257.9 25.07ZM208.31 21.28C208.31 23.64 206.92 25.21 204.85 25.21C202.78 25.21 201.39 23.64 201.39 21.27C201.39 18.88 202.78 17.32 204.85 17.32C206.92 17.32 208.31 18.89 208.31 21.28ZM210.77 25.05L209.6 25.05L209.6 17.42L210.73 17.42L210.73 18.61L210.83 18.61C211.15 17.79 211.89 17.32 212.88 17.32C213.89 17.32 214.55 17.79 214.93 18.61L215.01 18.61C215.4 17.82 216.2 17.32 217.3 17.32C218.66 17.32 219.62 18.15 219.62 19.95L219.62 25.06L218.45 25.06L218.45 19.95C218.45 18.82 217.73 18.37 216.9 18.37C215.82 18.37 215.21 19.1 215.21 20.08L215.21 25.05L214.01 25.05L214.02 19.82C214.02 18.95 213.39 18.37 212.5 18.37C211.59 18.37 210.77 19.16 210.77 20.28L210.77 25.05ZM222.44 27.92L221.27 27.92L221.27 17.42L222.41 17.42L222.4 18.63L222.54 18.63C222.8 18.23 223.26 17.32 224.75 17.32C226.68 17.32 228.01 18.85 228.01 21.26C228.01 23.69 226.68 25.22 224.77 25.22C223.3 25.22 222.8 24.3 222.54 23.88L222.44 23.88L222.44 27.92ZM235.54 23.29C235.19 24.44 234.05 25.22 232.5 25.22C230.29 25.22 228.94 23.65 228.94 21.3C228.94 18.95 230.32 17.32 232.38 17.32C233.97 17.32 235.67 18.3 235.66 21.14L235.66 21.64L230.12 21.64C230.17 23.27 231.12 24.16 232.5 24.16C233.42 24.16 234.11 23.77 234.41 22.97L235.54 23.29ZM255.44 21.29C255.44 23.65 254.05 25.23 251.98 25.23C249.91 25.22 248.52 23.65 248.52 21.29C248.52 18.9 249.91 17.33 251.98 17.33C254.05 17.33 255.44 18.9 255.44 21.29ZM242.72 25.06L241.54 25.06L241.55 17.43L242.72 17.43L242.72 25.06ZM202.56 21.27C202.56 22.81 203.28 24.16 204.85 24.16C206.42 24.16 207.14 22.81 207.14 21.28C207.14 19.74 206.42 18.37 204.85 18.37C203.28 18.37 202.56 19.74 202.56 21.27ZM224.61 18.37C223.18 18.37 222.42 19.53 222.42 21.24C222.42 22.97 223.2 24.16 224.61 24.16C226.08 24.16 226.84 22.87 226.84 21.24C226.84 19.63 226.1 18.38 224.61 18.37ZM232.38 18.38C231.04 18.38 230.2 19.44 230.12 20.63L234.47 20.63C234.47 19.33 233.66 18.38 232.38 18.38ZM249.69 21.29C249.69 22.82 250.41 24.17 251.98 24.17C253.55 24.17 254.27 22.82 254.27 21.29C254.27 19.76 253.55 18.38 251.98 18.38C250.41 18.38 249.69 19.76 249.69 21.29Z" fill="#1D1E25" fill-opacity="1.000000" fill-rule="evenodd"/>
		<rect x="0.677734" y="15.000244" rx="2.000000" width="12.200000" height="10.000000" transform="rotate(0.0158183 0.677734 15.000244)" fill="#2280FF" fill-opacity="1.000000"/>
		<rect x="0.677734" y="15.000244" rx="2.000000" width="12.200000" height="10.000000" transform="rotate(0.0158183 0.677734 15.000244)" stroke="#979797" stroke-opacity="0" stroke-width="0.000000"/>
		<path d="M23.86 25L23.87 14.82L25.34 14.82L28.8 23.27L28.92 23.27L32.38 14.82L33.85 14.82L33.84 25L32.69 25L32.69 17.27L32.6 17.27L29.41 25L28.3 25L25.12 17.27L25.02 17.27L25.02 25L23.86 25ZM71.85 23.84C71.59 24.26 71.09 25.18 69.62 25.18C67.71 25.17 66.38 23.64 66.38 21.22C66.38 18.81 67.72 17.28 69.65 17.28C71.14 17.28 71.6 18.19 71.85 18.59L71.95 18.59L71.96 14.83L73.13 14.83L73.12 25.02L71.99 25.02L71.99 23.84L71.85 23.84ZM91.57 17.38L93.2 17.39L93.2 18.38L91.57 18.38L91.57 22.83C91.57 23.83 92.07 23.98 92.58 23.99C92.84 23.99 93 23.95 93.1 23.93L93.34 24.98C93.18 25.04 92.9 25.12 92.47 25.12C91.47 25.12 90.4 24.48 90.4 23.15L90.4 18.38L89.25 18.38L89.25 17.38L90.4 17.38L90.4 15.56L91.57 15.56L91.57 17.38ZM55.59 25.01L54.42 25.01L54.42 17.37L55.55 17.37L55.55 18.53L55.63 18.53C55.91 17.77 56.71 17.26 57.62 17.26C57.8 17.26 58.1 17.27 58.24 17.28L58.24 18.47C58.16 18.45 57.83 18.39 57.52 18.39C56.41 18.39 55.59 19.15 55.59 20.18L55.59 25.01ZM47.56 27.87L46.38 27.87L46.39 17.37L47.52 17.37L47.52 18.59L47.66 18.59C47.92 18.19 48.38 17.27 49.87 17.27C51.8 17.27 53.13 18.81 53.13 21.21C53.13 23.64 51.8 25.17 49.89 25.17C48.42 25.17 47.92 24.25 47.66 23.84L47.56 23.84L47.56 27.87ZM65.45 21.24C65.45 23.6 64.06 25.17 61.99 25.17C59.92 25.17 58.53 23.6 58.53 21.23C58.53 18.85 59.93 17.28 61.99 17.28C64.06 17.28 65.45 18.85 65.45 21.24ZM88.67 22.79C88.47 24.14 87.36 25.18 85.67 25.18C83.52 25.18 82.21 23.53 82.21 21.24C82.21 18.91 83.58 17.28 85.65 17.28C87.26 17.28 88.47 18.24 88.67 19.67L87.5 19.67C87.32 18.97 86.7 18.34 85.67 18.34C84.3 18.34 83.38 19.47 83.38 21.2C83.38 22.97 84.28 24.12 85.67 24.12C86.58 24.12 87.28 23.63 87.5 22.79L88.67 22.79ZM38.66 26.12C38.21 27.31 37.47 27.87 36.41 27.87C36.01 27.87 35.67 27.79 35.55 27.73L35.85 26.7C36.71 26.92 37.23 26.81 37.66 25.64L37.88 25.05L35.06 17.37L36.33 17.37L38.44 23.45L38.52 23.45L40.63 17.37L41.9 17.37L38.66 26.12ZM77.77 23.98C78.65 23.98 79.74 23.33 79.74 21.9L79.75 17.38L80.92 17.38L80.92 25.02L79.74 25.02L79.74 23.73L79.66 23.73C79.31 24.5 78.55 25.12 77.4 25.12C75.97 25.12 74.93 24.18 74.93 22.23L74.93 17.38L76.11 17.38L76.1 22.15C76.1 23.27 76.8 23.98 77.77 23.98ZM49.73 18.33C48.3 18.33 47.54 19.48 47.54 21.19C47.54 22.92 48.32 24.11 49.73 24.11C51.2 24.11 51.95 22.82 51.95 21.19C51.95 19.58 51.22 18.33 49.73 18.33ZM59.71 21.23C59.71 22.77 60.42 24.12 61.99 24.12C63.56 24.12 64.28 22.77 64.28 21.24C64.28 19.7 63.56 18.33 61.99 18.33C60.42 18.33 59.71 19.7 59.71 21.23ZM67.56 21.2C67.56 22.83 68.31 24.12 69.78 24.12C71.19 24.12 71.97 22.93 71.97 21.2C71.97 19.49 71.22 18.33 69.78 18.33C68.29 18.33 67.56 19.59 67.56 21.2Z" fill="#1D1E25" fill-opacity="1.000000" fill-rule="evenodd"/>
	</g>
</svg>
