<svg width="40.000000" height="40.000000" viewBox="0 0 40 40" fill="none" xmlns="http://www.w3.org/2000/svg" xmlns:xlink="http://www.w3.org/1999/xlink">
	<desc>
			Created with Pixso.
	</desc>
	<defs>
		<clipPath id="clip1_2537">
			<rect rx="-0.500000" width="39.000000" height="39.000000" transform="translate(0.500000 0.500000)" fill="white" fill-opacity="0"/>
		</clipPath>
	</defs>
	<g clip-path="url(#clip1_2537)">
		<path d="M33.33 10C28.21 10 23.53 8.07 20 4.9C16.46 8.07 11.78 9.99 6.66 9.99C6.32 9.99 5.97 9.99 5.63 9.97C5.22 11.57 5 13.26 5 15C5 24.31 11.37 32.14 20 34.36C28.62 32.14 35 24.31 35 15C35 13.26 34.77 11.57 34.36 9.97C34.02 9.99 33.67 10 33.33 10ZM15 20L18.33 23.33L25 16.66" stroke="#FFFFFF" stroke-opacity="1.000000" stroke-width="3.000000" stroke-linejoin="round" stroke-linecap="round"/>
	</g>
</svg>
