<svg width="15.489014" height="12.799988" viewBox="0 0 15.489 12.8" fill="none" xmlns="http://www.w3.org/2000/svg" xmlns:xlink="http://www.w3.org/1999/xlink">
	<desc>
			Created with Pixso.
	</desc>
	<defs/>
	<path id="Path" d="M7.52 3.4L7.55 3.95L6.99 3.89C4.95 3.63 3.17 2.74 1.66 1.26L0.92 0.53L0.73 1.07C0.33 2.28 0.59 3.56 1.43 4.42C1.88 4.89 1.77 4.96 1 4.68C0.73 4.59 0.5 4.52 0.48 4.55C0.4 4.63 0.67 5.66 0.88 6.07C1.17 6.63 1.76 7.19 2.41 7.51L2.96 7.77L2.31 7.78C1.68 7.78 1.66 7.8 1.73 8.03C1.95 8.77 2.84 9.55 3.82 9.89L4.52 10.12L3.91 10.48C3.02 11 1.96 11.3 0.91 11.32C0.41 11.33 0 11.38 0 11.41C0 11.52 1.36 12.16 2.15 12.41C4.54 13.14 7.37 12.82 9.5 11.57C11.01 10.68 12.52 8.9 13.22 7.19C13.6 6.27 13.98 4.6 13.98 3.8C13.98 3.28 14.02 3.21 14.64 2.59C15.01 2.22 15.36 1.83 15.43 1.72C15.54 1.5 15.53 1.5 14.96 1.69C14.01 2.03 13.87 1.99 14.34 1.48C14.69 1.12 15.1 0.46 15.1 0.27C15.1 0.24 14.94 0.29 14.75 0.39C14.54 0.51 14.1 0.68 13.76 0.78L13.16 0.97L12.61 0.6C12.31 0.39 11.88 0.17 11.66 0.1C11.09 -0.06 10.21 -0.03 9.7 0.15C8.3 0.65 7.42 1.97 7.52 3.4Z" fill="#161A34" fill-opacity="1.000000" fill-rule="evenodd"/>
</svg>
