<svg width="17.066650" height="17.066833" viewBox="0 0 17.0667 17.0668" fill="none" xmlns="http://www.w3.org/2000/svg" xmlns:xlink="http://www.w3.org/1999/xlink">
	<desc>
			Created with Pixso.
	</desc>
	<defs/>
	<path id="Path" d="M8.53 0C6.21 0 5.92 0.01 5.01 0.05C4.1 0.09 3.48 0.23 2.94 0.44C2.38 0.66 1.9 0.95 1.43 1.43C0.95 1.9 0.66 2.38 0.44 2.94C0.23 3.48 0.09 4.1 0.05 5.01C0.01 5.92 0 6.21 0 8.53C0 10.85 0.01 11.14 0.05 12.05C0.09 12.95 0.23 13.57 0.44 14.12C0.66 14.68 0.95 15.15 1.43 15.63C1.9 16.1 2.38 16.4 2.94 16.61C3.48 16.82 4.1 16.97 5.01 17.01C5.92 17.05 6.21 17.06 8.53 17.06C10.85 17.06 11.14 17.05 12.05 17.01C12.95 16.97 13.58 16.82 14.12 16.61C14.68 16.4 15.15 16.1 15.63 15.63C16.1 15.15 16.39 14.68 16.61 14.12C16.82 13.57 16.97 12.95 17.01 12.05C17.05 11.14 17.06 10.85 17.06 8.53C17.06 6.21 17.05 5.92 17.01 5.01C16.97 4.1 16.82 3.48 16.61 2.94C16.39 2.38 16.1 1.9 15.63 1.43C15.15 0.95 14.68 0.66 14.12 0.44C13.57 0.23 12.95 0.09 12.04 0.05C11.13 0.01 10.84 0 8.53 0L8.53 0ZM7.76 1.53C7.99 1.53 8.24 1.53 8.53 1.53C10.81 1.53 11.08 1.54 11.98 1.58C12.81 1.62 13.26 1.76 13.56 1.88C13.96 2.03 14.24 2.22 14.54 2.51C14.84 2.81 15.03 3.1 15.18 3.5C15.3 3.8 15.44 4.25 15.47 5.08C15.52 5.98 15.52 6.25 15.52 8.53C15.52 10.8 15.52 11.07 15.47 11.97C15.44 12.81 15.3 13.26 15.18 13.56C15.03 13.96 14.84 14.24 14.54 14.54C14.24 14.84 13.96 15.02 13.56 15.18C13.26 15.29 12.81 15.43 11.98 15.47C11.08 15.51 10.81 15.52 8.53 15.52C6.25 15.52 5.98 15.51 5.08 15.47C4.25 15.43 3.8 15.29 3.5 15.18C3.1 15.02 2.81 14.84 2.52 14.54C2.22 14.24 2.03 13.96 1.88 13.56C1.76 13.26 1.62 12.8 1.58 11.97C1.54 11.07 1.53 10.8 1.53 8.52C1.53 6.25 1.54 5.98 1.58 5.08C1.62 4.25 1.76 3.79 1.88 3.49C2.03 3.09 2.22 2.81 2.52 2.51C2.81 2.21 3.1 2.03 3.5 1.87C3.8 1.76 4.25 1.62 5.08 1.58C5.87 1.54 6.17 1.53 7.76 1.53L7.76 1.53ZM13.08 2.95C12.52 2.95 12.06 3.41 12.06 3.97C12.06 4.54 12.52 5 13.08 5C13.65 5 14.11 4.54 14.11 3.97C14.11 3.41 13.65 2.95 13.08 2.95ZM8.53 4.15C6.11 4.15 4.15 6.11 4.15 8.53C4.15 10.95 6.11 12.91 8.53 12.91C10.95 12.91 12.91 10.95 12.91 8.53C12.91 6.11 10.95 4.15 8.53 4.15ZM8.53 5.68C10.1 5.68 11.37 6.96 11.37 8.53C11.37 10.1 10.1 11.37 8.53 11.37C6.96 11.37 5.68 10.1 5.68 8.53C5.68 6.96 6.96 5.68 8.53 5.68Z" fill="#161A34" fill-opacity="1.000000" fill-rule="evenodd"/>
</svg>
