<svg width="16.916992" height="16.146667" viewBox="0 0 16.917 16.1467" fill="none" xmlns="http://www.w3.org/2000/svg" xmlns:xlink="http://www.w3.org/1999/xlink">
	<desc>
			Created with Pixso.
	</desc>
	<defs/>
	<path id="Path" d="M4.07 1.88C4.05 0.81 3.29 0 2.05 0C0.81 0 0 0.81 0 1.88C0 2.92 0.78 3.76 2 3.76L2.02 3.76C3.29 3.76 4.07 2.92 4.07 1.88ZM16.91 9.89C16.91 6.55 15.12 4.99 12.74 4.99C10.81 4.99 9.95 6.05 9.47 6.79L9.47 5.25L5.84 5.25C5.89 6.27 5.84 16.14 5.84 16.14L9.47 16.14L9.47 10.06C9.47 9.73 9.49 9.41 9.59 9.17C9.85 8.52 10.45 7.85 11.45 7.85C12.76 7.85 13.29 8.85 13.29 10.31L13.29 16.14L16.91 16.14L16.91 9.89ZM3.84 5.25L0.21 5.25L0.21 16.14L3.84 16.14L3.84 5.25Z" fill="#161A34" fill-opacity="1.000000" fill-rule="evenodd"/>
</svg>
