<svg width="40.000000" height="40.000000" viewBox="0 0 40 40" fill="none" xmlns="http://www.w3.org/2000/svg" xmlns:xlink="http://www.w3.org/1999/xlink">
	<desc>
			Created with Pixso.
	</desc>
	<defs>
		<clipPath id="clip1_2533">
			<rect rx="-0.500000" width="39.000000" height="39.000000" transform="translate(0.500000 0.500000)" fill="white" fill-opacity="0"/>
		</clipPath>
	</defs>
	<g clip-path="url(#clip1_2533)">
		<path d="M25 8.33L28.33 8.33C30.17 8.33 31.66 9.82 31.66 11.66L31.66 31.66C31.66 33.5 30.17 35 28.33 35L11.66 35C9.82 35 8.33 33.5 8.33 31.66L8.33 11.66C8.33 9.82 9.82 8.33 11.66 8.33L15 8.33M15 23.33L18.33 26.66L25 20M21.66 5C23.5 5 25 6.49 25 8.33C25 10.17 23.5 11.66 21.66 11.66L18.33 11.66C16.49 11.66 15 10.17 15 8.33C15 6.49 16.49 5 18.33 5L21.66 5Z" stroke="#FFFFFF" stroke-opacity="1.000000" stroke-width="3.000000" stroke-linecap="round"/>
	</g>
</svg>
